<?xml version="1.0" standalone="no"?>
<!DOCTYPE svg PUBLIC "-//W3C//DTD SVG 1.1//EN" "http://www.w3.org/Graphics/SVG/1.1/DTD/svg11.dtd" >
<svg xmlns="http://www.w3.org/2000/svg">
<metadata></metadata>
<defs>
<font id="breuer_textregular" horiz-adv-x="1194" >
<font-face units-per-em="2048" ascent="1577" descent="-471" />
<missing-glyph horiz-adv-x="523" />
<glyph unicode="&#xd;" horiz-adv-x="5" />
<glyph unicode=" "  horiz-adv-x="523" />
<glyph unicode="&#x09;" horiz-adv-x="523" />
<glyph unicode="&#xa0;" horiz-adv-x="523" />
<glyph unicode="!" horiz-adv-x="547" d="M145 1464h252l-63 -1020h-125zM162 0v203h219v-203h-219z" />
<glyph unicode="&#x22;" horiz-adv-x="676" d="M90 1464h203l-45 -473h-113zM369 1464h202l-45 -473h-112z" />
<glyph unicode="#" horiz-adv-x="1270" d="M94 375l12 121h226l41 475h-228l13 121h225l35 372h133l-31 -372h289l31 372h137l-31 -372h225l-12 -121h-223l-41 -475h225l-12 -121h-225l-33 -375h-137l32 375h-288l-33 -375h-135l30 375h-225zM469 496h289l39 475h-287z" />
<glyph unicode="$" horiz-adv-x="1182" d="M135 502h176q0 -111 58 -157t215 -46q91 0 149 12.5t86.5 39t38.5 57.5t10 79q0 63 -25 99t-89.5 58t-184.5 32q-228 20 -320.5 91.5t-92.5 227.5q0 153 93 233.5t265 92.5v188h154v-188q182 -14 265 -97t83 -253h-176q0 105 -55 155t-199 50q-128 0 -191 -43.5 t-63 -139.5q0 -93 59.5 -133.5t208.5 -52.5q177 -17 272 -53t132.5 -98t37.5 -169q0 -57 -7 -99t-29.5 -86t-62 -73t-109 -50t-166.5 -27v-197h-154v197q-110 6 -185 32t-117 73t-59.5 105.5t-17.5 139.5z" />
<glyph unicode="%" horiz-adv-x="1497" d="M113 1159q0 179 72.5 253.5t232.5 74.5q158 0 230.5 -74.5t72.5 -253.5q0 -178 -72.5 -251.5t-230.5 -73.5q-161 0 -233 73t-72 252zM201 0l946 1464h145l-948 -1464h-143zM246 1169q0 -131 37.5 -177t134.5 -46q92 0 131 45.5t39 167.5q0 124 -39 170.5t-131 46.5 q-94 0 -133 -44.5t-39 -162.5zM772 301q0 179 73 253.5t232 74.5q158 0 230.5 -74.5t72.5 -253.5q0 -181 -72 -253.5t-231 -72.5q-160 0 -232.5 72.5t-72.5 253.5zM905 311q0 -131 37.5 -178t134.5 -47q92 0 131 45.5t39 169.5q0 123 -39 169t-131 46q-94 0 -133 -44.5 t-39 -160.5z" />
<glyph unicode="&#x26;" horiz-adv-x="1381" d="M113 395q0 125 65 216.5t170 136.5q-87 45 -139.5 130.5t-52.5 202.5q0 203 116.5 304.5t337.5 101.5q242 0 346.5 -96.5t104.5 -309.5h-178q0 134 -63.5 193t-209.5 59q-140 0 -208 -60t-68 -198q0 -119 58 -187.5t157 -68.5h715v-151h-174v-328q0 -103 49 -145.5 t159 -42.5v-152q-117 0 -193 33t-116 106q-109 -162 -395 -162q-481 0 -481 418zM291 401q0 -144 76.5 -209t226.5 -65q91 0 154 20t98.5 60.5t51 92t15.5 122.5v246h-372q-109 0 -179.5 -72t-70.5 -195z" />
<glyph unicode="'" horiz-adv-x="390" d="M90 1464h203l-45 -473h-113z" />
<glyph unicode="(" horiz-adv-x="721" d="M125 641q0 260 86 494.5t246 418.5h147q-149 -177 -234 -412t-85 -501q0 -264 85 -499t234 -412h-147q-160 184 -246 418.5t-86 492.5z" />
<glyph unicode=")" horiz-adv-x="721" d="M113 -270q148 178 233.5 413t85.5 498q0 265 -85.5 499.5t-233.5 413.5h147q160 -184 246 -418.5t86 -494.5q0 -258 -86 -492.5t-246 -418.5h-147z" />
<glyph unicode="*" horiz-adv-x="1205" d="M106 1063l74 227q30 -16 173 -97t210 -116q-11 56 -39 204t-45 228h240q-9 -53 -84 -432q52 26 115 61t147 83t121 69l78 -227l-439 -55l324 -299l-197 -142q-23 49 -87.5 191t-96.5 209q-27 -56 -90 -194t-96 -206l-193 142l320 299z" />
<glyph unicode="+" horiz-adv-x="1170" d="M125 549v141h387v387h139v-387h389v-141h-389v-391h-139v391h-387z" />
<glyph unicode="," horiz-adv-x="486" d="M135 -211v422h211l-90 -422h-121z" />
<glyph unicode="-" horiz-adv-x="793" d="M113 563v150h563v-150h-563z" />
<glyph unicode="." horiz-adv-x="486" d="M135 0v211h211v-211h-211z" />
<glyph unicode="/" horiz-adv-x="750" d="M68 -90l460 1644h150l-463 -1644h-147z" />
<glyph unicode="0" horiz-adv-x="1250" d="M125 510v444q0 290 117 411.5t381 121.5q263 0 380 -122.5t117 -410.5v-444q0 -289 -117 -411t-380 -122q-264 0 -381 121.5t-117 411.5zM303 510q0 -144 33.5 -226t101.5 -115.5t185 -33.5q173 0 245 81.5t72 293.5v444q0 212 -72 293.5t-245 81.5q-177 0 -248.5 -81 t-71.5 -296v-442z" />
<glyph unicode="1" horiz-adv-x="764" d="M113 1307v94l288 63h111v-1464h-180v1307h-219z" />
<glyph unicode="2" horiz-adv-x="1198" d="M125 1055q0 218 114 325t363 107q134 0 227 -27.5t147 -83.5t77.5 -131.5t23.5 -179.5q0 -106 -42 -192t-109 -144t-148 -108t-162.5 -96.5t-149.5 -95.5t-111.5 -118t-45.5 -153h783v-158h-965v113q0 89 26.5 165.5t70.5 132.5t102 104.5t121.5 87.5t127 76.5t121.5 77 t102 82.5t70.5 99.5t26.5 122.5q0 146 -66.5 208t-226.5 62q-147 0 -223 -61t-76 -215h-178z" />
<glyph unicode="3" horiz-adv-x="1241" d="M119 420h180q0 -154 71 -221.5t242 -67.5q174 0 252 65.5t78 217.5q0 122 -65 189t-183 67h-186v147h178q104 0 159.5 69t55.5 173q0 144 -69 208t-230 64q-160 0 -230.5 -67.5t-70.5 -221.5h-180q0 223 119.5 334t361.5 111q251 0 365 -105.5t114 -324.5 q0 -112 -56 -189.5t-153 -117.5q124 -37 188 -118t64 -222q0 -220 -122 -326.5t-390 -106.5q-262 0 -377.5 106t-115.5 337z" />
<glyph unicode="4" horiz-adv-x="1246" d="M82 340v135l670 989h233v-972h178v-152h-178v-340h-180v340h-723zM264 492h541v800z" />
<glyph unicode="5" horiz-adv-x="1246" d="M119 430h180q0 -147 74.5 -223t240.5 -76q176 0 250 81.5t74 262.5q0 180 -74 256t-227 76q-143 0 -291 -115h-190q39 435 65 772h821v-155h-665l-39 -492q156 121 346 121q105 0 182.5 -23t135.5 -76t87 -143.5t29 -220.5q0 -252 -117.5 -375t-386.5 -123 q-135 0 -231 31t-153.5 91t-84 141.5t-26.5 189.5z" />
<glyph unicode="6" horiz-adv-x="1237" d="M125 494v473q0 275 115 397.5t368 122.5q247 0 358 -101t113 -313h-180q0 138 -64 197t-227 59q-114 0 -178.5 -31.5t-95.5 -110t-31 -220.5v-187q181 99 369 99q237 0 339.5 -103.5t102.5 -326.5q0 -232 -116.5 -353t-370.5 -121q-272 0 -387 121t-115 398zM303 494 q0 -144 32 -222t99 -108.5t189 -30.5q169 0 241 72.5t72 238.5q0 170 -64.5 238t-238.5 68q-168 0 -330 -99v-157z" />
<glyph unicode="7" horiz-adv-x="1074" d="M72 1307v157h923v-139l-516 -1325h-192l516 1307h-731z" />
<glyph unicode="8" horiz-adv-x="1260" d="M102 385q0 282 273 363q-113 37 -173.5 125.5t-60.5 216.5q0 211 123 304t363 93q239 0 362 -93t123 -304q0 -128 -60 -216.5t-173 -125.5q274 -81 274 -363q0 -217 -125 -312.5t-401 -95.5t-400.5 95.5t-124.5 312.5zM285 399q0 -144 79.5 -206t262.5 -62q184 0 264 62 t80 206q0 129 -74.5 202t-237.5 73h-67q-307 0 -307 -275zM322 1075q0 -135 67 -198.5t203 -63.5h67q138 0 205.5 64t67.5 198q0 144 -71.5 200t-233.5 56q-161 0 -233 -56.5t-72 -199.5z" />
<glyph unicode="9" horiz-adv-x="1237" d="M117 1016q0 232 117 351.5t372 119.5q272 0 387 -119.5t115 -396.5v-473q0 -277 -115 -400t-368 -123q-247 0 -358 101t-113 313h180q0 -137 64.5 -197.5t226.5 -60.5q168 0 235.5 78.5t67.5 286.5v186q-80 -44 -176.5 -71t-190.5 -27q-238 0 -341 104t-103 328z M297 1020q0 -172 64.5 -239.5t238.5 -67.5q171 0 328 98v160q0 109 -16 177.5t-55 110t-97 57t-150 15.5q-169 0 -241 -73.5t-72 -237.5z" />
<glyph unicode=":" horiz-adv-x="486" d="M135 0v211h211v-211h-211zM135 735v211h211v-211h-211z" />
<glyph unicode=";" horiz-adv-x="486" d="M135 -211v422h211l-90 -422h-121zM135 735v211h211v-211h-211z" />
<glyph unicode="&#x3c;" horiz-adv-x="842" d="M113 733l448 776h164l-451 -776l451 -778h-164z" />
<glyph unicode="=" horiz-adv-x="1170" d="M125 324v141h915v-141h-915zM125 774v141h915v-141h-915z" />
<glyph unicode="&#x3e;" horiz-adv-x="842" d="M113 -45l448 778l-448 776h163l449 -776l-449 -778h-163z" />
<glyph unicode="?" horiz-adv-x="1149" d="M106 1077q0 410 455 410q255 0 371.5 -105t116.5 -329q0 -216 -104.5 -324.5t-309.5 -122.5l-17 -164h-110q-27 268 -31 303q109 0 179.5 13.5t118.5 49t68.5 94.5t20.5 151q0 150 -69.5 215t-229.5 65q-142 0 -210 -63t-68 -193h-181zM455 0v203h219v-203h-219z" />
<glyph unicode="@" horiz-adv-x="1792" d="M158 391v330q0 295 183 456.5t554 161.5q367 0 551 -162t184 -456v-330q0 -294 -184 -456t-551 -162q-364 0 -550.5 162.5t-186.5 455.5zM295 401q0 -253 148.5 -376t451.5 -123t450.5 123t147.5 376v312q0 252 -148 375.5t-450 123.5t-451 -123.5t-149 -375.5v-312z M539 377q0 106 70 165.5t200 67.5l278 19v94q0 89 -41.5 124.5t-152.5 35.5q-104 0 -149.5 -34.5t-45.5 -123.5h-127q0 78 23 132.5t67.5 83.5t100 41.5t131.5 12.5q169 0 245 -61.5t76 -210.5v-569h-86l-24 77q-125 -96 -273 -96q-139 0 -215.5 60.5t-76.5 181.5zM668 381 q0 -133 170 -133q134 0 249 90v197l-268 -23q-81 -7 -116 -39t-35 -92z" />
<glyph unicode="A" horiz-adv-x="1182" d="M45 0l430 1464h227l431 -1464h-187l-100 356h-512l-101 -356h-188zM375 510h430l-213 776h-4z" />
<glyph unicode="B" horiz-adv-x="1239" d="M158 0v1464h475q250 0 358.5 -89t108.5 -290q0 -124 -59.5 -212t-159.5 -121q136 -38 200 -125t64 -228q0 -212 -114 -305.5t-361 -93.5h-512zM338 158h326q161 0 229 57.5t68 194.5q0 134 -73 196t-216 62h-334v-510zM338 819h330q127 0 188.5 64t61.5 182 q0 131 -65.5 186.5t-217.5 55.5h-297v-488z" />
<glyph unicode="C" horiz-adv-x="1231" d="M125 504v457q0 287 115.5 406.5t384.5 119.5q249 0 364 -103t115 -335h-180q0 155 -69 217.5t-230 62.5q-178 0 -250 -77t-72 -279v-481q0 -138 31.5 -215t100 -109.5t190.5 -32.5q162 0 230.5 61t68.5 218h180q0 -233 -115 -335t-364 -102q-179 0 -286.5 49.5 t-160.5 165t-53 312.5z" />
<glyph unicode="D" horiz-adv-x="1270" d="M158 0v1464h442q110 0 191 -13.5t150 -48t112 -93.5t66.5 -150t23.5 -217v-420q0 -126 -23.5 -217t-66.5 -150t-112 -93.5t-150 -48t-191 -13.5h-442zM338 158h258q97 0 162 16t113 55.5t70 109.5t22 175v440q0 90 -16.5 153.5t-45 102.5t-76.5 60.5t-100.5 29 t-128.5 7.5h-258v-1149z" />
<glyph unicode="E" horiz-adv-x="1119" d="M158 0v1464h833v-157h-653v-488h571v-151h-571v-510h653v-158h-833z" />
<glyph unicode="F" horiz-adv-x="1065" d="M158 0v1464h790v-157h-610v-488h532v-151h-532v-668h-180z" />
<glyph unicode="G" horiz-adv-x="1289" d="M135 502v461q0 284 116 404t384 120q251 0 365 -101.5t114 -334.5h-178q0 154 -69.5 216t-231.5 62q-119 0 -187 -32t-100.5 -109.5t-32.5 -214.5v-481q0 -141 32.5 -218t101 -108t192.5 -31q168 0 242.5 66.5t74.5 206.5v260h-301v151h480v-819h-95l-36 125 q-65 -76 -149.5 -112t-221.5 -36q-178 0 -285.5 49.5t-161 165t-53.5 310.5z" />
<glyph unicode="H" horiz-adv-x="1276" d="M158 0v1464h180v-645h598v645h178v-1464h-178v668h-598v-668h-180z" />
<glyph unicode="I" horiz-adv-x="500" d="M158 0v1464h180v-1464h-180z" />
<glyph unicode="J" horiz-adv-x="822" d="M90 0v158q88 -23 211 -23q98 0 138 37.5t40 138.5v996h-276v157h456v-1153q0 -87 -16 -146t-54.5 -103t-107 -64.5t-170.5 -20.5q-123 0 -221 23z" />
<glyph unicode="K" horiz-adv-x="1127" d="M158 0v1464h180v-649l510 649h217l-573 -712l585 -752h-217q-93 130 -168 231t-131.5 172.5t-88 110t-76.5 91t-58 67.5v-672h-180z" />
<glyph unicode="L" horiz-adv-x="955" d="M158 0v1464h180v-1306h522v-158h-702z" />
<glyph unicode="M" horiz-adv-x="1620" d="M158 0v1464h264l385 -1214h2l385 1214h264v-1464h-178v1239l-397 -1239h-150l-397 1239v-1239h-178z" />
<glyph unicode="N" horiz-adv-x="1297" d="M158 0v1464h229l567 -1204v1204h181v-1464h-230l-567 1204v-1204h-180z" />
<glyph unicode="O" horiz-adv-x="1264" d="M125 496v473q0 146 30 245t94 159.5t156.5 87t225.5 26.5t225.5 -26.5t156 -87.5t93 -160t29.5 -244v-473q0 -286 -119 -402.5t-385 -116.5q-133 0 -225.5 26.5t-156.5 87t-94 160t-30 245.5zM303 496q0 -143 36 -222.5t104.5 -109t187.5 -29.5q88 0 146 16t99.5 56.5 t59.5 110.5t18 178v473q0 108 -18 178t-59.5 110.5t-99.5 56t-146 15.5q-120 0 -188.5 -29.5t-104 -109t-35.5 -223.5v-471z" />
<glyph unicode="P" horiz-adv-x="1227" d="M158 0v1464h465q106 0 183 -12.5t139 -43t99.5 -83t57.5 -131t20 -188.5q0 -246 -117 -348.5t-378 -102.5h-289v-555h-180zM338 707h289q174 0 241.5 62.5t67.5 236.5q0 94 -16.5 153t-57 92t-95 44.5t-142.5 11.5h-287v-600z" />
<glyph unicode="Q" horiz-adv-x="1264" d="M125 496v473q0 146 30 245t94 159.5t156.5 87t225.5 26.5t225.5 -26.5t156 -87.5t93 -160t29.5 -244v-473q0 -180 -47.5 -291t-141 -163.5t-244.5 -61.5q3 -62 39 -86.5t109 -24.5h139l-45 -102h-139q-108 0 -177.5 51t-76.5 162q-223 15 -324.5 133t-101.5 383zM303 496 q0 -143 36 -222.5t104.5 -109t187.5 -29.5q88 0 146 16t99.5 56.5t59.5 110.5t18 178v473q0 108 -18 178t-59.5 110.5t-99.5 56t-146 15.5q-120 0 -188.5 -29.5t-104 -109t-35.5 -223.5v-471z" />
<glyph unicode="R" horiz-adv-x="1239" d="M158 0v1464h460q89 0 156.5 -8.5t126 -28.5t98 -54t68.5 -85t42 -120.5t13 -161.5q0 -181 -64 -283.5t-198 -140.5l285 -582h-197l-266 555h-344v-555h-180zM338 707h287q174 0 242.5 62.5t68.5 236.5q0 94 -17 153t-58 92t-96 44.5t-142 11.5h-285v-600z" />
<glyph unicode="S" horiz-adv-x="1215" d="M102 397h179q0 -150 75.5 -206t245.5 -56q181 0 252.5 59.5t71.5 200.5q0 55 -7.5 91.5t-28.5 69.5t-60.5 54.5t-102 39t-154.5 30.5q-245 34 -348.5 127.5t-103.5 279.5q0 195 118.5 297.5t356.5 102.5q249 0 364 -95.5t115 -318.5h-180q0 144 -67 200t-228 56 q-152 0 -225.5 -58t-73.5 -184q0 -85 27 -135t98 -83.5t203 -51.5q191 -25 296 -77.5t144 -132.5t39 -212q0 -219 -121.5 -318.5t-384.5 -99.5q-122 0 -211 20.5t-155.5 67.5t-100 130t-33.5 202z" />
<glyph unicode="T" horiz-adv-x="1037" d="M57 1307v157h918v-157h-369v-1307h-180v1307h-369z" />
<glyph unicode="U" horiz-adv-x="1299" d="M158 455v1009h180v-1013q0 -175 71.5 -246.5t237.5 -71.5q165 0 238 72t73 246v1013h179v-1009q0 -137 -31 -231t-95 -148.5t-152 -77.5t-212 -23t-211 23t-151.5 77.5t-95.5 148.5t-31 231z" />
<glyph unicode="V" horiz-adv-x="1205" d="M57 1464h189q263 -959 354 -1278h4q263 958 354 1278h187q-81 -280 -232 -792t-198 -672h-228z" />
<glyph unicode="W" horiz-adv-x="1846" d="M78 1464h188l256 -1265h4q42 195 136 618t141 647h233l277 -1265h4q37 185 124 610.5t132 654.5h188l-325 -1464h-240l-276 1272l-279 -1272h-238z" />
<glyph unicode="X" horiz-adv-x="1164" d="M57 0q353 625 422 750l-405 714h207l299 -565h2l297 565h206l-405 -714q81 -146 235 -417t189 -333h-205l-317 600h-2l-318 -600h-205z" />
<glyph unicode="Y" horiz-adv-x="1153" d="M57 1464h199l315 -714h7l315 714h199l-428 -895v-569h-179v569z" />
<glyph unicode="Z" horiz-adv-x="1131" d="M113 0v133l690 1174h-668v157h879v-137l-690 -1169h712v-158h-923z" />
<glyph unicode="[" horiz-adv-x="705" d="M180 -272v1828h398v-114h-254v-1600h254v-114h-398z" />
<glyph unicode="\" horiz-adv-x="750" d="M68 1554h149l461 -1644h-146z" />
<glyph unicode="]" horiz-adv-x="727" d="M145 -158h254v1600h-254v114h398v-1828h-398v114z" />
<glyph unicode="^" horiz-adv-x="1094" d="M125 791l340 673h166l336 -673h-164l-256 522h-4l-254 -522h-164z" />
<glyph unicode="_" horiz-adv-x="1053" d="M102 0v150h844v-150h-844z" />
<glyph unicode="`" horiz-adv-x="551" d="M125 1544h199l98 -272h-115z" />
<glyph unicode="a" horiz-adv-x="1133" d="M90 297q0 300 359 321l380 27v135q0 122 -53.5 170.5t-206.5 48.5q-142 0 -200 -46.5t-58 -161.5h-176q0 195 108.5 276.5t325.5 81.5q238 0 337.5 -84t99.5 -285v-780h-119l-39 111q-87 -69 -172.5 -102.5t-190.5 -33.5q-194 0 -294.5 82t-100.5 240zM268 307 q0 -182 230 -182q103 0 178 30t153 97v276l-362 -36q-102 -12 -150.5 -56.5t-48.5 -128.5z" />
<glyph unicode="b" horiz-adv-x="1205" d="M145 0v1509h177v-483q174 123 340 123q84 0 146 -13t117 -46.5t89 -90t53.5 -146t19.5 -212.5v-160q0 -122 -19.5 -211t-53.5 -145.5t-88.5 -90t-117 -46.5t-146.5 -13q-90 0 -184.5 36.5t-174.5 99.5l-39 -111h-119zM322 260q62 -63 150.5 -99t166.5 -36q99 0 156.5 31 t87.5 111t30 222v148q0 143 -30 222.5t-87 109.5t-157 30q-77 0 -164.5 -34.5t-152.5 -92.5v-612z" />
<glyph unicode="c" horiz-adv-x="1145" d="M113 502v123q0 124 19.5 213.5t55.5 149.5t95.5 95.5t132.5 50.5t172 15q228 0 334 -86t106 -289h-176q-1 85 -25 132.5t-80.5 70t-158.5 22.5q-87 0 -141.5 -15.5t-91.5 -58t-51.5 -114t-14.5 -186.5v-123q0 -116 15 -188t51.5 -114.5t91 -58.5t141.5 -16 q150 0 206 49.5t58 177.5h176q0 -205 -106 -291t-334 -86q-101 0 -174.5 15t-132.5 51t-94.5 96.5t-54.5 150.5t-19 214z" />
<glyph unicode="d" horiz-adv-x="1205" d="M113 481v160q0 123 19.5 212.5t54 146t89 90t117 46.5t146.5 13q169 0 340 -123v483h176v-1509h-117l-41 111q-80 -63 -174 -99.5t-184 -36.5q-105 0 -179 21.5t-132 76.5t-86.5 156t-28.5 252zM289 489q0 -107 15.5 -178t50.5 -112t84 -57.5t122 -16.5q78 0 167 36 t151 99v612q-65 58 -153 92.5t-165 34.5q-99 0 -155.5 -30t-86.5 -109.5t-30 -222.5v-148z" />
<glyph unicode="e" horiz-adv-x="1145" d="M113 502v123q0 153 28.5 255.5t90.5 161.5t146 83t206 24q119 0 199.5 -23.5t140 -82t87 -160.5t27.5 -256v-131h-749q0 -113 14.5 -183t51 -113t93 -59t148.5 -16q186 0 391 41v-148q-189 -41 -393 -41q-127 0 -212 22.5t-148 80.5t-92 161.5t-29 260.5zM289 629h573 q0 109 -11 175t-41.5 112.5t-84.5 64.5t-141 18q-171 0 -233 -79t-62 -291z" />
<glyph unicode="f" horiz-adv-x="717" d="M68 977v121l149 28v136q0 140 67 208t203 68q98 0 168 -25v-147q-74 18 -139 18q-66 0 -95.5 -31t-29.5 -93v-134h209v-149h-209v-977h-174v977h-149z" />
<glyph unicode="g" horiz-adv-x="1205" d="M113 508v133q0 123 19.5 212.5t54 146t89 90t117 46.5t146.5 13q90 0 184 -35.5t174 -97.5l41 110h117v-1128q0 -215 -102 -309.5t-339 -94.5q-195 0 -350 44v157q159 -51 348 -51q144 0 205.5 54t61.5 200v127q-169 -125 -340 -125q-84 0 -146.5 13t-117 46.5t-89 90 t-54 146t-19.5 212.5zM289 512q0 -143 30 -222.5t86.5 -109.5t155.5 -30q78 0 165.5 34t152.5 92v592q-62 62 -151 96.5t-167 34.5q-73 0 -122 -16.5t-84 -57.5t-50.5 -111t-15.5 -177v-125z" />
<glyph unicode="h" horiz-adv-x="1215" d="M145 0v1509h177v-487q94 65 178 96t178 31q198 0 281 -90.5t83 -308.5v-750h-174v750q0 145 -54.5 197t-182.5 52q-173 0 -309 -112v-887h-177z" />
<glyph unicode="i" horiz-adv-x="473" d="M141 1325v184h185v-184h-185zM145 0v1126h177v-1126h-177z" />
<glyph unicode="j" horiz-adv-x="473" d="M-109 -233q78 -21 136 -21q65 0 91.5 33t26.5 102v1245h177v-1245q0 -148 -60.5 -217.5t-200.5 -69.5q-99 0 -170 23v150zM141 1325v184h185v-184h-185z" />
<glyph unicode="k" horiz-adv-x="1041" d="M145 0v1509h177v-858h4l424 475h217l-490 -532q39 -49 263.5 -297t263.5 -297h-224l-454 532h-4v-532h-177z" />
<glyph unicode="l" horiz-adv-x="473" d="M145 0v1509h177v-1509h-177z" />
<glyph unicode="m" horiz-adv-x="1774" d="M145 0v1126h119l39 -110q93 67 176.5 100t175.5 33q193 0 287 -135q188 135 363 135q97 0 160 -21.5t97 -69.5t47 -112t13 -162v-784h-176v784q0 123 -41.5 169t-155.5 46q-62 0 -137 -29.5t-141 -82.5v-887h-176v784q0 124 -40.5 169.5t-152.5 45.5q-66 0 -140 -29 t-140 -83v-887h-177z" />
<glyph unicode="n" d="M145 0v1126h119l39 -110q93 68 179 100.5t194 32.5q198 0 282 -88.5t84 -310.5v-750h-174v750q0 145 -54.5 197t-182.5 52q-173 0 -309 -112v-887h-177z" />
<glyph unicode="o" horiz-adv-x="1155" d="M102 502v123q0 152 27 253t87 161t145 85t212 25q128 0 214.5 -25t147.5 -85t88.5 -161t27.5 -253v-123q0 -122 -18 -211t-54 -150t-94.5 -97.5t-133.5 -52.5t-178 -16q-128 0 -213.5 25t-145 86t-86 162.5t-26.5 253.5zM276 502q0 -153 28 -233.5t89.5 -112t179.5 -31.5 q119 0 181.5 31.5t91 112t28.5 233.5v123q0 152 -28.5 232t-91 111t-181.5 31q-88 0 -142.5 -16t-90.5 -58.5t-50 -113.5t-14 -186v-123z" />
<glyph unicode="p" horiz-adv-x="1205" d="M145 -383v1509h119l39 -110q80 61 174.5 97t184.5 36q84 0 146 -13t117 -46.5t89 -90t53.5 -146t19.5 -212.5v-160q0 -122 -19.5 -211t-53.5 -145.5t-88.5 -90t-117 -46.5t-146.5 -13q-166 0 -340 123v-481h-177zM322 252q66 -57 153.5 -92t163.5 -35q99 0 156.5 30.5 t87.5 110.5t30 223v148q0 141 -30 220.5t-87.5 110.5t-156.5 31q-78 0 -166.5 -34.5t-150.5 -96.5v-616z" />
<glyph unicode="q" horiz-adv-x="1205" d="M113 481v160q0 123 19.5 212.5t53.5 146t89 90.5t117 46.5t145 12.5q184 0 360 -133l41 110h117v-1509h-176v481q-171 -123 -342 -123q-105 0 -178 21.5t-131 76t-86.5 156t-28.5 252.5zM289 489q0 -143 30 -223t87 -110.5t155 -30.5q77 0 164.5 35t153.5 92v616 q-63 62 -151.5 96.5t-166.5 34.5q-73 0 -122 -16.5t-84 -57.5t-50.5 -111t-15.5 -177v-148z" />
<glyph unicode="r" horiz-adv-x="719" d="M145 0v1126h119l39 -110q152 133 332 133v-162q-102 0 -174.5 -28t-138.5 -89v-870h-177z" />
<glyph unicode="s" horiz-adv-x="1115" d="M102 330h174q0 -112 58.5 -158.5t214.5 -46.5q91 0 149 12t87 38.5t39 58t10 79.5q0 93 -61 133.5t-236 55.5q-230 20 -323 91.5t-93 225.5q0 330 430 330q229 0 330.5 -81.5t101.5 -272.5h-176q0 105 -56 154.5t-200 49.5q-128 0 -191 -42t-63 -138q0 -93 59.5 -134.5 t208.5 -53.5q135 -12 219.5 -33t135.5 -59.5t70.5 -91.5t19.5 -134q0 -43 -4 -76t-15.5 -69.5t-32 -63.5t-55 -52t-82.5 -40.5t-117 -25t-155 -9.5q-130 0 -218.5 23.5t-138 71t-70 109.5t-20.5 149z" />
<glyph unicode="t" horiz-adv-x="750" d="M57 977v123l146 26v275l176 29v-304h254v-149h-254v-713q0 -69 29 -103t96 -34q57 0 151 23v-150q-80 -25 -182 -25q-140 0 -205 70.5t-65 220.5v711h-146z" />
<glyph unicode="u" d="M145 375v751h177v-751q0 -75 13.5 -124t44.5 -76.5t73 -38.5t106 -11q169 0 309 115v886h174v-1126h-116l-41 111q-92 -70 -178 -102t-193 -32q-198 0 -283.5 88.5t-85.5 309.5z" />
<glyph unicode="v" horiz-adv-x="1112" d="M57 1126h191l303 -938h6l305 938h191l-400 -1126h-196z" />
<glyph unicode="w" horiz-adv-x="1649" d="M68 1126h184l217 -942h2l244 942h213l246 -942l219 942h184q-49 -188 -146.5 -562.5t-146.5 -563.5h-215l-246 952l-252 -952h-213z" />
<glyph unicode="x" horiz-adv-x="1110" d="M57 0l396 580l-371 546h207l262 -409l266 409h209l-373 -546l398 -580h-209l-287 442h-4l-287 -442h-207z" />
<glyph unicode="y" horiz-adv-x="1119" d="M57 1126h191l309 -909h4l309 909h189l-465 -1280q-52 -144 -130.5 -198t-230.5 -54q-69 0 -124 21v147q55 -18 124 -18q81 0 123.5 33t77.5 127l37 96z" />
<glyph unicode="z" horiz-adv-x="1100" d="M102 0v121l625 856h-602v149h827v-122l-628 -854h659v-150h-881z" />
<glyph unicode="{" horiz-adv-x="891" d="M113 584v114h139q57 0 81.5 24t24.5 83v526q0 129 62 177t205 48h127v-114h-127q-64 0 -93.5 -31t-29.5 -96v-416q0 -63 -2.5 -96t-13 -68t-33.5 -56t-62 -38q60 -26 85.5 -72t25.5 -120v-480q0 -66 29.5 -96.5t93.5 -30.5h127v-114h-127q-147 0 -207 46.5t-60 178.5v524 q0 59 -24.5 83t-81.5 24h-139z" />
<glyph unicode="|" horiz-adv-x="500" d="M180 -270v1824h135v-1824h-135z" />
<glyph unicode="}" horiz-adv-x="891" d="M125 -158h127q64 0 93.5 30.5t29.5 96.5v480q0 73 25 120t85 72q-31 13 -52 31t-32.5 37t-17 51.5t-7 60t-1.5 78.5v416q0 65 -29.5 96t-93.5 31h-127v114h127q142 0 204 -56.5t62 -190.5v-504q0 -59 24.5 -83t82.5 -24h139v-114h-139q-58 0 -82.5 -24t-24.5 -83v-502 q0 -133 -63 -190t-203 -57h-127v114z" />
<glyph unicode="~" horiz-adv-x="1039" d="M90 1196q0 159 61 225t181 66q50 0 95.5 -18t78 -43.5t62 -51t61.5 -43.5t63 -18q59 0 86 34t27 117h139q0 -160 -60.5 -225t-181.5 -65q-50 0 -95.5 18t-78 43.5t-62 51t-62 43.5t-64.5 18q-58 0 -84.5 -34.5t-26.5 -117.5h-139z" />
<glyph unicode="&#xa1;" horiz-adv-x="547" d="M145 -338l64 1020h125l63 -1020h-252zM162 922v204h219v-204h-219z" />
<glyph unicode="&#xa2;" horiz-adv-x="1168" d="M125 672v121q0 277 94 393.5t303 128.5v194h154v-194q187 -12 274.5 -99.5t87.5 -271.5h-176q-3 126 -58.5 175.5t-203.5 49.5q-117 0 -179.5 -30.5t-92 -111.5t-29.5 -234v-121q0 -154 29.5 -235.5t92 -112.5t179.5 -31q148 0 203.5 50t58.5 177h176q0 -186 -87 -273.5 t-275 -101.5v-190h-154v190q-141 9 -225 59.5t-128 164t-44 303.5z" />
<glyph unicode="&#xa3;" horiz-adv-x="1270" d="M113 0v158q125 0 183 66.5t58 205.5q0 60 -45 209h-196v127h155q-4 13 -15.5 50.5t-16 54t-13 49.5t-12.5 55.5t-7 52.5t-3 59q0 139 54.5 230t148 130.5t225.5 39.5q231 0 330.5 -91t99.5 -306h-180q0 132 -57.5 185.5t-192.5 53.5q-132 0 -190 -57t-58 -185 q0 -54 10 -114.5t20.5 -99.5t30.5 -107h281v-127h-254q35 -123 35 -197q0 -203 -119 -284h399q101 0 145 42.5t44 147.5h180q0 -183 -77 -265.5t-265 -82.5h-698z" />
<glyph unicode="&#xa4;" horiz-adv-x="1401" d="M113 152l166 192q-54 123 -54 330v119q0 207 51 321l-163 195l106 90l143 -168q110 86 336 86q229 0 336 -86l144 168l106 -90l-166 -195q53 -118 53 -321v-119q0 -209 -53 -330l166 -192l-106 -91l-146 170q-114 -86 -334 -86q-219 0 -333 86l-146 -170zM401 674 q0 -154 28 -235t89.5 -112.5t179.5 -31.5t179.5 31.5t89.5 112.5t28 235v119q0 116 -14 187t-50 114t-90 59t-143 16t-143 -16t-90 -59t-50 -114t-14 -187v-119z" />
<glyph unicode="&#xa5;" horiz-adv-x="1217" d="M88 1464h201l315 -714h4l316 714h200l-428 -893v-39h312v-104h-312v-158h312v-104h-312v-166h-180v166h-311v104h311v158h-311v104h311v39z" />
<glyph unicode="&#xa6;" horiz-adv-x="500" d="M180 -270v766h135v-766h-135zM180 788v766h135v-766h-135z" />
<glyph unicode="&#xa7;" horiz-adv-x="1274" d="M135 586q0 168 156 266q-133 82 -133 272q0 171 120 267t349 96q254 0 365.5 -92t111.5 -303h-178q0 137 -69 192t-228 55q-152 0 -221.5 -53.5t-69.5 -161.5q0 -106 67.5 -154.5t249.5 -70.5q189 -22 293.5 -68t145.5 -119t41 -194q0 -85 -42 -153.5t-116 -114.5 q135 -77 135 -270q0 -170 -119.5 -266.5t-347.5 -96.5q-254 0 -366.5 92t-112.5 301h178q0 -136 69.5 -192t227.5 -56q153 0 222 54.5t69 163.5q0 106 -68 154.5t-250 70.5q-188 22 -292.5 68t-145.5 119t-41 194zM313 596q0 -80 28.5 -126.5t105.5 -78t221 -49.5 q70 -8 174 -33q116 55 116 199q0 80 -28 127t-105 78.5t-221 48.5q-103 12 -176 33q-115 -56 -115 -199z" />
<glyph unicode="&#xa8;" horiz-adv-x="807" d="M145 1288v176h179v-176h-179zM477 1288v176h176v-176h-176z" />
<glyph unicode="&#xa9;" horiz-adv-x="1747" d="M135 567v330q0 295 183.5 457t553.5 162q367 0 551.5 -162.5t184.5 -456.5v-330q0 -294 -184.5 -456t-551.5 -162q-364 0 -550.5 162.5t-186.5 455.5zM272 578q0 -253 149 -377.5t451 -124.5t450 124t148 378v309q0 252 -148 377t-450 125t-451 -125t-149 -377v-309z M510 664v131q0 188 83.5 267t266.5 79q184 0 261 -71t77 -218h-133q0 90 -44.5 127t-160.5 37q-120 0 -167.5 -46t-47.5 -175v-131q0 -124 47 -173t168 -49q116 0 160.5 37.5t44.5 126.5h133q0 -145 -75 -216t-263 -71q-179 0 -264.5 79t-85.5 266z" />
<glyph unicode="&#xaa;" horiz-adv-x="969" d="M102 805q0 117 71 184t214 76l307 20v107q0 96 -48 132t-165 36q-109 0 -154.5 -38t-45.5 -124h-146q0 157 86 223t260 66q201 0 280 -68t79 -227v-627h-99l-34 88q-118 -106 -289 -106q-316 0 -316 258zM250 811q0 -139 176 -139q82 0 144.5 24.5t123.5 77.5v213 l-293 -29q-80 -9 -115.5 -45.5t-35.5 -101.5z" />
<glyph unicode="&#xab;" horiz-adv-x="1117" d="M135 563l311 406h162l-313 -406l313 -405h-162zM504 563l311 406h162l-313 -406l313 -405h-162z" />
<glyph unicode="&#xac;" horiz-adv-x="1170" d="M125 760v139h915v-582h-139v443h-776z" />
<glyph unicode="&#xad;" horiz-adv-x="793" d="M113 563v150h563v-150h-563z" />
<glyph unicode="&#xae;" horiz-adv-x="1747" d="M135 567v330q0 295 183.5 457t553.5 162q367 0 551.5 -162.5t184.5 -456.5v-330q0 -294 -184.5 -456t-551.5 -162q-372 0 -554.5 161.5t-182.5 456.5zM272 578q0 -253 149 -377.5t451 -124.5t450 124t148 378v309q0 252 -148 377t-450 125t-451 -125t-149 -377v-309z M569 330v805h357q151 0 216.5 -58.5t65.5 -189.5q0 -176 -139 -240l158 -317h-148l-143 293h-229v-293h-138zM707 743h221q139 0 139 140q0 66 -31 98.5t-100 32.5h-229v-271z" />
<glyph unicode="&#xaf;" horiz-adv-x="838" d="M154 1325v129h526v-129h-526z" />
<glyph unicode="&#xb0;" horiz-adv-x="928" d="M113 1130q0 103 21 172t66 110t108 58t155 17q181 0 264.5 -78.5t83.5 -278.5q0 -104 -21.5 -174t-66.5 -110.5t-107.5 -57t-152.5 -16.5q-92 0 -155 16.5t-108 57t-66 110t-21 174.5zM256 1137q0 -97 22 -149t64.5 -70.5t120.5 -18.5q111 0 156 46t45 179v6 q0 134 -45.5 183t-155.5 49q-113 0 -160 -47t-47 -178z" />
<glyph unicode="&#xb1;" horiz-adv-x="1170" d="M125 0v139h915v-139h-915zM125 705v141h387v389h139v-389h389v-141h-389v-390h-139v390h-387z" />
<glyph unicode="&#xb2;" horiz-adv-x="752" d="M158 877v61q0 52 19 94t49.5 70.5t67.5 53t74 46t67.5 43.5t49.5 52t19 65q0 62 -27 88.5t-94 26.5q-61 0 -92 -27.5t-31 -97.5h-102q0 108 53.5 161.5t171.5 53.5q123 0 173 -50t50 -151q0 -65 -34.5 -115t-84.5 -81t-100 -58.5t-86.5 -63.5t-38.5 -81h350v-90h-454z " />
<glyph unicode="&#xb3;" horiz-adv-x="748" d="M135 1083h103q0 -69 29 -99t100 -30q74 0 105.5 27.5t31.5 93.5q0 50 -26 76.5t-75 26.5h-94v86h92q41 0 63.5 28t22.5 70q0 62 -29 89.5t-96 27.5q-66 0 -94 -31t-28 -100h-103q0 219 225 219q118 0 172 -50.5t54 -154.5q0 -89 -78 -137q98 -37 98 -152q0 -105 -57 -155 t-184 -50q-123 0 -177.5 51.5t-54.5 163.5z" />
<glyph unicode="&#xb4;" horiz-adv-x="551" d="M131 1272l96 272h201l-182 -272h-115z" />
<glyph unicode="&#xb5;" d="M145 -383v1509h177v-886q137 -113 309 -113q64 0 106 11t73 38.5t44.5 76.5t13.5 124v749h174v-749q0 -218 -83 -309t-281 -91q-94 0 -178 31t-178 96v-487h-177z" />
<glyph unicode="&#xb6;" horiz-adv-x="1598" d="M119 909q0 156 36 264.5t109.5 172t174.5 91t241 27.5h704v-1855h-149v1720h-170v-1720h-150v764h-239q-285 0 -421 128.5t-136 407.5z" />
<glyph unicode="&#xb7;" horiz-adv-x="519" d="M145 633v219h222v-219h-222z" />
<glyph unicode="&#xb8;" horiz-adv-x="543" d="M90 -338h139q105 0 105 76q0 37 -24 56.5t-81 19.5h-53l55 186h95l-29 -106q160 -15 160 -156q0 -92 -58 -132t-182 -40h-127v96z" />
<glyph unicode="&#xb9;" horiz-adv-x="570" d="M158 1458v60l166 36h61v-677h-100v581h-127z" />
<glyph unicode="&#xba;" horiz-adv-x="1004" d="M121 969v96q0 122 22 203.5t70.5 130t117 68.5t169.5 20q102 0 171.5 -20t117.5 -68.5t70 -130t22 -203.5v-96q0 -122 -21.5 -203t-69.5 -129.5t-117.5 -69t-172.5 -20.5q-205 0 -292 92t-87 330zM262 969q0 -93 11 -150t40 -91.5t72.5 -47t114.5 -12.5q95 0 144.5 24.5 t72 89t22.5 187.5v96q0 123 -22.5 187.5t-72.5 90t-144 25.5q-139 0 -188.5 -61t-49.5 -242v-96z" />
<glyph unicode="&#xbb;" horiz-adv-x="1117" d="M135 158l314 405l-314 406h162l311 -406l-311 -405h-162zM504 158l313 405l-313 406h164l309 -406l-309 -405h-164z" />
<glyph unicode="&#xbc;" horiz-adv-x="1454" d="M158 1368v59l166 37h61v-678h-100v582h-127zM215 0l971 1464h112l-972 -1464h-111zM770 154v71l307 451h119v-436h82v-86h-82v-154h-100v154h-326zM881 240h215v319z" />
<glyph unicode="&#xbd;" horiz-adv-x="1450" d="M154 0l970 1464h113l-971 -1464h-112zM166 1368v59l168 37h61v-678h-102v582h-127zM834 0v61q0 52 19 94t49.5 70.5t67.5 53t74 46.5t67.5 44t49.5 52t19 66q0 61 -27 87t-94 26q-61 0 -92 -27.5t-31 -97.5h-102q0 108 53.5 161.5t171.5 53.5q123 0 173 -50t50 -151 q0 -65 -34.5 -115t-84.5 -81t-100 -58.5t-86.5 -63.5t-38.5 -81h350v-90h-454z" />
<glyph unicode="&#xbe;" horiz-adv-x="1465" d="M158 993h102q0 -69 29 -99t100 -30q74 0 105.5 27.5t31.5 93.5q0 102 -100 102h-94v87h92q41 0 63.5 28t22.5 70q0 62 -29 89.5t-96 27.5q-66 0 -94.5 -31.5t-28.5 -100.5h-102q0 220 225 220q118 0 171.5 -51t53.5 -154q0 -89 -78 -137q99 -37 99 -152 q0 -104 -57.5 -154.5t-184.5 -50.5q-123 0 -177 51.5t-54 163.5zM223 0l971 1464h113l-971 -1464h-113zM780 154v71l305 451h119v-436h82v-86h-82v-154h-100v154h-324zM891 240h213v319z" />
<glyph unicode="&#xbf;" horiz-adv-x="1170" d="M113 72q0 217 103 325t308 123l15 164h112q24 -238 29 -303q-214 0 -300.5 -64.5t-86.5 -244.5q0 -149 71 -214t230 -65q144 0 211 62t67 192h181q0 -407 -457 -407q-254 0 -368.5 104.5t-114.5 327.5zM487 922v204h218v-204h-218z" />
<glyph unicode="&#xc0;" horiz-adv-x="1182" d="M45 0l430 1464h227l431 -1464h-187l-100 356h-512l-101 -356h-188zM344 1882h199l98 -272h-115zM375 510h430l-213 776h-4z" />
<glyph unicode="&#xc1;" horiz-adv-x="1182" d="M45 0l430 1464h227l431 -1464h-187l-100 356h-512l-101 -356h-188zM375 510h430l-213 776h-4zM541 1610l96 272h201l-183 -272h-114z" />
<glyph unicode="&#xc2;" horiz-adv-x="1182" d="M45 0l430 1464h227l431 -1464h-187l-100 356h-512l-101 -356h-188zM346 1610l137 272h211l133 -272h-118l-121 162l-123 -162h-119zM375 510h430l-213 776h-4z" />
<glyph unicode="&#xc3;" horiz-adv-x="1182" d="M45 0l430 1464h227l431 -1464h-187l-100 356h-512l-101 -356h-188zM270 1628q0 120 45.5 171.5t135.5 51.5q43 0 82 -17t63 -38t55.5 -38t61.5 -17q46 0 64 25t18 71h112q0 -119 -45.5 -171t-134.5 -52q-43 0 -82 17t-62.5 37t-55 37t-62.5 17q-84 0 -84 -94h-111z M375 510h430l-213 776h-4z" />
<glyph unicode="&#xc4;" horiz-adv-x="1182" d="M45 0l430 1464h227l431 -1464h-187l-100 356h-512l-101 -356h-188zM334 1626v176h178v-176h-178zM375 510h430l-213 776h-4zM666 1626v176h176v-176h-176z" />
<glyph unicode="&#xc5;" horiz-adv-x="1182" d="M45 0l430 1464h227l431 -1464h-187l-100 356h-512l-101 -356h-188zM369 1786q0 94 58 142t163 48q103 0 161 -48.5t58 -141.5q0 -92 -58 -141.5t-161 -49.5q-104 0 -162.5 49t-58.5 142zM375 510h430l-213 776h-4zM483 1786q0 -96 107 -96q106 0 106 96q0 92 -106 92 q-107 0 -107 -92z" />
<glyph unicode="&#xc6;" horiz-adv-x="1919" d="M45 0l825 1464h932v-157h-653v-488h571v-151h-571v-510h653v-158h-833v356h-537l-199 -356h-188zM518 510h451v797h-4z" />
<glyph unicode="&#xc7;" horiz-adv-x="1231" d="M125 504v457q0 287 115.5 406.5t384.5 119.5q249 0 364 -103t115 -335h-180q0 155 -69 217.5t-230 62.5q-178 0 -250 -77t-72 -279v-481q0 -138 31.5 -215t100 -109.5t190.5 -32.5q162 0 230.5 61t68.5 218h180q0 -225 -106.5 -326.5t-338.5 -107.5l-22 -86 q160 -15 160 -156q0 -92 -58 -132t-182 -40h-127v96h139q105 0 105 76q0 37 -24 56.5t-81 19.5h-53l49 166q-158 7 -252.5 59.5t-141 165t-46.5 299.5z" />
<glyph unicode="&#xc8;" horiz-adv-x="1119" d="M158 0v1464h833v-157h-653v-488h571v-151h-571v-510h653v-158h-833zM367 1882h198l99 -272h-115z" />
<glyph unicode="&#xc9;" horiz-adv-x="1119" d="M158 0v1464h833v-157h-653v-488h571v-151h-571v-510h653v-158h-833zM530 1610l97 272h200l-182 -272h-115z" />
<glyph unicode="&#xca;" horiz-adv-x="1119" d="M158 0v1464h833v-157h-653v-488h571v-151h-571v-510h653v-158h-833zM354 1610l138 272h210l134 -272h-119l-121 162l-123 -162h-119z" />
<glyph unicode="&#xcb;" horiz-adv-x="1119" d="M158 0v1464h833v-157h-653v-488h571v-151h-571v-510h653v-158h-833zM346 1626v176h178v-176h-178zM678 1626v176h176v-176h-176z" />
<glyph unicode="&#xcc;" horiz-adv-x="500" d="M8 1882h199l98 -272h-115zM158 0v1464h180v-1464h-180z" />
<glyph unicode="&#xcd;" horiz-adv-x="500" d="M158 0v1464h180v-1464h-180zM197 1610l96 272h201l-183 -272h-114z" />
<glyph unicode="&#xce;" horiz-adv-x="500" d="M6 1610l137 272h211l133 -272h-118l-121 162l-123 -162h-119zM158 0v1464h180v-1464h-180z" />
<glyph unicode="&#xcf;" horiz-adv-x="500" d="M-8 1626v176h178v-176h-178zM158 0v1464h180v-1464h-180zM324 1626v176h176v-176h-176z" />
<glyph unicode="&#xd0;" horiz-adv-x="1270" d="M27 678v133h131v653h442q110 0 191 -13.5t150 -48t112 -93.5t66.5 -150t23.5 -217v-420q0 -126 -23.5 -217t-66.5 -150t-112 -93.5t-150 -48t-191 -13.5h-442v678h-131zM338 158h258q97 0 162 16t113 55.5t70 109.5t22 175v440q0 90 -16.5 153.5t-45 102.5t-76.5 60.5 t-100.5 29t-128.5 7.5h-258v-496h270v-133h-270v-520z" />
<glyph unicode="&#xd1;" horiz-adv-x="1297" d="M158 0v1464h229l567 -1204v1204h181v-1464h-230l-567 1204v-1204h-180zM338 1628q0 120 45 171.5t135 51.5q43 0 82 -17t63 -38t55.5 -38t61.5 -17q46 0 64 25t18 71h113q0 -119 -45.5 -171t-134.5 -52q-43 0 -82 17t-63 37t-55.5 37t-62.5 17q-83 0 -83 -94h-111z" />
<glyph unicode="&#xd2;" horiz-adv-x="1264" d="M125 496v473q0 146 30 245t94 159.5t156.5 87t225.5 26.5t225.5 -26.5t156 -87.5t93 -160t29.5 -244v-473q0 -286 -119 -402.5t-385 -116.5q-133 0 -225.5 26.5t-156.5 87t-94 160t-30 245.5zM303 496q0 -143 36 -222.5t104.5 -109t187.5 -29.5q88 0 146 16t99.5 56.5 t59.5 110.5t18 178v473q0 108 -18 178t-59.5 110.5t-99.5 56t-146 15.5q-120 0 -188.5 -29.5t-104 -109t-35.5 -223.5v-471zM434 1882h199l98 -272h-115z" />
<glyph unicode="&#xd3;" horiz-adv-x="1264" d="M125 496v473q0 146 30 245t94 159.5t156.5 87t225.5 26.5t225.5 -26.5t156 -87.5t93 -160t29.5 -244v-473q0 -286 -119 -402.5t-385 -116.5q-133 0 -225.5 26.5t-156.5 87t-94 160t-30 245.5zM303 496q0 -143 36 -222.5t104.5 -109t187.5 -29.5q88 0 146 16t99.5 56.5 t59.5 110.5t18 178v473q0 108 -18 178t-59.5 110.5t-99.5 56t-146 15.5q-120 0 -188.5 -29.5t-104 -109t-35.5 -223.5v-471zM596 1610l96 272h201l-182 -272h-115z" />
<glyph unicode="&#xd4;" horiz-adv-x="1264" d="M125 496v473q0 146 30 245t94 159.5t156.5 87t225.5 26.5t225.5 -26.5t156 -87.5t93 -160t29.5 -244v-473q0 -286 -119 -402.5t-385 -116.5q-133 0 -225.5 26.5t-156.5 87t-94 160t-30 245.5zM303 496q0 -143 36 -222.5t104.5 -109t187.5 -29.5q88 0 146 16t99.5 56.5 t59.5 110.5t18 178v473q0 108 -18 178t-59.5 110.5t-99.5 56t-146 15.5q-120 0 -188.5 -29.5t-104 -109t-35.5 -223.5v-471zM391 1610l137 272h211l133 -272h-118l-121 162l-123 -162h-119z" />
<glyph unicode="&#xd5;" horiz-adv-x="1264" d="M125 496v473q0 146 30 245t94 159.5t156.5 87t225.5 26.5t225.5 -26.5t156 -87.5t93 -160t29.5 -244v-473q0 -286 -119 -402.5t-385 -116.5q-133 0 -225.5 26.5t-156.5 87t-94 160t-30 245.5zM303 496q0 -143 36 -222.5t104.5 -109t187.5 -29.5q88 0 146 16t99.5 56.5 t59.5 110.5t18 178v473q0 108 -18 178t-59.5 110.5t-99.5 56t-146 15.5q-120 0 -188.5 -29.5t-104 -109t-35.5 -223.5v-471zM317 1628q0 120 45.5 171.5t135.5 51.5q43 0 82 -17t63 -38t55.5 -38t61.5 -17q46 0 64 25t18 71h112q0 -119 -45.5 -171t-134.5 -52q-43 0 -82 17 t-62.5 37t-55 37t-62.5 17q-84 0 -84 -94h-111z" />
<glyph unicode="&#xd6;" horiz-adv-x="1264" d="M125 496v473q0 146 30 245t94 159.5t156.5 87t225.5 26.5t225.5 -26.5t156 -87.5t93 -160t29.5 -244v-473q0 -286 -119 -402.5t-385 -116.5q-133 0 -225.5 26.5t-156.5 87t-94 160t-30 245.5zM303 496q0 -143 36 -222.5t104.5 -109t187.5 -29.5q88 0 146 16t99.5 56.5 t59.5 110.5t18 178v473q0 108 -18 178t-59.5 110.5t-99.5 56t-146 15.5q-120 0 -188.5 -29.5t-104 -109t-35.5 -223.5v-471zM377 1626v176h178v-176h-178zM709 1626v176h176v-176h-176z" />
<glyph unicode="&#xd7;" horiz-adv-x="1063" d="M125 311l305 307l-305 306l96 98l307 -305l308 305l96 -98l-305 -306l309 -307l-100 -100l-308 309l-307 -309z" />
<glyph unicode="&#xd8;" horiz-adv-x="1264" d="M90 -45l113 188q-78 121 -78 353v473q0 146 30 245t94 159.5t156.5 87t225.5 26.5q209 0 323 -70l56 92h147l-106 -180q84 -121 84 -360v-473q0 -286 -119 -402.5t-385 -116.5q-219 0 -338 74l-55 -96h-148zM303 494q0 -79 14 -154l551 928q-74 63 -237 63 q-120 0 -188.5 -30t-104 -110t-35.5 -224v-473zM383 203q69 -72 248 -72q88 0 146 16t99.5 57t59.5 111.5t18 178.5v475q0 96 -16 168z" />
<glyph unicode="&#xd9;" horiz-adv-x="1299" d="M158 455v1009h180v-1013q0 -175 71.5 -246.5t237.5 -71.5q165 0 238 72t73 246v1013h179v-1009q0 -137 -31 -231t-95 -148.5t-152 -77.5t-212 -23t-211 23t-151.5 77.5t-95.5 148.5t-31 231zM422 1882h199l98 -272h-115z" />
<glyph unicode="&#xda;" horiz-adv-x="1299" d="M158 455v1009h180v-1013q0 -175 71.5 -246.5t237.5 -71.5q165 0 238 72t73 246v1013h179v-1009q0 -137 -31 -231t-95 -148.5t-152 -77.5t-212 -23t-211 23t-151.5 77.5t-95.5 148.5t-31 231zM582 1610l96 272h201l-183 -272h-114z" />
<glyph unicode="&#xdb;" horiz-adv-x="1299" d="M158 455v1009h180v-1013q0 -175 71.5 -246.5t237.5 -71.5q165 0 238 72t73 246v1013h179v-1009q0 -137 -31 -231t-95 -148.5t-152 -77.5t-212 -23t-211 23t-151.5 77.5t-95.5 148.5t-31 231zM406 1610l137 272h211l133 -272h-119l-121 162l-123 -162h-118z" />
<glyph unicode="&#xdc;" horiz-adv-x="1299" d="M158 455v1009h180v-1013q0 -175 71.5 -246.5t237.5 -71.5q165 0 238 72t73 246v1013h179v-1009q0 -137 -31 -231t-95 -148.5t-152 -77.5t-212 -23t-211 23t-151.5 77.5t-95.5 148.5t-31 231zM391 1626v176h178v-176h-178zM723 1626v176h176v-176h-176z" />
<glyph unicode="&#xdd;" horiz-adv-x="1153" d="M57 1464h199l315 -714h7l315 714h199l-428 -895v-569h-179v569zM537 1610l96 272h201l-183 -272h-114z" />
<glyph unicode="&#xde;" horiz-adv-x="1227" d="M158 0v1464h180v-264h285q106 0 183 -12.5t139 -43.5t99.5 -83t57.5 -131t20 -189q0 -140 -29 -230t-94 -140.5t-153 -70t-223 -19.5h-285v-281h-180zM338 440h287q88 0 142.5 11.5t95 44.5t57 92t16.5 153t-16.5 153t-57 92t-95 44.5t-142.5 11.5h-287v-602z" />
<glyph unicode="&#xdf;" horiz-adv-x="1246" d="M145 0v1143q0 197 105.5 293t327.5 96t326 -95t104 -286q0 -125 -54 -205t-153 -115q167 -25 253.5 -116.5t86.5 -286.5v-16q0 -100 -23.5 -176t-64.5 -125t-102.5 -79.5t-130.5 -42.5t-156 -12q-120 0 -232 23v154q105 -27 225 -27q158 0 233 64t75 221v16 q0 94 -22 156.5t-67 96t-100.5 47t-134.5 13.5h-129v150h68q141 0 196 64t55 186q0 125 -61.5 183t-191.5 58q-141 0 -198.5 -60.5t-57.5 -178.5v-1143h-177z" />
<glyph unicode="&#xe0;" horiz-adv-x="1133" d="M90 297q0 300 359 321l380 27v135q0 122 -53.5 170.5t-206.5 48.5q-142 0 -200 -46.5t-58 -161.5h-176q0 195 108.5 276.5t325.5 81.5q238 0 337.5 -84t99.5 -285v-780h-119l-39 111q-87 -69 -172.5 -102.5t-190.5 -33.5q-194 0 -294.5 82t-100.5 240zM268 307 q0 -182 230 -182q103 0 178 30t153 97v276l-362 -36q-102 -12 -150.5 -56.5t-48.5 -128.5zM367 1544h198l99 -272h-115z" />
<glyph unicode="&#xe1;" horiz-adv-x="1133" d="M90 297q0 300 359 321l380 27v135q0 122 -53.5 170.5t-206.5 48.5q-142 0 -200 -46.5t-58 -161.5h-176q0 195 108.5 276.5t325.5 81.5q238 0 337.5 -84t99.5 -285v-780h-119l-39 111q-87 -69 -172.5 -102.5t-190.5 -33.5q-194 0 -294.5 82t-100.5 240zM268 307 q0 -182 230 -182q103 0 178 30t153 97v276l-362 -36q-102 -12 -150.5 -56.5t-48.5 -128.5zM522 1272l96 272h201l-182 -272h-115z" />
<glyph unicode="&#xe2;" horiz-adv-x="1133" d="M90 297q0 300 359 321l380 27v135q0 122 -53.5 170.5t-206.5 48.5q-142 0 -200 -46.5t-58 -161.5h-176q0 195 108.5 276.5t325.5 81.5q238 0 337.5 -84t99.5 -285v-780h-119l-39 111q-87 -69 -172.5 -102.5t-190.5 -33.5q-194 0 -294.5 82t-100.5 240zM268 307 q0 -182 230 -182q103 0 178 30t153 97v276l-362 -36q-102 -12 -150.5 -56.5t-48.5 -128.5zM322 1272l137 272h211l133 -272h-119l-121 162l-123 -162h-118z" />
<glyph unicode="&#xe3;" horiz-adv-x="1133" d="M90 297q0 300 359 321l380 27v135q0 122 -53.5 170.5t-206.5 48.5q-142 0 -200 -46.5t-58 -161.5h-176q0 195 108.5 276.5t325.5 81.5q238 0 337.5 -84t99.5 -285v-780h-119l-39 111q-87 -69 -172.5 -102.5t-190.5 -33.5q-194 0 -294.5 82t-100.5 240zM246 1290 q0 120 45 171.5t135 51.5q43 0 82 -17t63 -38t55.5 -38t61.5 -17q46 0 64 25t18 71h113q0 -118 -46 -170.5t-135 -52.5q-43 0 -82 17t-62.5 37t-55 37t-62.5 17q-84 0 -84 -94h-110zM268 307q0 -182 230 -182q103 0 178 30t153 97v276l-362 -36q-102 -12 -150.5 -56.5 t-48.5 -128.5z" />
<glyph unicode="&#xe4;" horiz-adv-x="1133" d="M90 297q0 300 359 321l380 27v135q0 122 -53.5 170.5t-206.5 48.5q-142 0 -200 -46.5t-58 -161.5h-176q0 195 108.5 276.5t325.5 81.5q238 0 337.5 -84t99.5 -285v-780h-119l-39 111q-87 -69 -172.5 -102.5t-190.5 -33.5q-194 0 -294.5 82t-100.5 240zM268 307 q0 -182 230 -182q103 0 178 30t153 97v276l-362 -36q-102 -12 -150.5 -56.5t-48.5 -128.5zM307 1288v176h178v-176h-178zM639 1288v176h176v-176h-176z" />
<glyph unicode="&#xe5;" horiz-adv-x="1133" d="M90 297q0 300 359 321l380 27v135q0 122 -53.5 170.5t-206.5 48.5q-142 0 -200 -46.5t-58 -161.5h-176q0 195 108.5 276.5t325.5 81.5q238 0 337.5 -84t99.5 -285v-780h-119l-39 111q-87 -69 -172.5 -102.5t-190.5 -33.5q-194 0 -294.5 82t-100.5 240zM268 307 q0 -182 230 -182q103 0 178 30t153 97v276l-362 -36q-102 -12 -150.5 -56.5t-48.5 -128.5zM344 1448q0 94 58 142t163 48q103 0 161 -48.5t58 -141.5q0 -92 -58 -141.5t-161 -49.5q-104 0 -162.5 49t-58.5 142zM459 1448q0 -96 106 -96q107 0 107 96q0 92 -107 92 q-106 0 -106 -92z" />
<glyph unicode="&#xe6;" horiz-adv-x="1860" d="M90 301q0 162 102 245t281 83h356v151q0 122 -53.5 170.5t-206.5 48.5q-142 0 -200 -46.5t-58 -161.5h-176q0 195 108.5 276.5t325.5 81.5q150 0 238 -32.5t129 -102.5q53 72 141.5 103.5t222.5 31.5q119 0 200 -24t140.5 -83.5t87 -162t27.5 -256.5v-127h-749 q0 -114 13 -183t49.5 -112.5t93.5 -59.5t151 -16q186 0 391 41v-148q-189 -41 -393 -41q-155 0 -248.5 36.5t-144.5 127.5q-52 -91 -150.5 -127.5t-265.5 -36.5q-199 0 -305.5 81.5t-106.5 242.5zM268 311q0 -98 58 -142t182 -44q99 0 158.5 15.5t97.5 58.5t51.5 112 t13.5 185h-340q-221 0 -221 -185zM1006 629h573q0 90 -7 148.5t-24.5 104t-50 70t-79.5 36t-118 11.5q-118 0 -180 -33t-88 -111t-26 -226z" />
<glyph unicode="&#xe7;" horiz-adv-x="1145" d="M113 502v123q0 124 19.5 213.5t55.5 149.5t95.5 95.5t132.5 50.5t172 15q228 0 334 -86t106 -289h-176q-1 85 -25 132.5t-80.5 70t-158.5 22.5q-87 0 -141.5 -15.5t-91.5 -58t-51.5 -114t-14.5 -186.5v-123q0 -116 15 -188t51.5 -114.5t91 -58.5t141.5 -16 q150 0 206 49.5t58 177.5h176q0 -196 -97.5 -283t-305.5 -92l-23 -81q156 -10 156 -156q0 -90 -56 -131t-174 -41h-147v108h143q54 0 73 15.5t19 48.5q0 36 -18.5 50.5t-73.5 14.5h-59l53 172q-143 9 -229 59t-131 163t-45 303z" />
<glyph unicode="&#xe8;" horiz-adv-x="1145" d="M113 502v123q0 153 28.5 255.5t90.5 161.5t146 83t206 24q119 0 199.5 -23.5t140 -82t87 -160.5t27.5 -256v-131h-749q0 -113 14.5 -183t51 -113t93 -59t148.5 -16q186 0 391 41v-148q-189 -41 -393 -41q-127 0 -212 22.5t-148 80.5t-92 161.5t-29 260.5zM289 629h573 q0 109 -11 175t-41.5 112.5t-84.5 64.5t-141 18q-171 0 -233 -79t-62 -291zM358 1544h199l98 -272h-114z" />
<glyph unicode="&#xe9;" horiz-adv-x="1145" d="M113 502v123q0 153 28.5 255.5t90.5 161.5t146 83t206 24q119 0 199.5 -23.5t140 -82t87 -160.5t27.5 -256v-131h-749q0 -113 14.5 -183t51 -113t93 -59t148.5 -16q186 0 391 41v-148q-189 -41 -393 -41q-127 0 -212 22.5t-148 80.5t-92 161.5t-29 260.5zM289 629h573 q0 109 -11 175t-41.5 112.5t-84.5 64.5t-141 18q-171 0 -233 -79t-62 -291zM549 1272l96 272h201l-182 -272h-115z" />
<glyph unicode="&#xea;" horiz-adv-x="1145" d="M113 502v123q0 153 28.5 255.5t90.5 161.5t146 83t206 24q119 0 199.5 -23.5t140 -82t87 -160.5t27.5 -256v-131h-749q0 -113 14.5 -183t51 -113t93 -59t148.5 -16q186 0 391 41v-148q-189 -41 -393 -41q-127 0 -212 22.5t-148 80.5t-92 161.5t-29 260.5zM289 629h573 q0 109 -11 175t-41.5 112.5t-84.5 64.5t-141 18q-171 0 -233 -79t-62 -291zM346 1272l137 272h211l133 -272h-118l-121 162l-123 -162h-119z" />
<glyph unicode="&#xeb;" horiz-adv-x="1145" d="M113 502v123q0 153 28.5 255.5t90.5 161.5t146 83t206 24q119 0 199.5 -23.5t140 -82t87 -160.5t27.5 -256v-131h-749q0 -113 14.5 -183t51 -113t93 -59t148.5 -16q186 0 391 41v-148q-189 -41 -393 -41q-127 0 -212 22.5t-148 80.5t-92 161.5t-29 260.5zM289 629h573 q0 109 -11 175t-41.5 112.5t-84.5 64.5t-141 18q-171 0 -233 -79t-62 -291zM346 1288v176h178v-176h-178zM678 1288v176h176v-176h-176z" />
<glyph unicode="&#xec;" horiz-adv-x="484" d="M-8 1544h198l99 -272h-115zM152 0v1126h174v-1126h-174z" />
<glyph unicode="&#xed;" horiz-adv-x="484" d="M152 0v1126h174v-1126h-174zM197 1272l96 272h201l-183 -272h-114z" />
<glyph unicode="&#xee;" horiz-adv-x="484" d="M0 1272l137 272h211l133 -272h-119l-120 162l-123 -162h-119zM152 0v1126h174v-1126h-174z" />
<glyph unicode="&#xef;" horiz-adv-x="484" d="M-14 1288v176h178v-176h-178zM152 0v1126h174v-1126h-174zM317 1288v176h177v-176h-177z" />
<glyph unicode="&#xf0;" horiz-adv-x="1162" d="M102 498v120q0 152 25 252t82 160.5t141 85.5t211 25q174 0 268 -78q-42 134 -110 244l-187 -45l-28 94l153 37q-44 62 -120 141h202l84 -100l189 45l26 -97l-159 -36q165 -286 165 -713v-135q0 -153 -26.5 -253.5t-87 -160t-146 -83.5t-213.5 -24t-212.5 24t-144 83.5 t-86 160t-26.5 253.5zM274 489q0 -112 14 -182.5t50.5 -113t91 -58.5t141.5 -16q118 0 181 31.5t91.5 110.5t28.5 228v138q0 149 -28.5 227.5t-91 109.5t-181.5 31q-88 0 -142 -15.5t-90.5 -58t-50.5 -112.5t-14 -182v-138z" />
<glyph unicode="&#xf1;" d="M145 0v1126h119l39 -110q93 68 179 100.5t194 32.5q198 0 282 -88.5t84 -310.5v-750h-174v750q0 145 -54.5 197t-182.5 52q-173 0 -309 -112v-887h-177zM287 1290q0 120 45 171.5t135 51.5q43 0 82 -17t63 -38t55.5 -38t61.5 -17q46 0 64 25t18 71h113q0 -118 -46 -170.5 t-135 -52.5q-43 0 -82 17t-62.5 37t-55 37t-62.5 17q-84 0 -84 -94h-110z" />
<glyph unicode="&#xf2;" horiz-adv-x="1155" d="M102 502v123q0 152 27 253t87 161t145 85t212 25q128 0 214.5 -25t147.5 -85t88.5 -161t27.5 -253v-123q0 -122 -18 -211t-54 -150t-94.5 -97.5t-133.5 -52.5t-178 -16q-128 0 -213.5 25t-145 86t-86 162.5t-26.5 253.5zM276 502q0 -153 28 -233.5t89.5 -112t179.5 -31.5 q119 0 181.5 31.5t91 112t28.5 233.5v123q0 152 -28.5 232t-91 111t-181.5 31q-88 0 -142.5 -16t-90.5 -58.5t-50 -113.5t-14 -186v-123zM342 1544h199l98 -272h-115z" />
<glyph unicode="&#xf3;" horiz-adv-x="1155" d="M102 502v123q0 152 27 253t87 161t145 85t212 25q128 0 214.5 -25t147.5 -85t88.5 -161t27.5 -253v-123q0 -122 -18 -211t-54 -150t-94.5 -97.5t-133.5 -52.5t-178 -16q-128 0 -213.5 25t-145 86t-86 162.5t-26.5 253.5zM276 502q0 -153 28 -233.5t89.5 -112t179.5 -31.5 q119 0 181.5 31.5t91 112t28.5 233.5v123q0 152 -28.5 232t-91 111t-181.5 31q-88 0 -142.5 -16t-90.5 -58.5t-50 -113.5t-14 -186v-123zM537 1272l96 272h201l-183 -272h-114z" />
<glyph unicode="&#xf4;" horiz-adv-x="1155" d="M102 502v123q0 152 27 253t87 161t145 85t212 25q128 0 214.5 -25t147.5 -85t88.5 -161t27.5 -253v-123q0 -122 -18 -211t-54 -150t-94.5 -97.5t-133.5 -52.5t-178 -16q-128 0 -213.5 25t-145 86t-86 162.5t-26.5 253.5zM276 502q0 -153 28 -233.5t89.5 -112t179.5 -31.5 q119 0 181.5 31.5t91 112t28.5 233.5v123q0 152 -28.5 232t-91 111t-181.5 31q-88 0 -142.5 -16t-90.5 -58.5t-50 -113.5t-14 -186v-123zM334 1272l137 272h211l133 -272h-119l-121 162l-122 -162h-119z" />
<glyph unicode="&#xf5;" horiz-adv-x="1155" d="M102 502v123q0 152 27 253t87 161t145 85t212 25q128 0 214.5 -25t147.5 -85t88.5 -161t27.5 -253v-123q0 -122 -18 -211t-54 -150t-94.5 -97.5t-133.5 -52.5t-178 -16q-128 0 -213.5 25t-145 86t-86 162.5t-26.5 253.5zM256 1290q0 120 45 171.5t135 51.5q43 0 82 -17 t63 -38t55.5 -38t61.5 -17q46 0 64 25t18 71h113q0 -119 -45.5 -171t-134.5 -52q-43 0 -82 17t-62.5 37t-55 37t-62.5 17q-84 0 -84 -94h-111zM276 502q0 -153 28 -233.5t89.5 -112t179.5 -31.5q119 0 181.5 31.5t91 112t28.5 233.5v123q0 152 -28.5 232t-91 111t-181.5 31 q-88 0 -142.5 -16t-90.5 -58.5t-50 -113.5t-14 -186v-123z" />
<glyph unicode="&#xf6;" horiz-adv-x="1155" d="M102 502v123q0 152 27 253t87 161t145 85t212 25q128 0 214.5 -25t147.5 -85t88.5 -161t27.5 -253v-123q0 -122 -18 -211t-54 -150t-94.5 -97.5t-133.5 -52.5t-178 -16q-128 0 -213.5 25t-145 86t-86 162.5t-26.5 253.5zM276 502q0 -153 28 -233.5t89.5 -112t179.5 -31.5 q119 0 181.5 31.5t91 112t28.5 233.5v123q0 152 -28.5 232t-91 111t-181.5 31q-88 0 -142.5 -16t-90.5 -58.5t-50 -113.5t-14 -186v-123zM319 1288v176h179v-176h-179zM651 1288v176h176v-176h-176z" />
<glyph unicode="&#xf7;" horiz-adv-x="1170" d="M125 549v141h915v-141h-915zM485 172v186h195v-186h-195zM485 879v186h195v-186h-195z" />
<glyph unicode="&#xf8;" horiz-adv-x="1155" d="M68 -45l116 166q-82 118 -82 381v123q0 152 27 253t87 161t145 85t212 25q191 0 295 -59l56 81h149l-115 -161q93 -125 93 -385v-123q0 -122 -18 -211t-54 -150t-94.5 -97.5t-133.5 -52.5t-178 -16q-194 0 -299 64l-57 -84h-149zM276 502q0 -147 21 -217l475 673 q-60 41 -199 41q-88 0 -142.5 -16t-90.5 -58.5t-50 -113.5t-14 -186v-123zM367 172q60 -47 206 -47q119 0 181.5 31.5t91 112t28.5 233.5v123q0 138 -26 227z" />
<glyph unicode="&#xf9;" d="M145 375v751h177v-751q0 -75 13.5 -124t44.5 -76.5t73 -38.5t106 -11q169 0 309 115v886h174v-1126h-116l-41 111q-92 -70 -178 -102t-193 -32q-198 0 -283.5 88.5t-85.5 309.5zM371 1544h198l99 -272h-115z" />
<glyph unicode="&#xfa;" d="M145 375v751h177v-751q0 -75 13.5 -124t44.5 -76.5t73 -38.5t106 -11q169 0 309 115v886h174v-1126h-116l-41 111q-92 -70 -178 -102t-193 -32q-198 0 -283.5 88.5t-85.5 309.5zM543 1272l96 272h201l-183 -272h-114z" />
<glyph unicode="&#xfb;" d="M145 375v751h177v-751q0 -75 13.5 -124t44.5 -76.5t73 -38.5t106 -11q169 0 309 115v886h174v-1126h-116l-41 111q-92 -70 -178 -102t-193 -32q-198 0 -283.5 88.5t-85.5 309.5zM354 1272l138 272h210l134 -272h-119l-121 162l-123 -162h-119z" />
<glyph unicode="&#xfc;" d="M145 375v751h177v-751q0 -75 13.5 -124t44.5 -76.5t73 -38.5t106 -11q169 0 309 115v886h174v-1126h-116l-41 111q-92 -70 -178 -102t-193 -32q-198 0 -283.5 88.5t-85.5 309.5zM340 1288v176h178v-176h-178zM672 1288v176h176v-176h-176z" />
<glyph unicode="&#xfd;" horiz-adv-x="1119" d="M57 1126h191l309 -909h4l309 909h189l-465 -1280q-52 -144 -130.5 -198t-230.5 -54q-69 0 -124 21v147q55 -18 124 -18q81 0 123.5 33t77.5 127l37 96zM506 1272l96 272h201l-182 -272h-115z" />
<glyph unicode="&#xfe;" horiz-adv-x="1205" d="M145 -383v1892h177v-481q174 123 340 123q84 0 146 -13t117 -47t89 -90.5t53.5 -146.5t19.5 -213v-160q0 -122 -19.5 -211t-53.5 -145.5t-88.5 -90t-117 -46.5t-146.5 -13q-166 0 -340 123v-481h-177zM322 252q66 -57 153.5 -92t163.5 -35q99 0 156.5 30.5t87.5 110.5 t30 223v148q0 143 -30 224t-87.5 112t-156.5 31q-77 0 -164 -37.5t-153 -98.5v-616z" />
<glyph unicode="&#xff;" horiz-adv-x="1119" d="M57 1126h191l309 -909h4l309 909h189l-465 -1280q-52 -144 -130.5 -198t-230.5 -54q-69 0 -124 21v147q55 -18 124 -18q81 0 123.5 33t77.5 127l37 96zM305 1288v176h178v-176h-178zM637 1288v176h176v-176h-176z" />
<glyph unicode="&#x100;" horiz-adv-x="1182" d="M45 0l430 1464h227l431 -1464h-187l-100 356h-512l-101 -356h-188zM328 1663v129h526v-129h-526zM375 510h430l-213 776h-4z" />
<glyph unicode="&#x101;" horiz-adv-x="1133" d="M90 297q0 300 359 321l380 27v135q0 122 -53.5 170.5t-206.5 48.5q-142 0 -200 -46.5t-58 -161.5h-176q0 195 108.5 276.5t325.5 81.5q238 0 337.5 -84t99.5 -285v-780h-119l-39 111q-87 -69 -172.5 -102.5t-190.5 -33.5q-194 0 -294.5 82t-100.5 240zM268 307 q0 -182 230 -182q103 0 178 30t153 97v276l-362 -36q-102 -12 -150.5 -56.5t-48.5 -128.5zM307 1325v129h527v-129h-527z" />
<glyph unicode="&#x102;" horiz-adv-x="1182" d="M45 0l430 1464h227l431 -1464h-187l-100 356h-512l-101 -356h-188zM322 1882h118q0 -164 150 -164q145 0 145 164h121q0 -138 -67.5 -212.5t-198.5 -74.5q-132 0 -200 74.5t-68 212.5zM375 510h430l-213 776h-4z" />
<glyph unicode="&#x103;" horiz-adv-x="1133" d="M90 297q0 300 359 321l380 27v135q0 122 -53.5 170.5t-206.5 48.5q-142 0 -200 -46.5t-58 -161.5h-176q0 195 108.5 276.5t325.5 81.5q238 0 337.5 -84t99.5 -285v-780h-119l-39 111q-87 -69 -172.5 -102.5t-190.5 -33.5q-194 0 -294.5 82t-100.5 240zM268 307 q0 -182 230 -182q103 0 178 30t153 97v276l-362 -36q-102 -12 -150.5 -56.5t-48.5 -128.5zM297 1544h119q0 -164 149 -164q73 0 109.5 42.5t36.5 121.5h120q0 -138 -67.5 -212.5t-198.5 -74.5q-132 0 -200 74.5t-68 212.5z" />
<glyph unicode="&#x104;" horiz-adv-x="1182" d="M45 0l430 1464h227l431 -1464q-127 -88 -127 -184q0 -39 23 -58.5t63 -19.5h41v-117h-95q-178 0 -178 154q0 102 92 188l-106 393h-512l-101 -356h-188zM375 510h430l-213 776h-4z" />
<glyph unicode="&#x105;" horiz-adv-x="1133" d="M90 297q0 300 359 321l380 27v135q0 122 -53.5 170.5t-206.5 48.5q-142 0 -200 -46.5t-58 -161.5h-176q0 195 108.5 276.5t325.5 81.5q238 0 337.5 -84t99.5 -285v-780q-67 -43 -102.5 -92.5t-35.5 -93.5q0 -76 86 -76h45v-121h-104q-170 0 -170 160q0 124 160 229 l-37 105q-87 -69 -172.5 -102.5t-190.5 -33.5q-194 0 -294.5 82t-100.5 240zM268 307q0 -182 230 -182q103 0 178 30t153 97v276l-362 -36q-101 -10 -150 -56t-49 -129z" />
<glyph unicode="&#x106;" horiz-adv-x="1231" d="M125 504v457q0 287 115.5 406.5t384.5 119.5q249 0 364 -103t115 -335h-180q0 155 -69 217.5t-230 62.5q-178 0 -250 -77t-72 -279v-481q0 -138 31.5 -215t100 -109.5t190.5 -32.5q162 0 230.5 61t68.5 218h180q0 -233 -115 -335t-364 -102q-179 0 -286.5 49.5 t-160.5 165t-53 312.5zM575 1610l97 272h200l-182 -272h-115z" />
<glyph unicode="&#x107;" horiz-adv-x="1145" d="M113 502v123q0 124 19.5 213.5t55.5 149.5t95.5 95.5t132.5 50.5t172 15q228 0 334 -86t106 -289h-176q-1 85 -25 132.5t-80.5 70t-158.5 22.5q-87 0 -141.5 -15.5t-91.5 -58t-51.5 -114t-14.5 -186.5v-123q0 -116 15 -188t51.5 -114.5t91 -58.5t141.5 -16 q150 0 206 49.5t58 177.5h176q0 -205 -106 -291t-334 -86q-101 0 -174.5 15t-132.5 51t-94.5 96.5t-54.5 150.5t-19 214zM545 1272l96 272h201l-183 -272h-114z" />
<glyph unicode="&#x108;" horiz-adv-x="1231" d="M125 504v457q0 287 115.5 406.5t384.5 119.5q249 0 364 -103t115 -335h-180q0 155 -69 217.5t-230 62.5q-178 0 -250 -77t-72 -279v-481q0 -138 31.5 -215t100 -109.5t190.5 -32.5q162 0 230.5 61t68.5 218h180q0 -233 -115 -335t-364 -102q-179 0 -286.5 49.5 t-160.5 165t-53 312.5zM383 1610l137 272h211l133 -272h-119l-120 162l-123 -162h-119z" />
<glyph unicode="&#x109;" horiz-adv-x="1145" d="M113 502v123q0 124 19.5 213.5t55.5 149.5t95.5 95.5t132.5 50.5t172 15q228 0 334 -86t106 -289h-176q-1 85 -25 132.5t-80.5 70t-158.5 22.5q-87 0 -141.5 -15.5t-91.5 -58t-51.5 -114t-14.5 -186.5v-123q0 -116 15 -188t51.5 -114.5t91 -58.5t141.5 -16 q150 0 206 49.5t58 177.5h176q0 -205 -106 -291t-334 -86q-101 0 -174.5 15t-132.5 51t-94.5 96.5t-54.5 150.5t-19 214zM344 1272l137 272h211l133 -272h-118l-121 162l-123 -162h-119z" />
<glyph unicode="&#x10a;" horiz-adv-x="1231" d="M125 504v457q0 287 115.5 406.5t384.5 119.5q249 0 364 -103t115 -335h-180q0 155 -69 217.5t-230 62.5q-178 0 -250 -77t-72 -279v-481q0 -138 31.5 -215t100 -109.5t190.5 -32.5q162 0 230.5 61t68.5 218h180q0 -233 -115 -335t-364 -102q-179 0 -286.5 49.5 t-160.5 165t-53 312.5zM543 1626v176h178v-176h-178z" />
<glyph unicode="&#x10b;" horiz-adv-x="1145" d="M113 502v123q0 124 19.5 213.5t55.5 149.5t95.5 95.5t132.5 50.5t172 15q228 0 334 -86t106 -289h-176q-1 85 -25 132.5t-80.5 70t-158.5 22.5q-87 0 -141.5 -15.5t-91.5 -58t-51.5 -114t-14.5 -186.5v-123q0 -116 15 -188t51.5 -114.5t91 -58.5t141.5 -16 q150 0 206 49.5t58 177.5h176q0 -205 -106 -291t-334 -86q-101 0 -174.5 15t-132.5 51t-94.5 96.5t-54.5 150.5t-19 214zM504 1288v176h178v-176h-178z" />
<glyph unicode="&#x10c;" horiz-adv-x="1231" d="M125 504v457q0 287 115.5 406.5t384.5 119.5q249 0 364 -103t115 -335h-180q0 155 -69 217.5t-230 62.5q-178 0 -250 -77t-72 -279v-481q0 -138 31.5 -215t100 -109.5t190.5 -32.5q162 0 230.5 61t68.5 218h180q0 -233 -115 -335t-364 -102q-179 0 -286.5 49.5 t-160.5 165t-53 312.5zM385 1882h121l121 -162l121 162h120l-135 -272h-211z" />
<glyph unicode="&#x10d;" horiz-adv-x="1145" d="M113 502v123q0 124 19.5 213.5t55.5 149.5t95.5 95.5t132.5 50.5t172 15q228 0 334 -86t106 -289h-176q-1 85 -25 132.5t-80.5 70t-158.5 22.5q-87 0 -141.5 -15.5t-91.5 -58t-51.5 -114t-14.5 -186.5v-123q0 -116 15 -188t51.5 -114.5t91 -58.5t141.5 -16 q150 0 206 49.5t58 177.5h176q0 -205 -106 -291t-334 -86q-101 0 -174.5 15t-132.5 51t-94.5 96.5t-54.5 150.5t-19 214zM354 1544h121l121 -162l121 162h121l-136 -272h-210z" />
<glyph unicode="&#x10e;" horiz-adv-x="1282" d="M158 0v1464h442q110 0 191 -13.5t150 -48t112 -93.5t66.5 -150t23.5 -217v-420q0 -126 -23.5 -217t-66.5 -150t-112 -93.5t-150 -48t-191 -13.5h-442zM338 158h258q97 0 162 16t113 55.5t70 109.5t22 175v440q0 90 -16.5 153.5t-45 102.5t-76.5 60.5t-100.5 29 t-128.5 7.5h-258v-1149zM379 1882h121l121 -162l120 162h121l-135 -272h-211z" />
<glyph unicode="&#x10f;" horiz-adv-x="1373" d="M113 481v160q0 123 19.5 212.5t54 146t89 90t117 46.5t146.5 13q169 0 340 -123v483h176v-1509h-117l-41 111q-80 -63 -174 -99.5t-184 -36.5q-105 0 -179 21.5t-132 76.5t-86.5 156t-28.5 252zM289 489q0 -107 15.5 -178t50.5 -112t84 -57.5t122 -16.5q78 0 167 36 t151 99v612q-65 58 -153 92.5t-165 34.5q-99 0 -155.5 -30t-86.5 -109.5t-30 -222.5v-148zM1190 1053v456h166l-56 -456h-110z" />
<glyph unicode="&#x110;" horiz-adv-x="1270" d="M27 678v133h131v653h442q110 0 191 -13.5t150 -48t112 -93.5t66.5 -150t23.5 -217v-420q0 -126 -23.5 -217t-66.5 -150t-112 -93.5t-150 -48t-191 -13.5h-442v678h-131zM338 158h258q97 0 162 16t113 55.5t70 109.5t22 175v440q0 90 -16.5 153.5t-45 102.5t-76.5 60.5 t-100.5 29t-128.5 7.5h-258v-496h270v-133h-270v-520z" />
<glyph unicode="&#x111;" horiz-adv-x="1205" d="M113 481v160q0 123 19.5 212.5t54 146t89 90t117 46.5t146.5 13q169 0 340 -123v244h-230v104h230v135h176v-135h116v-104h-116v-1270h-117l-41 111q-80 -63 -174 -99.5t-184 -36.5q-105 0 -179 21.5t-132 76.5t-86.5 156t-28.5 252zM289 489q0 -107 15.5 -178t50.5 -112 t84 -57.5t122 -16.5q78 0 167 36t151 99v612q-65 58 -153 92.5t-165 34.5q-99 0 -155.5 -30t-86.5 -109.5t-30 -222.5v-148z" />
<glyph unicode="&#x112;" horiz-adv-x="1119" d="M158 0v1464h833v-157h-653v-488h571v-151h-571v-510h653v-158h-833zM328 1663v129h526v-129h-526z" />
<glyph unicode="&#x113;" horiz-adv-x="1145" d="M113 502v123q0 153 28.5 255.5t90.5 161.5t146 83t206 24q119 0 199.5 -23.5t140 -82t87 -160.5t27.5 -256v-131h-749q0 -113 14.5 -183t51 -113t93 -59t148.5 -16q186 0 391 41v-148q-189 -41 -393 -41q-127 0 -212 22.5t-148 80.5t-92 161.5t-29 260.5zM289 629h573 q0 109 -11 175t-41.5 112.5t-84.5 64.5t-141 18q-171 0 -233 -79t-62 -291zM330 1325v129h526v-129h-526z" />
<glyph unicode="&#x114;" horiz-adv-x="1119" d="M158 0v1464h833v-157h-653v-488h571v-151h-571v-510h653v-158h-833zM330 1882h119q0 -164 149 -164q145 0 145 164h121q0 -138 -67.5 -212.5t-198.5 -74.5q-132 0 -200 74.5t-68 212.5z" />
<glyph unicode="&#x115;" horiz-adv-x="1145" d="M113 502v123q0 153 28.5 255.5t90.5 161.5t146 83t206 24q119 0 199.5 -23.5t140 -82t87 -160.5t27.5 -256v-131h-749q0 -113 14.5 -183t51 -113t93 -59t148.5 -16q186 0 391 41v-148q-189 -41 -393 -41q-127 0 -212 22.5t-148 80.5t-92 161.5t-29 260.5zM289 629h573 q0 109 -11 175t-41.5 112.5t-84.5 64.5t-141 18q-171 0 -233 -79t-62 -291zM324 1544h118q0 -164 150 -164q145 0 145 164h121q0 -138 -67.5 -212.5t-198.5 -74.5q-132 0 -200 74.5t-68 212.5z" />
<glyph unicode="&#x116;" horiz-adv-x="1119" d="M158 0v1464h833v-157h-653v-488h571v-151h-571v-510h653v-158h-833zM502 1626v176h178v-176h-178z" />
<glyph unicode="&#x117;" horiz-adv-x="1145" d="M113 502v123q0 153 28.5 255.5t90.5 161.5t146 83t206 24q119 0 199.5 -23.5t140 -82t87 -160.5t27.5 -256v-131h-749q0 -113 14.5 -183t51 -113t93 -59t148.5 -16q186 0 391 41v-148q-189 -41 -393 -41q-127 0 -212 22.5t-148 80.5t-92 161.5t-29 260.5zM289 629h573 q0 109 -11 175t-41.5 112.5t-84.5 64.5t-141 18q-171 0 -233 -79t-62 -291zM508 1288v176h178v-176h-178z" />
<glyph unicode="&#x118;" horiz-adv-x="1119" d="M158 0v1464h833v-157h-653v-488h571v-151h-571v-510h653v-158q-129 -88 -129 -184q0 -38 24 -58t64 -20h41v-117h-94q-178 0 -178 154q0 128 143 225h-704z" />
<glyph unicode="&#x119;" horiz-adv-x="1145" d="M113 502v123q0 153 28.5 255.5t90.5 161.5t146 83t206 24q119 0 199.5 -23.5t140 -82t87 -160.5t27.5 -256v-131h-749q0 -113 14.5 -183t51 -113t93 -59t148.5 -16q186 0 391 41v-148q-129 -88 -129 -184q0 -38 24 -58t64 -20h41v-116h-94q-178 0 -178 153q0 112 104 199 q-102 -15 -225 -15q-127 0 -212 22.5t-148 80.5t-92 161.5t-29 260.5zM289 629h573q0 109 -11 175t-41.5 112.5t-84.5 64.5t-141 18q-171 0 -233 -79t-62 -291z" />
<glyph unicode="&#x11a;" horiz-adv-x="1119" d="M158 0v1464h833v-157h-653v-488h571v-151h-571v-510h653v-158h-833zM358 1882h121l121 -162l121 162h121l-135 -272h-211z" />
<glyph unicode="&#x11b;" horiz-adv-x="1145" d="M113 502v123q0 153 28.5 255.5t90.5 161.5t146 83t206 24q119 0 199.5 -23.5t140 -82t87 -160.5t27.5 -256v-131h-749q0 -113 14.5 -183t51 -113t93 -59t148.5 -16q186 0 391 41v-148q-189 -41 -393 -41q-127 0 -212 22.5t-148 80.5t-92 161.5t-29 260.5zM289 629h573 q0 109 -11 175t-41.5 112.5t-84.5 64.5t-141 18q-171 0 -233 -79t-62 -291zM348 1544h121l121 -162l121 162h120l-135 -272h-211z" />
<glyph unicode="&#x11c;" horiz-adv-x="1289" d="M135 502v461q0 284 116 404t384 120q251 0 365 -101.5t114 -334.5h-178q0 154 -69.5 216t-231.5 62q-119 0 -187 -32t-100.5 -109.5t-32.5 -214.5v-481q0 -141 32.5 -218t101 -108t192.5 -31q168 0 242.5 66.5t74.5 206.5v260h-301v151h480v-819h-95l-36 125 q-65 -76 -149.5 -112t-221.5 -36q-178 0 -285.5 49.5t-161 165t-53.5 310.5zM401 1610l138 272h211l133 -272h-119l-121 162l-123 -162h-119z" />
<glyph unicode="&#x11d;" horiz-adv-x="1205" d="M113 508v133q0 123 19.5 212.5t54 146t89 90t117 46.5t146.5 13q90 0 184 -35.5t174 -97.5l41 110h117v-1128q0 -215 -102 -309.5t-339 -94.5q-195 0 -350 44v157q159 -51 348 -51q144 0 205.5 54t61.5 200v127q-169 -125 -340 -125q-84 0 -146.5 13t-117 46.5t-89 90 t-54 146t-19.5 212.5zM289 512q0 -143 30 -222.5t86.5 -109.5t155.5 -30q78 0 165.5 34t152.5 92v592q-62 62 -151 96.5t-167 34.5q-73 0 -122 -16.5t-84 -57.5t-50.5 -111t-15.5 -177v-125zM358 1272l138 272h211l133 -272h-119l-121 162l-123 -162h-119z" />
<glyph unicode="&#x11e;" horiz-adv-x="1289" d="M135 502v461q0 284 116 404t384 120q251 0 365 -101.5t114 -334.5h-178q0 154 -69.5 216t-231.5 62q-119 0 -187 -32t-100.5 -109.5t-32.5 -214.5v-481q0 -141 32.5 -218t101 -108t192.5 -31q168 0 242.5 66.5t74.5 206.5v260h-301v151h480v-819h-95l-36 125 q-65 -76 -149.5 -112t-221.5 -36q-178 0 -285.5 49.5t-161 165t-53.5 310.5zM375 1882h119q0 -164 149 -164q145 0 145 164h121q0 -138 -67.5 -212.5t-198.5 -74.5q-132 0 -200 74.5t-68 212.5z" />
<glyph unicode="&#x11f;" horiz-adv-x="1205" d="M113 508v133q0 123 19.5 212.5t54 146t89 90t117 46.5t146.5 13q90 0 184 -35.5t174 -97.5l41 110h117v-1128q0 -215 -102 -309.5t-339 -94.5q-195 0 -350 44v157q159 -51 348 -51q144 0 205.5 54t61.5 200v127q-169 -125 -340 -125q-84 0 -146.5 13t-117 46.5t-89 90 t-54 146t-19.5 212.5zM289 512q0 -143 30 -222.5t86.5 -109.5t155.5 -30q78 0 165.5 34t152.5 92v592q-62 62 -151 96.5t-167 34.5q-73 0 -122 -16.5t-84 -57.5t-50.5 -111t-15.5 -177v-125zM334 1544h119q0 -164 149 -164q73 0 109.5 42.5t36.5 121.5h120 q0 -138 -67.5 -212.5t-198.5 -74.5q-132 0 -200 74.5t-68 212.5z" />
<glyph unicode="&#x120;" horiz-adv-x="1289" d="M135 502v461q0 284 116 404t384 120q251 0 365 -101.5t114 -334.5h-178q0 154 -69.5 216t-231.5 62q-119 0 -187 -32t-100.5 -109.5t-32.5 -214.5v-481q0 -141 32.5 -218t101 -108t192.5 -31q168 0 242.5 66.5t74.5 206.5v260h-301v151h480v-819h-95l-36 125 q-65 -76 -149.5 -112t-221.5 -36q-178 0 -285.5 49.5t-161 165t-53.5 310.5zM561 1626v176h178v-176h-178z" />
<glyph unicode="&#x121;" horiz-adv-x="1205" d="M113 508v133q0 123 19.5 212.5t54 146t89 90t117 46.5t146.5 13q90 0 184 -35.5t174 -97.5l41 110h117v-1128q0 -215 -102 -309.5t-339 -94.5q-195 0 -350 44v157q159 -51 348 -51q144 0 205.5 54t61.5 200v127q-169 -125 -340 -125q-84 0 -146.5 13t-117 46.5t-89 90 t-54 146t-19.5 212.5zM289 512q0 -143 30 -222.5t86.5 -109.5t155.5 -30q78 0 165.5 34t152.5 92v592q-62 62 -151 96.5t-167 34.5q-73 0 -122 -16.5t-84 -57.5t-50.5 -111t-15.5 -177v-125zM518 1288v176h178v-176h-178z" />
<glyph unicode="&#x122;" horiz-adv-x="1289" d="M135 502v461q0 284 116 404t384 120q251 0 365 -101.5t114 -334.5h-178q0 154 -69.5 216t-231.5 62q-119 0 -187 -32t-100.5 -109.5t-32.5 -214.5v-481q0 -141 32.5 -218t101 -108t192.5 -31q168 0 242.5 66.5t74.5 206.5v260h-301v151h480v-819h-95l-36 125 q-65 -76 -149.5 -112t-221.5 -36q-178 0 -285.5 49.5t-161 165t-53.5 310.5zM502 -428l69 293h189l-133 -293h-125z" />
<glyph unicode="&#x123;" horiz-adv-x="1205" d="M113 508v133q0 123 19.5 212.5t54 146t89 90t117 46.5t146.5 13q90 0 184 -35.5t174 -97.5l41 110h117v-1128q0 -215 -102 -309.5t-339 -94.5q-195 0 -350 44v157q159 -51 348 -51q144 0 205.5 54t61.5 200v127q-169 -125 -340 -125q-84 0 -146.5 13t-117 46.5t-89 90 t-54 146t-19.5 212.5zM289 512q0 -143 30 -222.5t86.5 -109.5t155.5 -30q78 0 165.5 34t152.5 92v592q-62 62 -151 96.5t-167 34.5q-73 0 -122 -16.5t-84 -57.5t-50.5 -111t-15.5 -177v-125zM481 1262l133 292h125l-69 -292h-189z" />
<glyph unicode="&#x124;" horiz-adv-x="1276" d="M158 0v1464h180v-645h598v645h178v-1464h-178v668h-598v-668h-180zM393 1610l137 272h211l133 -272h-118l-121 162l-123 -162h-119z" />
<glyph unicode="&#x125;" horiz-adv-x="1215" d="M-6 1620l137 272h211l133 -272h-119l-120 162l-123 -162h-119zM145 0v1509h177v-487q94 65 178 96t178 31q198 0 281 -90.5t83 -308.5v-750h-174v750q0 145 -54.5 197t-182.5 52q-173 0 -309 -112v-887h-177z" />
<glyph unicode="&#x126;" horiz-adv-x="1276" d="M45 1112v123h113v229h180v-229h598v229h178v-229h113v-123h-113v-1112h-178v668h-598v-668h-180v1112h-113zM338 819h598v293h-598v-293z" />
<glyph unicode="&#x127;" horiz-adv-x="1215" d="M145 0v1509h177v-116h630v-111h-630v-260q94 65 178 96t178 31q198 0 281 -90.5t83 -308.5v-750h-174v750q0 145 -54.5 197t-182.5 52q-173 0 -309 -112v-887h-177z" />
<glyph unicode="&#x128;" horiz-adv-x="500" d="M-29 1563q0 116 37.5 173.5t124.5 57.5q32 0 60.5 -12.5t48 -30t37.5 -34.5t37 -29.5t38 -12.5q56 0 56 97h114q0 -117 -37 -174.5t-122 -57.5q-40 0 -75.5 18.5t-55.5 41t-45 41t-46 18.5q-33 0 -44 -24.5t-11 -71.5h-117zM158 0v1464h180v-1464h-180z" />
<glyph unicode="&#x129;" horiz-adv-x="484" d="M-39 1237q0 115 38 172t126 57q32 0 60.5 -12t47.5 -29t36.5 -34t36.5 -29t38 -12q57 0 57 94h115q0 -116 -37.5 -173t-122.5 -57q-40 0 -75 18.5t-55.5 40t-45 40t-45.5 18.5q-33 0 -45 -24.5t-12 -69.5h-117zM152 0v1126h174v-1126h-174z" />
<glyph unicode="&#x12a;" horiz-adv-x="500" d="M-16 1663v129h526v-129h-526zM158 0v1464h180v-1464h-180z" />
<glyph unicode="&#x12b;" horiz-adv-x="484" d="M27 1264v133h428v-133h-428zM152 0v1126h174v-1126h-174z" />
<glyph unicode="&#x12c;" horiz-adv-x="500" d="M-18 1882h118q0 -164 150 -164q145 0 145 164h121q0 -138 -67.5 -212.5t-198.5 -74.5q-132 0 -200 74.5t-68 212.5zM158 0v1464h180v-1464h-180z" />
<glyph unicode="&#x12d;" horiz-adv-x="484" d="M-27 1544h119q0 -164 150 -164q145 0 145 164h121q0 -138 -67.5 -212.5t-198.5 -74.5q-132 0 -200.5 74.5t-68.5 212.5zM152 0v1126h174v-1126h-174z" />
<glyph unicode="&#x12e;" horiz-adv-x="500" d="M66 -225q0 101 92 184v1505h180v-1464q-129 -88 -129 -184q0 -38 24 -58t64 -20h41v-117h-94q-178 0 -178 154z" />
<glyph unicode="&#x12f;" horiz-adv-x="473" d="M49 -225q0 105 96 188v1163h177v-1126q-127 -88 -127 -184q0 -39 23 -58.5t63 -19.5h41v-117h-95q-178 0 -178 154zM141 1325v184h185v-184h-185z" />
<glyph unicode="&#x130;" horiz-adv-x="500" d="M158 0v1464h180v-1464h-180zM158 1626v176h178v-176h-178z" />
<glyph unicode="&#x131;" horiz-adv-x="484" d="M152 0v1126h174v-1126h-174z" />
<glyph unicode="&#x134;" horiz-adv-x="822" d="M90 0v158q88 -23 211 -23q98 0 138 37.5t40 138.5v996h-276v157h456v-1153q0 -87 -16 -146t-54.5 -103t-107 -64.5t-170.5 -20.5q-123 0 -221 23zM190 1610l138 272h211l133 -272h-119l-121 162l-123 -162h-119z" />
<glyph unicode="&#x135;" horiz-adv-x="473" d="M-109 -233q78 -21 136 -21q65 0 91.5 33t26.5 102v1245h177v-1245q0 -148 -60.5 -217.5t-200.5 -69.5q-99 0 -170 23v150zM-6 1272l137 272h211l133 -272h-119l-120 162l-123 -162h-119z" />
<glyph unicode="&#x136;" horiz-adv-x="1149" d="M158 0v1464h180v-649l510 649h217l-573 -712l585 -752h-217q-93 130 -168 231t-131.5 172.5t-88 110t-76.5 91t-58 67.5v-672h-180zM412 -428l69 293h189l-133 -293h-125z" />
<glyph unicode="&#x137;" horiz-adv-x="1041" d="M145 0v1509h177v-858h4l424 475h217l-490 -532q39 -49 263.5 -297t263.5 -297h-224l-454 532h-4v-532h-177zM377 -428l69 293h189l-133 -293h-125z" />
<glyph unicode="&#x138;" horiz-adv-x="1041" d="M145 0v1126h177v-475h4l424 475h217l-490 -532q39 -49 263.5 -297t263.5 -297h-224l-454 532h-4v-532h-177z" />
<glyph unicode="&#x139;" horiz-adv-x="955" d="M158 0v1464h180v-1306h522v-158h-702zM203 1610l96 272h201l-183 -272h-114z" />
<glyph unicode="&#x13a;" horiz-adv-x="473" d="M145 0v1509h177v-1509h-177zM184 1655l97 272h200l-182 -272h-115z" />
<glyph unicode="&#x13b;" horiz-adv-x="955" d="M158 0v1464h180v-1306h522v-158h-702zM334 -428l69 293h189l-133 -293h-125z" />
<glyph unicode="&#x13c;" horiz-adv-x="473" d="M70 -428l69 293h189l-133 -293h-125zM145 0v1509h177v-1509h-177z" />
<glyph unicode="&#x13d;" horiz-adv-x="955" d="M158 0v1464h180v-1306h522v-158h-702zM481 1053v456h168l-57 -456h-111z" />
<glyph unicode="&#x13e;" horiz-adv-x="639" d="M145 0v1509h177v-1509h-177zM457 1053v456h166l-56 -456h-110z" />
<glyph unicode="&#x13f;" horiz-adv-x="955" d="M158 0v1464h180v-1306h522v-158h-702zM485 645v203h207v-203h-207z" />
<glyph unicode="&#x140;" horiz-adv-x="734" d="M145 0v1509h177v-1509h-177zM467 633v219h221v-219h-221z" />
<glyph unicode="&#x141;" horiz-adv-x="955" d="M45 532v138l135 53v741h180v-669q28 12 108.5 45t123.5 53v-137l-232 -97v-501h523v-158h-703v588z" />
<glyph unicode="&#x142;" horiz-adv-x="547" d="M23 535v133l161 67v774h174v-706l162 67v-133l-162 -67v-670h-174v602z" />
<glyph unicode="&#x143;" horiz-adv-x="1297" d="M158 0v1464h229l567 -1204v1204h181v-1464h-230l-567 1204v-1204h-180zM606 1610l96 272h201l-182 -272h-115z" />
<glyph unicode="&#x144;" d="M145 0v1126h119l39 -110q93 68 179 100.5t194 32.5q198 0 282 -88.5t84 -310.5v-750h-174v750q0 145 -54.5 197t-182.5 52q-173 0 -309 -112v-887h-177zM567 1272l97 272h200l-182 -272h-115z" />
<glyph unicode="&#x145;" horiz-adv-x="1297" d="M158 0v1464h229l567 -1204v1204h181v-1464h-230l-567 1204v-1204h-180zM506 -428l69 293h189l-133 -293h-125z" />
<glyph unicode="&#x146;" d="M145 0v1126h119l39 -110q93 68 179 100.5t194 32.5q198 0 282 -88.5t84 -310.5v-750h-174v750q0 145 -54.5 197t-182.5 52q-173 0 -309 -112v-887h-177zM436 -428l70 293h188l-133 -293h-125z" />
<glyph unicode="&#x147;" horiz-adv-x="1297" d="M158 0v1464h229l567 -1204v1204h181v-1464h-230l-567 1204v-1204h-180zM408 1882h120l121 -162l121 162h121l-135 -272h-211z" />
<glyph unicode="&#x148;" d="M145 0v1126h119l39 -110q93 68 179 100.5t194 32.5q198 0 282 -88.5t84 -310.5v-750h-174v750q0 145 -54.5 197t-182.5 52q-173 0 -309 -112v-887h-177zM362 1544h121l121 -162l121 162h121l-135 -272h-211z" />
<glyph unicode="&#x14a;" horiz-adv-x="1297" d="M158 0v1464h219q75 -152 277.5 -568.5t312.5 -639.5q-4 376 -4 592v616h172v-1536q0 -86 -16 -146t-54.5 -103.5t-105.5 -64t-166 -20.5q-122 0 -228 25v156q103 -27 213 -27q98 0 137 39t39 143l-624 1274q1 -55 4.5 -252t3.5 -313v-639h-180z" />
<glyph unicode="&#x14b;" d="M145 0v1126h119l39 -110q93 68 179 100.5t194 32.5q198 0 282 -88.5t84 -310.5v-869q0 -148 -60 -217.5t-200 -69.5q-99 0 -170 23v150q78 -21 136 -21q65 0 92.5 33t27.5 102v869q0 145 -54.5 197t-182.5 52q-173 0 -309 -112v-887h-177z" />
<glyph unicode="&#x14c;" horiz-adv-x="1264" d="M125 496v473q0 146 30 245t94 159.5t156.5 87t225.5 26.5t225.5 -26.5t156 -87.5t93 -160t29.5 -244v-473q0 -286 -119 -402.5t-385 -116.5q-133 0 -225.5 26.5t-156.5 87t-94 160t-30 245.5zM303 496q0 -143 36 -222.5t104.5 -109t187.5 -29.5q88 0 146 16t99.5 56.5 t59.5 110.5t18 178v473q0 108 -18 178t-59.5 110.5t-99.5 56t-146 15.5q-120 0 -188.5 -29.5t-104 -109t-35.5 -223.5v-471zM371 1663v129h526v-129h-526z" />
<glyph unicode="&#x14d;" horiz-adv-x="1155" d="M102 502v123q0 152 27 253t87 161t145 85t212 25q128 0 214.5 -25t147.5 -85t88.5 -161t27.5 -253v-123q0 -122 -18 -211t-54 -150t-94.5 -97.5t-133.5 -52.5t-178 -16q-128 0 -213.5 25t-145 86t-86 162.5t-26.5 253.5zM276 502q0 -153 28 -233.5t89.5 -112t179.5 -31.5 q119 0 181.5 31.5t91 112t28.5 233.5v123q0 152 -28.5 232t-91 111t-181.5 31q-88 0 -142.5 -16t-90.5 -58.5t-50 -113.5t-14 -186v-123zM311 1325v129h527v-129h-527z" />
<glyph unicode="&#x14e;" horiz-adv-x="1264" d="M125 496v473q0 146 30 245t94 159.5t156.5 87t225.5 26.5t225.5 -26.5t156 -87.5t93 -160t29.5 -244v-473q0 -286 -119 -402.5t-385 -116.5q-133 0 -225.5 26.5t-156.5 87t-94 160t-30 245.5zM303 496q0 -143 36 -222.5t104.5 -109t187.5 -29.5q88 0 146 16t99.5 56.5 t59.5 110.5t18 178v473q0 108 -18 178t-59.5 110.5t-99.5 56t-146 15.5q-120 0 -188.5 -29.5t-104 -109t-35.5 -223.5v-471zM367 1882h118q0 -164 150 -164q145 0 145 164h121q0 -138 -67.5 -212.5t-198.5 -74.5q-132 0 -200 74.5t-68 212.5z" />
<glyph unicode="&#x14f;" horiz-adv-x="1155" d="M102 502v123q0 152 27 253t87 161t145 85t212 25q128 0 214.5 -25t147.5 -85t88.5 -161t27.5 -253v-123q0 -122 -18 -211t-54 -150t-94.5 -97.5t-133.5 -52.5t-178 -16q-128 0 -213.5 25t-145 86t-86 162.5t-26.5 253.5zM276 502q0 -153 28 -233.5t89.5 -112t179.5 -31.5 q119 0 181.5 31.5t91 112t28.5 233.5v123q0 152 -28.5 232t-91 111t-181.5 31q-88 0 -142.5 -16t-90.5 -58.5t-50 -113.5t-14 -186v-123zM309 1544h119q0 -164 150 -164q145 0 145 164h121q0 -138 -67.5 -212.5t-198.5 -74.5q-132 0 -200.5 74.5t-68.5 212.5z" />
<glyph unicode="&#x150;" horiz-adv-x="1264" d="M125 496v473q0 146 30 245t94 159.5t156.5 87t225.5 26.5t225.5 -26.5t156 -87.5t93 -160t29.5 -244v-473q0 -286 -119 -402.5t-385 -116.5q-133 0 -225.5 26.5t-156.5 87t-94 160t-30 245.5zM303 496q0 -143 36 -222.5t104.5 -109t187.5 -29.5q88 0 146 16t99.5 56.5 t59.5 110.5t18 178v473q0 108 -18 178t-59.5 110.5t-99.5 56t-146 15.5q-120 0 -188.5 -29.5t-104 -109t-35.5 -223.5v-471zM457 1610l41 272h184l-117 -272h-108zM719 1610l102 272h195l-182 -272h-115z" />
<glyph unicode="&#x151;" horiz-adv-x="1155" d="M102 502v123q0 152 27 253t87 161t145 85t212 25q128 0 214.5 -25t147.5 -85t88.5 -161t27.5 -253v-123q0 -122 -18 -211t-54 -150t-94.5 -97.5t-133.5 -52.5t-178 -16q-128 0 -213.5 25t-145 86t-86 162.5t-26.5 253.5zM276 502q0 -153 28 -233.5t89.5 -112t179.5 -31.5 q119 0 181.5 31.5t91 112t28.5 233.5v123q0 152 -28.5 232t-91 111t-181.5 31q-88 0 -142.5 -16t-90.5 -58.5t-50 -113.5t-14 -186v-123zM406 1272l40 272h185l-117 -272h-108zM668 1272l102 272h195l-183 -272h-114z" />
<glyph unicode="&#x152;" horiz-adv-x="1887" d="M125 508v446q0 143 31.5 242t97.5 158t159 84.5t224 25.5h1124v-157h-653v-488h573v-151h-573v-510h653v-158h-1124q-264 0 -388 115t-124 393zM303 508q0 -104 21 -173t65.5 -107.5t103 -54t144.5 -15.5h291v1149h-291q-88 0 -147.5 -16t-103 -55t-63.5 -107t-20 -171 v-450z" />
<glyph unicode="&#x153;" horiz-adv-x="1905" d="M102 502v123q0 152 27 253t87 161t145 85t212 25q152 0 246 -38t144 -126q51 88 143.5 126t239.5 38q119 0 200 -24t140 -83.5t86.5 -162t27.5 -256.5v-127h-749q0 -152 28.5 -231t92 -109.5t186.5 -30.5q186 0 391 41v-148q-189 -41 -393 -41q-154 0 -248 36.5 t-145 125.5q-50 -89 -143.5 -126.5t-246.5 -37.5q-128 0 -213.5 25t-145 86t-86 162.5t-26.5 253.5zM276 502q0 -153 28 -233.5t89.5 -112t179.5 -31.5q119 0 181.5 31.5t91 112t28.5 233.5v123q0 152 -28.5 232t-91 111t-181.5 31q-88 0 -142.5 -16t-90.5 -58.5t-50 -113.5 t-14 -186v-123zM1051 629h573q0 109 -11 175t-41.5 112.5t-84.5 64.5t-141 18q-89 0 -144 -16.5t-90 -60.5t-48 -113t-13 -180z" />
<glyph unicode="&#x154;" horiz-adv-x="1239" d="M158 0v1464h460q89 0 156.5 -8.5t126 -28.5t98 -54t68.5 -85t42 -120.5t13 -161.5q0 -181 -64 -283.5t-198 -140.5l285 -582h-197l-266 555h-344v-555h-180zM338 707h287q174 0 242.5 62.5t68.5 236.5q0 94 -17 153t-58 92t-96 44.5t-142 11.5h-285v-600zM532 1610 l97 272h200l-182 -272h-115z" />
<glyph unicode="&#x155;" horiz-adv-x="719" d="M145 0v1126h119l39 -110q152 133 332 133v-162q-102 0 -174.5 -28t-138.5 -89v-870h-177zM350 1272l96 272h201l-182 -272h-115z" />
<glyph unicode="&#x156;" horiz-adv-x="1239" d="M158 0v1464h460q89 0 156.5 -8.5t126 -28.5t98 -54t68.5 -85t42 -120.5t13 -161.5q0 -181 -64 -283.5t-198 -140.5l285 -582h-197l-266 555h-344v-555h-180zM338 707h287q174 0 242.5 62.5t68.5 236.5q0 94 -17 153t-58 92t-96 44.5t-142 11.5h-285v-600zM477 -428 l70 293h188l-133 -293h-125z" />
<glyph unicode="&#x157;" horiz-adv-x="719" d="M74 -428l69 293h189l-133 -293h-125zM145 0v1126h119l39 -110q152 133 332 133v-162q-102 0 -174.5 -28t-138.5 -89v-870h-177z" />
<glyph unicode="&#x158;" horiz-adv-x="1239" d="M158 0v1464h460q89 0 156.5 -8.5t126 -28.5t98 -54t68.5 -85t42 -120.5t13 -161.5q0 -181 -64 -283.5t-198 -140.5l285 -582h-197l-266 555h-344v-555h-180zM338 707h287q174 0 242.5 62.5t68.5 236.5q0 94 -17 153t-58 92t-96 44.5t-142 11.5h-285v-600zM379 1882h121 l121 -162l120 162h121l-135 -272h-211z" />
<glyph unicode="&#x159;" horiz-adv-x="719" d="M145 0v1126h119l39 -110q152 133 332 133v-162q-102 0 -174.5 -28t-138.5 -89v-870h-177zM158 1544h121l120 -162l121 162h121l-135 -272h-211z" />
<glyph unicode="&#x15a;" horiz-adv-x="1215" d="M102 397h179q0 -150 75.5 -206t245.5 -56q181 0 252.5 59.5t71.5 200.5q0 55 -7.5 91.5t-28.5 69.5t-60.5 54.5t-102 39t-154.5 30.5q-245 34 -348.5 127.5t-103.5 279.5q0 195 118.5 297.5t356.5 102.5q249 0 364 -95.5t115 -318.5h-180q0 144 -67 200t-228 56 q-152 0 -225.5 -58t-73.5 -184q0 -85 27 -135t98 -83.5t203 -51.5q191 -25 296 -77.5t144 -132.5t39 -212q0 -219 -121.5 -318.5t-384.5 -99.5q-122 0 -211 20.5t-155.5 67.5t-100 130t-33.5 202zM563 1610l96 272h201l-182 -272h-115z" />
<glyph unicode="&#x15b;" horiz-adv-x="1115" d="M102 330h174q0 -112 58.5 -158.5t214.5 -46.5q91 0 149 12t87 38.5t39 58t10 79.5q0 93 -61 133.5t-236 55.5q-230 20 -323 91.5t-93 225.5q0 330 430 330q229 0 330.5 -81.5t101.5 -272.5h-176q0 105 -56 154.5t-200 49.5q-128 0 -191 -42t-63 -138q0 -93 59.5 -134.5 t208.5 -53.5q135 -12 219.5 -33t135.5 -59.5t70.5 -91.5t19.5 -134q0 -43 -4 -76t-15.5 -69.5t-32 -63.5t-55 -52t-82.5 -40.5t-117 -25t-155 -9.5q-130 0 -218.5 23.5t-138 71t-70 109.5t-20.5 149zM518 1272l96 272h201l-182 -272h-115z" />
<glyph unicode="&#x15c;" horiz-adv-x="1215" d="M102 397h179q0 -150 75.5 -206t245.5 -56q181 0 252.5 59.5t71.5 200.5q0 55 -7.5 91.5t-28.5 69.5t-60.5 54.5t-102 39t-154.5 30.5q-245 34 -348.5 127.5t-103.5 279.5q0 195 118.5 297.5t356.5 102.5q249 0 364 -95.5t115 -318.5h-180q0 144 -67 200t-228 56 q-152 0 -225.5 -58t-73.5 -184q0 -85 27 -135t98 -83.5t203 -51.5q191 -25 296 -77.5t144 -132.5t39 -212q0 -219 -121.5 -318.5t-384.5 -99.5q-122 0 -211 20.5t-155.5 67.5t-100 130t-33.5 202zM375 1610l137 272h211l133 -272h-119l-121 162l-122 -162h-119z" />
<glyph unicode="&#x15d;" horiz-adv-x="1115" d="M102 330h174q0 -112 58.5 -158.5t214.5 -46.5q91 0 149 12t87 38.5t39 58t10 79.5q0 93 -61 133.5t-236 55.5q-230 20 -323 91.5t-93 225.5q0 330 430 330q229 0 330.5 -81.5t101.5 -272.5h-176q0 105 -56 154.5t-200 49.5q-128 0 -191 -42t-63 -138q0 -93 59.5 -134.5 t208.5 -53.5q135 -12 219.5 -33t135.5 -59.5t70.5 -91.5t19.5 -134q0 -43 -4 -76t-15.5 -69.5t-32 -63.5t-55 -52t-82.5 -40.5t-117 -25t-155 -9.5q-130 0 -218.5 23.5t-138 71t-70 109.5t-20.5 149zM322 1272l137 272h211l133 -272h-119l-121 162l-123 -162h-118z" />
<glyph unicode="&#x15e;" horiz-adv-x="1215" d="M102 397h179q0 -150 75.5 -206t245.5 -56q181 0 252.5 59.5t71.5 200.5q0 55 -7.5 91.5t-28.5 69.5t-60.5 54.5t-102 39t-154.5 30.5q-245 34 -348.5 127.5t-103.5 279.5q0 195 118.5 297.5t356.5 102.5q249 0 364 -95.5t115 -318.5h-180q0 144 -67 200t-228 56 q-152 0 -225.5 -58t-73.5 -184q0 -85 27 -135.5t98.5 -84t202.5 -50.5q146 -18 239.5 -50t146.5 -85.5t73 -120t20 -166.5q0 -213 -112.5 -312.5t-358.5 -105.5l-23 -83q160 -15 160 -156q0 -92 -57.5 -132t-181.5 -40h-127v96h139q104 0 104 76q0 38 -23.5 57t-80.5 19h-53 l49 166q-221 9 -331 104t-110 313z" />
<glyph unicode="&#x15f;" horiz-adv-x="1115" d="M102 330h174q0 -112 58.5 -158.5t214.5 -46.5q91 0 149 12t87 38.5t39 58t10 79.5q0 93 -61 133.5t-236 55.5q-230 20 -323 91.5t-93 225.5q0 330 430 330q229 0 330.5 -81.5t101.5 -272.5h-176q0 105 -56 154.5t-200 49.5q-128 0 -191 -42t-63 -138q0 -93 59.5 -134.5 t208.5 -53.5q135 -12 219.5 -33t135.5 -59.5t70.5 -91.5t19.5 -134q0 -59 -7.5 -101.5t-33 -87.5t-69.5 -73t-121.5 -48t-184.5 -23l-23 -86q73 -7 117.5 -44.5t44.5 -111.5q0 -92 -58.5 -132t-182.5 -40h-127v96h139q104 0 104 76q0 38 -23.5 57t-80.5 19h-53l49 166 q-116 4 -194.5 29t-123 71.5t-62.5 106t-18 143.5z" />
<glyph unicode="&#x160;" horiz-adv-x="1215" d="M102 397h179q0 -150 75.5 -206t245.5 -56q181 0 252.5 59.5t71.5 200.5q0 55 -7.5 91.5t-28.5 69.5t-60.5 54.5t-102 39t-154.5 30.5q-245 34 -348.5 127.5t-103.5 279.5q0 195 118.5 297.5t356.5 102.5q249 0 364 -95.5t115 -318.5h-180q0 144 -67 200t-228 56 q-152 0 -225.5 -58t-73.5 -184q0 -85 27 -135t98 -83.5t203 -51.5q191 -25 296 -77.5t144 -132.5t39 -212q0 -219 -121.5 -318.5t-384.5 -99.5q-122 0 -211 20.5t-155.5 67.5t-100 130t-33.5 202zM377 1882h121l120 -162l121 162h121l-135 -272h-211z" />
<glyph unicode="&#x161;" horiz-adv-x="1115" d="M102 330h174q0 -112 58.5 -158.5t214.5 -46.5q91 0 149 12t87 38.5t39 58t10 79.5q0 93 -61 133.5t-236 55.5q-230 20 -323 91.5t-93 225.5q0 330 430 330q229 0 330.5 -81.5t101.5 -272.5h-176q0 105 -56 154.5t-200 49.5q-128 0 -191 -42t-63 -138q0 -93 59.5 -134.5 t208.5 -53.5q135 -12 219.5 -33t135.5 -59.5t70.5 -91.5t19.5 -134q0 -43 -4 -76t-15.5 -69.5t-32 -63.5t-55 -52t-82.5 -40.5t-117 -25t-155 -9.5q-130 0 -218.5 23.5t-138 71t-70 109.5t-20.5 149zM322 1544h120l121 -162l121 162h121l-135 -272h-211z" />
<glyph unicode="&#x162;" horiz-adv-x="1037" d="M57 1307v157h918v-157h-369v-1307h-180v1307h-369zM352 -428l70 293h188l-133 -293h-125z" />
<glyph unicode="&#x163;" horiz-adv-x="750" d="M68 977v123l145 26v275l176 29v-304h254v-149h-254v-713q0 -69 29 -103t96 -34q58 0 152 23v-150q-80 -25 -183 -25q-140 0 -205 70.5t-65 220.5v711h-145zM274 -428l70 293h188l-133 -293h-125z" />
<glyph unicode="&#x164;" horiz-adv-x="1037" d="M57 1307v157h918v-157h-369v-1307h-180v1307h-369zM276 1882h121l121 -162l121 162h121l-135 -272h-211z" />
<glyph unicode="&#x165;" horiz-adv-x="750" d="M57 977v123l146 26v275l176 29v-304h254v-149h-254v-713q0 -69 29 -103t96 -34q57 0 151 23v-150q-80 -25 -182 -25q-140 0 -205 70.5t-65 220.5v711h-146zM532 1217v360h158l-55 -360h-103z" />
<glyph unicode="&#x166;" horiz-adv-x="1037" d="M57 1307v157h918v-157h-369v-516h211v-138h-211v-653h-180v653h-211v138h211v516h-369z" />
<glyph unicode="&#x167;" horiz-adv-x="750" d="M57 977v123l146 26v275l176 29v-304h254v-149h-254v-313h205v-123h-205v-277q0 -69 29 -103t96 -34q57 0 151 23v-150q-80 -25 -182 -25q-140 0 -205 70.5t-65 220.5v275h-101v123h101v313h-146z" />
<glyph unicode="&#x168;" horiz-adv-x="1299" d="M158 455v1009h180v-1013q0 -175 71.5 -246.5t237.5 -71.5q165 0 238 72t73 246v1013h179v-1009q0 -137 -31 -231t-95 -148.5t-152 -77.5t-212 -23t-211 23t-151.5 77.5t-95.5 148.5t-31 231zM330 1628q0 120 45 171.5t135 51.5q43 0 82 -17t63 -38t55.5 -38t61.5 -17 q46 0 64 25t18 71h113q0 -118 -46 -170.5t-135 -52.5q-43 0 -82 17t-62.5 37t-55 37t-62.5 17q-84 0 -84 -94h-110z" />
<glyph unicode="&#x169;" d="M145 375v751h177v-751q0 -75 13.5 -124t44.5 -76.5t73 -38.5t106 -11q169 0 309 115v886h174v-1126h-116l-41 111q-92 -70 -178 -102t-193 -32q-198 0 -283.5 88.5t-85.5 309.5zM276 1290q0 120 45.5 171.5t135.5 51.5q43 0 82 -17t63 -38t55.5 -38t61.5 -17q46 0 64 25 t18 71h112q0 -119 -45.5 -171t-134.5 -52q-43 0 -82 17t-62.5 37t-55 37t-62.5 17q-84 0 -84 -94h-111z" />
<glyph unicode="&#x16a;" horiz-adv-x="1299" d="M158 455v1009h180v-1013q0 -175 71.5 -246.5t237.5 -71.5q165 0 238 72t73 246v1013h179v-1009q0 -137 -31 -231t-95 -148.5t-152 -77.5t-212 -23t-211 23t-151.5 77.5t-95.5 148.5t-31 231zM383 1663v129h526v-129h-526z" />
<glyph unicode="&#x16b;" d="M145 375v751h177v-751q0 -75 13.5 -124t44.5 -76.5t73 -38.5t106 -11q169 0 309 115v886h174v-1126h-116l-41 111q-92 -70 -178 -102t-193 -32q-198 0 -283.5 88.5t-85.5 309.5zM332 1325v129h526v-129h-526z" />
<glyph unicode="&#x16c;" horiz-adv-x="1299" d="M158 455v1009h180v-1013q0 -175 71.5 -246.5t237.5 -71.5q165 0 238 72t73 246v1013h179v-1009q0 -137 -31 -231t-95 -148.5t-152 -77.5t-212 -23t-211 23t-151.5 77.5t-95.5 148.5t-31 231zM381 1882h119q0 -164 149 -164q73 0 109.5 42.5t36.5 121.5h120 q0 -138 -67.5 -212.5t-198.5 -74.5q-132 0 -200 74.5t-68 212.5z" />
<glyph unicode="&#x16d;" d="M145 375v751h177v-751q0 -75 13.5 -124t44.5 -76.5t73 -38.5t106 -11q169 0 309 115v886h174v-1126h-116l-41 111q-92 -70 -178 -102t-193 -32q-198 0 -283.5 88.5t-85.5 309.5zM326 1544h118q0 -164 150 -164q145 0 145 164h121q0 -138 -67.5 -212.5t-198.5 -74.5 q-132 0 -200 74.5t-68 212.5z" />
<glyph unicode="&#x16e;" horiz-adv-x="1299" d="M158 455v1009h180v-1013q0 -175 71.5 -246.5t237.5 -71.5q165 0 238 72t73 246v1013h179v-1009q0 -137 -31 -231t-95 -148.5t-152 -77.5t-212 -23t-211 23t-151.5 77.5t-95.5 148.5t-31 231zM428 1786q0 94 58 142t163 48q103 0 161 -48.5t58 -141.5q0 -92 -58 -141.5 t-161 -49.5q-104 0 -162.5 49t-58.5 142zM543 1786q0 -96 106 -96q107 0 107 96q0 92 -107 92q-106 0 -106 -92z" />
<glyph unicode="&#x16f;" d="M145 375v751h177v-751q0 -75 13.5 -124t44.5 -76.5t73 -38.5t106 -11q169 0 309 115v886h174v-1126h-116l-41 111q-92 -70 -178 -102t-193 -32q-198 0 -283.5 88.5t-85.5 309.5zM375 1448q0 94 58 142t163 48q103 0 161 -48.5t58 -141.5q0 -92 -58 -141.5t-161 -49.5 q-104 0 -162.5 49t-58.5 142zM489 1448q0 -96 107 -96q106 0 106 96q0 92 -106 92q-107 0 -107 -92z" />
<glyph unicode="&#x170;" horiz-adv-x="1299" d="M158 455v1009h180v-1013q0 -175 71.5 -246.5t237.5 -71.5q165 0 238 72t73 246v1013h179v-1009q0 -137 -31 -231t-95 -148.5t-152 -77.5t-212 -23t-211 23t-151.5 77.5t-95.5 148.5t-31 231zM463 1610l41 272h184l-117 -272h-108zM725 1610l102 272h195l-182 -272h-115z " />
<glyph unicode="&#x171;" d="M145 375v751h177v-751q0 -75 13.5 -124t44.5 -76.5t73 -38.5t106 -11q169 0 309 115v886h174v-1126h-116l-41 111q-92 -70 -178 -102t-193 -32q-198 0 -283.5 88.5t-85.5 309.5zM412 1272l41 272h184l-117 -272h-108zM674 1272l102 272h195l-183 -272h-114z" />
<glyph unicode="&#x172;" horiz-adv-x="1299" d="M158 455v1009h180v-1013q0 -175 71.5 -246.5t237.5 -71.5q165 0 238 72t73 246v1013h179v-1009q0 -213 -75 -322t-228 -139q-117 -85 -117 -178q0 -39 23.5 -58.5t64.5 -19.5h41v-117h-96q-86 0 -132.5 38t-46.5 116q0 108 111 202q-5 0 -17.5 -1t-17.5 -1 q-124 0 -211 23t-151.5 77.5t-95.5 148.5t-31 231z" />
<glyph unicode="&#x173;" d="M145 375v751h177v-751q0 -75 13.5 -124t44.5 -76.5t73 -38.5t106 -11q169 0 309 115v886h174v-1126q-127 -88 -127 -184q0 -39 24 -58.5t65 -19.5h38v-117h-94q-178 0 -178 154q0 126 156 231l-41 105q-92 -70 -178 -102t-193 -32q-198 0 -283.5 88.5t-85.5 309.5z" />
<glyph unicode="&#x174;" horiz-adv-x="1846" d="M78 1464h188l256 -1265h4q42 195 136 618t141 647h233l277 -1265h4q37 185 124 610.5t132 654.5h188l-325 -1464h-240l-276 1272l-279 -1272h-238zM678 1610l137 272h211l133 -272h-119l-120 162l-123 -162h-119z" />
<glyph unicode="&#x175;" horiz-adv-x="1649" d="M68 1126h184l217 -942h2l244 942h213l246 -942l219 942h184q-49 -188 -146.5 -562.5t-146.5 -563.5h-215l-246 952l-252 -952h-213zM582 1272l137 272h211l133 -272h-119l-121 162l-123 -162h-118z" />
<glyph unicode="&#x176;" horiz-adv-x="1153" d="M57 1464h199l315 -714h7l315 714h199l-428 -895v-569h-179v569zM334 1610l137 272h211l133 -272h-119l-121 162l-122 -162h-119z" />
<glyph unicode="&#x177;" horiz-adv-x="1119" d="M57 1126h191l309 -909h4l309 909h189l-465 -1280q-52 -144 -130.5 -198t-230.5 -54q-69 0 -124 21v147q55 -18 124 -18q81 0 123.5 33t77.5 127l37 96zM315 1272l138 272h211l133 -272h-119l-121 162l-123 -162h-119z" />
<glyph unicode="&#x178;" horiz-adv-x="1153" d="M57 1464h199l315 -714h7l315 714h199l-428 -895v-569h-179v569zM319 1626v176h179v-176h-179zM651 1626v176h176v-176h-176z" />
<glyph unicode="&#x179;" horiz-adv-x="1131" d="M113 0v133l690 1174h-668v157h879v-137l-690 -1169h712v-158h-923zM512 1610l96 272h201l-182 -272h-115z" />
<glyph unicode="&#x17a;" horiz-adv-x="1100" d="M102 0v121l625 856h-602v149h827v-122l-628 -854h659v-150h-881zM467 1272l96 272h201l-182 -272h-115z" />
<glyph unicode="&#x17b;" horiz-adv-x="1131" d="M113 0v133l690 1174h-668v157h879v-137l-690 -1169h712v-158h-923zM481 1626v176h178v-176h-178z" />
<glyph unicode="&#x17c;" horiz-adv-x="1100" d="M102 0v121l625 856h-602v149h827v-122l-628 -854h659v-150h-881zM436 1288v176h178v-176h-178z" />
<glyph unicode="&#x17d;" horiz-adv-x="1131" d="M113 0v133l690 1174h-668v157h879v-137l-690 -1169h712v-158h-923zM324 1882h120l121 -162l121 162h121l-135 -272h-211z" />
<glyph unicode="&#x17e;" horiz-adv-x="1100" d="M102 0v121l625 856h-602v149h827v-122l-628 -854h659v-150h-881zM307 1544h121l121 -162l121 162h121l-136 -272h-211z" />
<glyph unicode="&#x192;" horiz-adv-x="816" d="M18 -231q69 -21 138 -21q65 0 95 30.5t30 94.5v1104h-148v121l148 28v136q0 276 270 276q100 0 170 -25v-147q-79 18 -139 18q-66 0 -95.5 -31t-29.5 -93v-134h207v-149h-207v-1059q0 -168 -62 -246t-209 -78q-98 0 -168 25v150z" />
<glyph unicode="&#x218;" horiz-adv-x="1215" d="M102 397h179q0 -150 75.5 -206t245.5 -56q181 0 252.5 59.5t71.5 200.5q0 55 -7.5 91.5t-28.5 69.5t-60.5 54.5t-102 39t-154.5 30.5q-245 34 -348.5 127.5t-103.5 279.5q0 195 118.5 297.5t356.5 102.5q249 0 364 -95.5t115 -318.5h-180q0 144 -67 200t-228 56 q-152 0 -225.5 -58t-73.5 -184q0 -85 27 -135t98 -83.5t203 -51.5q191 -25 296 -77.5t144 -132.5t39 -212q0 -219 -121.5 -318.5t-384.5 -99.5q-122 0 -211 20.5t-155.5 67.5t-100 130t-33.5 202zM434 -428l70 293h188l-133 -293h-125z" />
<glyph unicode="&#x219;" horiz-adv-x="1115" d="M102 330h174q0 -112 58.5 -158.5t214.5 -46.5q91 0 149 12t87 38.5t39 58t10 79.5q0 93 -61 133.5t-236 55.5q-230 20 -323 91.5t-93 225.5q0 330 430 330q229 0 330.5 -81.5t101.5 -272.5h-176q0 105 -56 154.5t-200 49.5q-128 0 -191 -42t-63 -138q0 -93 59.5 -134.5 t208.5 -53.5q135 -12 219.5 -33t135.5 -59.5t70.5 -91.5t19.5 -134q0 -43 -4 -76t-15.5 -69.5t-32 -63.5t-55 -52t-82.5 -40.5t-117 -25t-155 -9.5q-130 0 -218.5 23.5t-138 71t-70 109.5t-20.5 149zM391 -428l70 293h188l-133 -293h-125z" />
<glyph unicode="&#x2c6;" horiz-adv-x="762" d="M137 1272l137 272h211l133 -272h-118l-121 162l-123 -162h-119z" />
<glyph unicode="&#x2c7;" horiz-adv-x="762" d="M139 1544h121l121 -162l121 162h121l-136 -272h-211z" />
<glyph unicode="&#x2d8;" horiz-adv-x="813" d="M137 1544h119q0 -164 150 -164q145 0 145 164h121q0 -138 -67.5 -212.5t-198.5 -74.5q-132 0 -200.5 74.5t-68.5 212.5z" />
<glyph unicode="&#x2d9;" horiz-adv-x="459" d="M139 1288v176h178v-176h-178z" />
<glyph unicode="&#x2da;" horiz-adv-x="719" d="M137 1448q0 94 58 142t163 48q104 0 162 -48.5t58 -141.5q0 -92 -58.5 -141.5t-161.5 -49.5q-104 0 -162.5 49t-58.5 142zM252 1448q0 -96 106 -96q107 0 107 96q0 92 -107 92q-106 0 -106 -92z" />
<glyph unicode="&#x2db;" horiz-adv-x="484" d="M92 -225q0 128 146 225h127q-127 -86 -127 -184q0 -39 23 -58.5t63 -19.5h41v-117h-95q-178 0 -178 154z" />
<glyph unicode="&#x2dc;" horiz-adv-x="914" d="M137 1290q0 120 45 171.5t135 51.5q43 0 82.5 -17t63 -38t55.5 -38t62 -17q46 0 64 25t18 71h112q0 -119 -45.5 -171t-134.5 -52q-43 0 -82 17t-62.5 37t-55 37t-62.5 17q-84 0 -84 -94h-111z" />
<glyph unicode="&#x2dd;" horiz-adv-x="816" d="M139 1272l41 272h185l-117 -272h-109zM401 1272l103 272h194l-182 -272h-115z" />
<glyph unicode="&#x326;" horiz-adv-x="590" d="M145 -428l70 293h188l-133 -293h-125z" />
<glyph unicode="&#x3c0;" horiz-adv-x="1383" d="M125 977v149h1130v-149h-215v-680q0 -79 34 -113t116 -34h31v-150h-33q-168 0 -246 69t-78 220v688h-350v-977h-176v977h-213z" />
<glyph unicode="&#x1e02;" horiz-adv-x="1239" d="M158 0v1464h475q250 0 358.5 -89t108.5 -290q0 -124 -59.5 -212t-159.5 -121q136 -38 200 -125t64 -228q0 -212 -114 -305.5t-361 -93.5h-512zM338 158h326q161 0 229 57.5t68 194.5q0 134 -73 196t-216 62h-334v-510zM338 819h330q127 0 188.5 64t61.5 182 q0 131 -65.5 186.5t-217.5 55.5h-297v-488zM530 1626v176h179v-176h-179z" />
<glyph unicode="&#x1e03;" horiz-adv-x="1205" d="M145 0v1509h177v-483q174 123 340 123q84 0 146 -13t117 -46.5t89 -90t53.5 -146t19.5 -212.5v-160q0 -122 -19.5 -211t-53.5 -145.5t-88.5 -90t-117 -46.5t-146.5 -13q-90 0 -184.5 36.5t-174.5 99.5l-39 -111h-119zM322 260q62 -63 150.5 -99t166.5 -36q99 0 156.5 31 t87.5 111t30 222v148q0 143 -30 222.5t-87 109.5t-157 30q-77 0 -164.5 -34.5t-152.5 -92.5v-612zM580 1288v176h178v-176h-178z" />
<glyph unicode="&#x1e0a;" horiz-adv-x="1282" d="M158 0v1464h442q110 0 191 -13.5t150 -48t112 -93.5t66.5 -150t23.5 -217v-420q0 -126 -23.5 -217t-66.5 -150t-112 -93.5t-150 -48t-191 -13.5h-442zM338 158h258q97 0 162 16t113 55.5t70 109.5t22 175v440q0 90 -16.5 153.5t-45 102.5t-76.5 60.5t-100.5 29 t-128.5 7.5h-258v-1149zM537 1626v176h178v-176h-178z" />
<glyph unicode="&#x1e0b;" horiz-adv-x="1205" d="M113 481v160q0 123 19.5 212.5t54 146t89 90t117 46.5t146.5 13q169 0 340 -123v483h176v-1509h-117l-41 111q-80 -63 -174 -99.5t-184 -36.5q-105 0 -179 21.5t-132 76.5t-86.5 156t-28.5 252zM289 489q0 -107 15.5 -178t50.5 -112t84 -57.5t122 -16.5q78 0 167 36 t151 99v612q-65 58 -153 92.5t-165 34.5q-99 0 -155.5 -30t-86.5 -109.5t-30 -222.5v-148zM475 1288v176h178v-176h-178z" />
<glyph unicode="&#x1e1e;" horiz-adv-x="1065" d="M158 0v1464h790v-157h-610v-488h532v-151h-532v-668h-180zM481 1626v176h178v-176h-178z" />
<glyph unicode="&#x1e1f;" horiz-adv-x="727" d="M68 977v121l149 28v136q0 140 67 208t203 68q98 0 168 -25v-147q-74 18 -139 18q-66 0 -95.5 -31t-29.5 -93v-134h209v-149h-209v-977h-174v977h-149zM365 1649v176h178v-176h-178z" />
<glyph unicode="&#x1e40;" horiz-adv-x="1620" d="M158 0v1464h264l385 -1214h2l385 1214h264v-1464h-178v1239l-397 -1239h-150l-397 1239v-1239h-178zM719 1626v176h178v-176h-178z" />
<glyph unicode="&#x1e41;" horiz-adv-x="1774" d="M145 0v1126h119l39 -110q93 67 176.5 100t175.5 33q193 0 287 -135q188 135 363 135q97 0 160 -21.5t97 -69.5t47 -112t13 -162v-784h-176v784q0 123 -41.5 169t-155.5 46q-62 0 -137 -29.5t-141 -82.5v-887h-176v784q0 124 -40.5 169.5t-152.5 45.5q-66 0 -140 -29 t-140 -83v-887h-177zM801 1288v176h178v-176h-178z" />
<glyph unicode="&#x1e56;" horiz-adv-x="1227" d="M158 0v1464h465q106 0 183 -12.5t139 -43t99.5 -83t57.5 -131t20 -188.5q0 -246 -117 -348.5t-378 -102.5h-289v-555h-180zM338 707h289q174 0 241.5 62.5t67.5 236.5q0 94 -16.5 153t-57 92t-95 44.5t-142.5 11.5h-287v-600zM506 1626v176h178v-176h-178z" />
<glyph unicode="&#x1e57;" horiz-adv-x="1205" d="M145 -383v1509h119l39 -110q80 61 174.5 97t184.5 36q84 0 146 -13t117 -46.5t89 -90t53.5 -146t19.5 -212.5v-160q0 -122 -19.5 -211t-53.5 -145.5t-88.5 -90t-117 -46.5t-146.5 -13q-166 0 -340 123v-481h-177zM322 252q66 -57 153.5 -92t163.5 -35q99 0 156.5 30.5 t87.5 110.5t30 223v148q0 141 -30 220.5t-87.5 110.5t-156.5 31q-78 0 -166.5 -34.5t-150.5 -96.5v-616zM557 1288v176h178v-176h-178z" />
<glyph unicode="&#x1e60;" horiz-adv-x="1215" d="M102 397h179q0 -150 75.5 -206t245.5 -56q181 0 252.5 59.5t71.5 200.5q0 55 -7.5 91.5t-28.5 69.5t-60.5 54.5t-102 39t-154.5 30.5q-245 34 -348.5 127.5t-103.5 279.5q0 195 118.5 297.5t356.5 102.5q249 0 364 -95.5t115 -318.5h-180q0 144 -67 200t-228 56 q-152 0 -225.5 -58t-73.5 -184q0 -85 27 -135t98 -83.5t203 -51.5q191 -25 296 -77.5t144 -132.5t39 -212q0 -219 -121.5 -318.5t-384.5 -99.5q-122 0 -211 20.5t-155.5 67.5t-100 130t-33.5 202zM535 1626v176h178v-176h-178z" />
<glyph unicode="&#x1e61;" horiz-adv-x="1115" d="M102 330h174q0 -112 58.5 -158.5t214.5 -46.5q91 0 149 12t87 38.5t39 58t10 79.5q0 93 -61 133.5t-236 55.5q-230 20 -323 91.5t-93 225.5q0 330 430 330q229 0 330.5 -81.5t101.5 -272.5h-176q0 105 -56 154.5t-200 49.5q-128 0 -191 -42t-63 -138q0 -93 59.5 -134.5 t208.5 -53.5q135 -12 219.5 -33t135.5 -59.5t70.5 -91.5t19.5 -134q0 -43 -4 -76t-15.5 -69.5t-32 -63.5t-55 -52t-82.5 -40.5t-117 -25t-155 -9.5q-130 0 -218.5 23.5t-138 71t-70 109.5t-20.5 149zM477 1288v176h178v-176h-178z" />
<glyph unicode="&#x1e6a;" horiz-adv-x="1037" d="M57 1307v157h918v-157h-369v-1307h-180v1307h-369zM428 1626v176h178v-176h-178z" />
<glyph unicode="&#x1e6b;" horiz-adv-x="750" d="M68 977v123l145 26v275l176 29v-304h254v-149h-254v-713q0 -69 29 -103t96 -34q58 0 152 23v-150q-80 -25 -183 -25q-140 0 -205 70.5t-65 220.5v711h-145zM213 1536v176h178v-176h-178z" />
<glyph unicode="&#x1e80;" horiz-adv-x="1846" d="M78 1464h188l256 -1265h4q42 195 136 618t141 647h233l277 -1265h4q37 185 124 610.5t132 654.5h188l-325 -1464h-240l-276 1272l-279 -1272h-238zM682 1882h199l98 -272h-115z" />
<glyph unicode="&#x1e81;" horiz-adv-x="1649" d="M68 1126h184l217 -942h2l244 942h213l246 -942l219 942h184q-49 -188 -146.5 -562.5t-146.5 -563.5h-215l-246 952l-252 -952h-213zM590 1544h198l99 -272h-115z" />
<glyph unicode="&#x1e82;" horiz-adv-x="1846" d="M78 1464h188l256 -1265h4q42 195 136 618t141 647h233l277 -1265h4q37 185 124 610.5t132 654.5h188l-325 -1464h-240l-276 1272l-279 -1272h-238zM879 1610l96 272h201l-183 -272h-114z" />
<glyph unicode="&#x1e83;" horiz-adv-x="1649" d="M68 1126h184l217 -942h2l244 942h213l246 -942l219 942h184q-49 -188 -146.5 -562.5t-146.5 -563.5h-215l-246 952l-252 -952h-213zM770 1272l96 272h201l-182 -272h-115z" />
<glyph unicode="&#x1e84;" horiz-adv-x="1846" d="M78 1464h188l256 -1265h4q42 195 136 618t141 647h233l277 -1265h4q37 185 124 610.5t132 654.5h188l-325 -1464h-240l-276 1272l-279 -1272h-238zM664 1626v176h178v-176h-178zM995 1626v176h176v-176h-176z" />
<glyph unicode="&#x1e85;" horiz-adv-x="1649" d="M68 1126h184l217 -942h2l244 942h213l246 -942l219 942h184q-49 -188 -146.5 -562.5t-146.5 -563.5h-215l-246 952l-252 -952h-213zM567 1288v176h178v-176h-178zM899 1288v176h176v-176h-176z" />
<glyph unicode="&#x1ef2;" horiz-adv-x="1153" d="M57 1464h199l315 -714h7l315 714h199l-428 -895v-569h-179v569zM344 1882h199l98 -272h-115z" />
<glyph unicode="&#x1ef3;" horiz-adv-x="1119" d="M57 1126h191l309 -909h4l309 909h189l-465 -1280q-52 -144 -130.5 -198t-230.5 -54q-69 0 -124 21v147q55 -18 124 -18q81 0 123.5 33t77.5 127l37 96zM317 1544h199l98 -272h-114z" />
<glyph unicode="&#x2013;" horiz-adv-x="1074" d="M113 563v150h845v-150h-845z" />
<glyph unicode="&#x2014;" horiz-adv-x="1559" d="M135 563v150h1284v-150h-1284z" />
<glyph unicode="&#x2018;" horiz-adv-x="412" d="M113 1464h202v-473h-112z" />
<glyph unicode="&#x2019;" horiz-adv-x="412" d="M113 991v473h202l-90 -473h-112z" />
<glyph unicode="&#x201a;" horiz-adv-x="457" d="M113 225h202l-90 -473h-112v473z" />
<glyph unicode="&#x201c;" horiz-adv-x="695" d="M90 1464h203v-473h-113zM375 1464h203v-473h-113z" />
<glyph unicode="&#x201d;" horiz-adv-x="695" d="M113 991v473h202l-90 -473h-112zM397 991v473h203l-90 -473h-113z" />
<glyph unicode="&#x201e;" horiz-adv-x="744" d="M113 225h202l-90 -473h-112v473zM397 225h203l-90 -473h-113v473z" />
<glyph unicode="&#x2020;" horiz-adv-x="779" d="M102 1169v101h224v239h120v-239h228v-101h-228v-583h-120v583h-224z" />
<glyph unicode="&#x2021;" horiz-adv-x="779" d="M102 823v103h224v243h-224v101h224v239h120v-239h228v-101h-228v-243h228v-103h-228v-237h-120v237h-224z" />
<glyph unicode="&#x2022;" horiz-adv-x="998" d="M129 684v96q0 108 21 177.5t68 109.5t112.5 55t165.5 15t165 -15t112.5 -55t68 -109.5t20.5 -177.5v-96q0 -108 -20.5 -178t-68 -109.5t-112.5 -55t-165 -15.5t-165.5 15.5t-112.5 55t-68 109.5t-21 178z" />
<glyph unicode="&#x2026;" horiz-adv-x="1315" d="M135 0v211h211v-211h-211zM549 0v211h213v-211h-213zM965 0v211h211v-211h-211z" />
<glyph unicode="&#x2030;" horiz-adv-x="1973" d="M113 1159q0 179 72.5 253.5t232.5 74.5q158 0 230.5 -74.5t72.5 -253.5q0 -178 -72.5 -251.5t-230.5 -73.5q-161 0 -233 73t-72 252zM201 0l946 1464h145l-948 -1464h-143zM246 1169q0 -131 37.5 -177t134.5 -46q92 0 131 45.5t39 167.5q0 124 -39 170.5t-131 46.5 q-94 0 -133 -44.5t-39 -162.5zM772 301q0 179 73 253.5t232 74.5q174 0 236 -113q62 113 239 113q158 0 230.5 -74.5t72.5 -253.5q0 -181 -72 -253.5t-231 -72.5q-92 0 -150 25.5t-89 83.5q-31 -58 -89 -83.5t-147 -25.5q-160 0 -232.5 72.5t-72.5 253.5zM905 311 q0 -131 37.5 -178t134.5 -47q92 0 131 45.5t39 169.5q0 123 -39 169t-131 46q-94 0 -133 -44.5t-39 -160.5zM1380 311q0 -131 37.5 -178t134.5 -47q93 0 132.5 46t39.5 169q0 122 -40 168.5t-132 46.5q-94 0 -133 -44.5t-39 -160.5z" />
<glyph unicode="&#x2039;" horiz-adv-x="748" d="M135 563l311 406h162l-313 -406l313 -405h-162z" />
<glyph unicode="&#x203a;" horiz-adv-x="748" d="M135 158l314 405l-314 406h162l311 -406l-311 -405h-162z" />
<glyph unicode="&#x20ac;" horiz-adv-x="1352" d="M102 545v108h142v156h-142v109h142v43q0 287 115 406.5t384 119.5q251 0 365.5 -101.5t114.5 -334.5h-181q0 154 -69 216t-230 62q-176 0 -247.5 -77t-71.5 -279v-55h467l-19 -109h-448v-156h422l-19 -108h-403v-53q0 -204 70 -281.5t249 -77.5q161 0 230 62t69 219h181 q0 -234 -115 -336.5t-365 -102.5q-133 0 -225 27t-154.5 89.5t-91 163.5t-28.5 249v41h-142z" />
<glyph unicode="&#x2122;" horiz-adv-x="1293" d="M98 1389v75h396v-75h-154v-521h-88v521h-154zM573 868v596h129l160 -487l164 487h127v-596h-88v482l-162 -482h-78l-166 482v-482h-86z" />
<glyph unicode="&#x2153;" horiz-adv-x="1467" d="M154 0l970 1464h113l-971 -1464h-112zM166 1368v59l168 37h61v-678h-102v582h-127zM831 207h101q0 -68 30 -98.5t101 -30.5q73 0 105 28t32 93q0 102 -100 102h-94v86h92q41 0 62.5 28t21.5 72q0 61 -28 88t-95 27q-66 0 -94.5 -31t-28.5 -100h-102q0 219 225 219 q118 0 171.5 -50t53.5 -153q0 -92 -80 -139q101 -37 101 -151q0 -104 -57.5 -154.5t-184.5 -50.5q-123 0 -177.5 51.5t-54.5 163.5z" />
<glyph unicode="&#x2154;" horiz-adv-x="1538" d="M158 786v62q0 52 19 94t49.5 70.5t67.5 53t74 46t67.5 43.5t49.5 52t19 65q0 62 -27 87t-94 25q-62 0 -92.5 -26.5t-30.5 -95.5h-102q0 108 53.5 161.5t171.5 53.5q123 0 173 -50t50 -151q0 -65 -34.5 -115t-84.5 -81t-100 -58.5t-86.5 -63.5t-38.5 -81h350v-91h-454z M225 0l971 1464h113l-971 -1464h-113zM903 207h103q0 -69 29 -99t100 -30q74 0 105.5 27.5t31.5 93.5q0 102 -101 102h-94v86h92q41 0 63.5 28.5t22.5 71.5q0 61 -29 88t-96 27q-66 0 -94 -31t-28 -100h-103q0 219 225 219q118 0 172 -50t54 -153q0 -91 -78 -139 q98 -37 98 -151q0 -105 -57 -155t-184 -50q-123 0 -177.5 51.5t-54.5 163.5z" />
<glyph unicode="&#x215b;" horiz-adv-x="1469" d="M154 0l970 1464h113l-971 -1464h-112zM166 1368v59l168 37h61v-678h-102v582h-127zM813 184q0 117 107 164q-89 44 -89 154q0 99 58 143.5t170 44.5t170.5 -44.5t58.5 -143.5q0 -109 -88 -154q107 -46 107 -164q0 -102 -59 -147t-189 -45t-188 45t-58 147zM915 188 q0 -58 34.5 -84t109.5 -26q78 0 111.5 25.5t33.5 84.5q0 115 -129 115h-31q-129 0 -129 -115zM932 494q0 -109 112 -109h31q113 0 113 109q0 61 -30 84.5t-99 23.5q-67 0 -97 -23.5t-30 -84.5z" />
<glyph unicode="&#x215c;" horiz-adv-x="1538" d="M158 993h102q0 -69 29 -99t100 -30q74 0 105.5 27.5t31.5 93.5q0 102 -100 102h-94v87h92q41 0 63.5 28t22.5 70q0 62 -29 89.5t-96 27.5q-66 0 -94.5 -31.5t-28.5 -100.5h-102q0 220 225 220q118 0 171.5 -51t53.5 -154q0 -89 -78 -137q99 -37 99 -152 q0 -104 -57.5 -154.5t-184.5 -50.5q-123 0 -177 51.5t-54 163.5zM223 0l971 1464h113l-971 -1464h-113zM883 184q0 117 106 164q-88 43 -88 154q0 99 57.5 143.5t169.5 44.5t171 -44.5t59 -143.5q0 -109 -88 -154q106 -45 106 -164q0 -102 -59 -147t-189 -45 q-128 0 -186.5 45t-58.5 147zM985 188q0 -58 34 -84t109 -26q78 0 113 26t35 84q0 115 -131 115h-31q-129 0 -129 -115zM1004 494q0 -109 110 -109h31q112 0 112 109q0 61 -30 84.5t-99 23.5q-67 0 -95.5 -23.5t-28.5 -84.5z" />
<glyph unicode="&#x215d;" horiz-adv-x="1541" d="M158 997h102q0 -135 131 -135q74 0 104.5 35t30.5 113q0 74 -31.5 106.5t-93.5 32.5q-67 0 -127 -51h-100l31 366h389v-90h-301l-17 -192q68 43 148 43q100 0 152.5 -49t52.5 -166q0 -119 -56 -177.5t-182 -58.5q-233 0 -233 223zM225 0l971 1464h113l-971 -1464h-113z M885 184q0 117 106 164q-88 43 -88 154q0 99 57.5 143.5t169.5 44.5q113 0 171.5 -44.5t58.5 -143.5q0 -109 -88 -154q106 -45 106 -164q0 -102 -59 -147t-189 -45q-128 0 -186.5 45t-58.5 147zM987 188q0 -58 34 -84t109 -26q78 0 113 26t35 84q0 115 -131 115h-29 q-131 0 -131 -115zM1006 494q0 -109 112 -109h29q113 0 113 109q0 61 -30.5 84.5t-99.5 23.5q-67 0 -95.5 -23.5t-28.5 -84.5z" />
<glyph unicode="&#x215e;" horiz-adv-x="1469" d="M154 0l970 1464h113l-971 -1464h-112zM176 1376v88h436v-71l-235 -605h-109l232 588h-324zM813 184q0 117 107 164q-89 44 -89 154q0 99 58 143.5t170 44.5t170.5 -44.5t58.5 -143.5q0 -109 -88 -154q107 -46 107 -164q0 -102 -59 -147t-189 -45t-188 45t-58 147z M915 188q0 -58 34.5 -84t109.5 -26q78 0 111.5 25.5t33.5 84.5q0 115 -129 115h-31q-129 0 -129 -115zM932 494q0 -109 112 -109h31q113 0 113 109q0 61 -30 84.5t-99 23.5q-67 0 -97 -23.5t-30 -84.5z" />
<glyph unicode="&#x2202;" horiz-adv-x="1162" d="M102 498v120q0 152 25 252t82 160.5t141 85.5t211 25q174 0 268 -78q-42 130 -108 237t-184 234h202q159 -170 232 -386t73 -515v-135q0 -153 -26.5 -253.5t-87 -160t-146 -83.5t-213.5 -24t-212.5 24t-144 83.5t-86 160t-26.5 253.5zM274 489q0 -112 14 -182.5 t50.5 -113t91 -58.5t141.5 -16q118 0 181 31.5t91.5 110.5t28.5 228v138q0 149 -28.5 227.5t-91 109.5t-181.5 31q-88 0 -142 -15.5t-90.5 -58t-50.5 -112.5t-14 -182v-138z" />
<glyph unicode="&#x2212;" horiz-adv-x="1170" d="M125 549v141h915v-141h-915z" />
<glyph unicode="&#x222b;" horiz-adv-x="869" d="M98 -160h129q64 0 92.5 30t28.5 95v1342q0 134 63 191.5t203 57.5h131v-114h-131q-120 0 -120 -127v-1340q0 -135 -63 -192t-204 -57h-129v114z" />
<glyph unicode="&#x2248;" horiz-adv-x="1170" d="M125 297q1 138 63 199t174 61q53 0 104.5 -19.5t92 -47.5t78.5 -56t78.5 -47.5t77.5 -19.5q112 0 112 125h135q-1 -139 -63.5 -199t-175.5 -60q-54 0 -106 19.5t-92 47.5t-77.5 55.5t-77 47t-75.5 19.5q-54 0 -83.5 -32.5t-29.5 -92.5h-135zM125 748q1 139 62.5 199.5 t174.5 60.5q53 0 104.5 -19.5t92 -48t78.5 -56.5t78.5 -47.5t77.5 -19.5q112 0 112 125h135q-1 -138 -63.5 -198t-175.5 -60q-66 0 -130.5 29.5t-107.5 64.5t-95 64.5t-95 29.5q-55 0 -84 -31.5t-29 -92.5h-135z" />
<glyph unicode="&#x2260;" horiz-adv-x="1170" d="M125 324v141h332l108 309h-440v141h485l113 324h137l-110 -324h290v-141h-338l-106 -309h444v-141h-489l-111 -324h-139l111 324h-287z" />
<glyph unicode="&#x2264;" horiz-adv-x="922" d="M135 0v139h647v-139h-647zM135 770l455 457h192l-458 -457l458 -455h-192z" />
<glyph unicode="&#x2265;" horiz-adv-x="922" d="M135 0v139h647v-139h-647zM135 315l457 455l-457 457h191l456 -457l-456 -455h-191z" />
<glyph unicode="&#xe000;" horiz-adv-x="1131" d="M0 0v1126h1126v-1126h-1126z" />
<glyph horiz-adv-x="414" d="M133 1053v456h166l-55 -456h-111z" />
</font>
</defs>
</svg>
