<?xml version="1.0" standalone="no"?>
<!DOCTYPE svg PUBLIC "-//W3C//DTD SVG 1.1//EN" "http://www.w3.org/Graphics/SVG/1.1/DTD/svg11.dtd" >
<svg xmlns="http://www.w3.org/2000/svg">
<metadata></metadata>
<defs>
<font id="rooneybold" horiz-adv-x="1085" >
<font-face units-per-em="2048" ascent="1536" descent="-512" />
<missing-glyph horiz-adv-x="522" />
<glyph horiz-adv-x="0" />
<glyph horiz-adv-x="0" />
<glyph horiz-adv-x="682" />
<glyph unicode="&#xd;" horiz-adv-x="0" />
<glyph unicode=" "  horiz-adv-x="522" />
<glyph unicode="&#x09;" horiz-adv-x="522" />
<glyph unicode="&#xa0;" horiz-adv-x="522" />
<glyph unicode="!" horiz-adv-x="696" d="M174 150q0 75 50.5 125.5t125.5 50.5t123.5 -48.5t48.5 -123.5t-50.5 -126t-125.5 -51t-123.5 49t-48.5 124zM197 1372q0 48 35.5 79.5t115.5 31.5t116 -31.5t36 -79.5q0 -24 -6 -129l-37 -723q-3 -92 -109 -92q-105 0 -108 92l-37 723q-6 105 -6 129z" />
<glyph unicode="&#x22;" horiz-adv-x="866" d="M111 1399q0 42 32.5 69t98.5 27q67 0 100 -27t33 -69q0 -15 -8 -101l-31 -317q-4 -40 -29 -62t-63 -22q-40 0 -65 21t-29 63l-31 317q-8 86 -8 101zM492 1399q0 42 32.5 69t98.5 27q67 0 100 -27t33 -69q0 -15 -8 -101l-31 -317q-4 -40 -29 -62t-63 -22q-40 0 -65.5 21.5 t-29.5 62.5l-30 317q-8 86 -8 101z" />
<glyph unicode="#" horiz-adv-x="1513" d="M47 422q0 42 25 64t69 22h187l110 356h-135q-43 0 -67.5 22t-24.5 64t25 64t69 22h187l83 269q30 94 111 94q54 0 87.5 -27.5t33.5 -71.5q0 -26 -8 -57l-64 -207h264l84 269q30 94 111 94q54 0 87.5 -27.5t33.5 -71.5q0 -26 -8 -57l-64 -207h131q43 0 67.5 -22t24.5 -64 t-25 -64t-69 -22h-182l-113 -356h133q44 0 68.5 -22t24.5 -64t-25.5 -64t-69.5 -22h-184l-84 -268q-30 -95 -111 -95q-54 0 -87 27.5t-33 71.5q0 26 8 57l65 207h-266l-84 -268q-30 -95 -110 -95q-54 0 -87.5 27.5t-33.5 71.5q0 26 8 57l65 207h-135q-43 0 -67.5 22 t-24.5 64zM569 508h267l110 356h-264z" />
<glyph unicode="$" horiz-adv-x="1097" d="M129 944q0 141 95 238.5t268 126.5v202q0 97 90 97t90 -97v-192q206 -10 262 -66q18 -18 24.5 -44t6.5 -93v-18q0 -68 -2 -113q-3 -82 -78 -82q-68 0 -92 82l-37 123q-57 27 -174 27q-191 0 -191 -136q0 -52 34 -92t88 -67t119.5 -52.5t131.5 -57t120 -72t88 -107 t34 -152.5q0 -145 -92 -248t-269 -137v-209q0 -96 -90 -96t-90 96v197q-114 4 -191 25.5t-106 50.5q-18 18 -24.5 44t-6.5 93v29q0 67 2 112q3 82 78 82q65 0 92 -82l43 -135q74 -35 189 -35q202 0 202 158q0 51 -34 90t-88 65.5t-119.5 52t-131 57.5t-119.5 73t-88 108 t-34 154z" />
<glyph unicode="%" horiz-adv-x="1976" d="M80 993q0 178 107.5 288t277.5 110q174 0 270 -98t96 -277q0 -178 -107.5 -288t-277.5 -110q-174 0 -270 98t-96 277zM332 1006q0 -107 35.5 -158t91.5 -51q54 0 87.5 49.5t33.5 157.5q0 107 -35.5 157.5t-91.5 50.5q-54 0 -87.5 -49t-33.5 -157zM526 57q0 27 25 72 l719 1208q37 64 90 64q34 0 59 -23.5t25 -56.5q0 -27 -25 -72l-719 -1208q-37 -64 -90 -64q-34 0 -59 23.5t-25 56.5zM1145 362q0 178 107.5 288t277.5 110q174 0 270 -98t96 -277q0 -177 -107.5 -287t-277.5 -110q-174 0 -270 97.5t-96 276.5zM1397 375q0 -107 35.5 -158 t91.5 -51q54 0 87.5 49.5t33.5 157.5q0 107 -35.5 158t-91.5 51q-54 0 -87.5 -49.5t-33.5 -157.5z" />
<glyph unicode="&#x26;" horiz-adv-x="1640" d="M113 408q0 80 26.5 152.5t64 118.5t75 80t63.5 49l27 15q-84 139 -84 264q0 182 122 295t332 113q147 0 221 -54t74 -126q0 -56 -39.5 -96.5t-97.5 -40.5q-24 0 -48 20t-42.5 43.5t-52 43.5t-74.5 20q-57 0 -89 -38.5t-32 -115.5q0 -304 539 -705q2 19 2 39 q0 169 -84 289q-17 26 -46 53t-43 49t-14 56q0 88 103 88h362q92 0 92 -82q0 -52 -29 -80.5t-85 -28.5h-84l-2 -2q78 -114 78 -262q0 -140 -56 -258q106 -70 211 -131q38 -23 53 -42t15 -48q0 -44 -31 -70t-88 -26q-44 0 -102.5 23.5t-92 43.5t-106.5 66 q-179 -146 -459 -146q-285 0 -432 118.5t-147 312.5zM391 483q0 -137 95.5 -226t254.5 -89q153 0 242 63q-136 87 -285.5 217.5t-236.5 241.5q-3 -2 -7.5 -7t-16.5 -23.5t-21.5 -40t-17 -58.5t-7.5 -78z" />
<glyph unicode="'" horiz-adv-x="485" d="M111 1399q0 42 32.5 69t98.5 27q67 0 100 -27t33 -69q0 -15 -8 -101l-31 -317q-4 -40 -29 -62t-63 -22q-40 0 -65 21t-29 63l-31 317q-8 86 -8 101z" />
<glyph unicode="(" horiz-adv-x="681" d="M123 584q0 261 90 516.5t240 425.5q39 45 90 45q36 0 62 -23.5t26 -56.5q0 -26 -19 -57q-215 -342 -215 -850t215 -850q19 -31 19 -58q0 -32 -26.5 -55.5t-61.5 -23.5q-50 0 -90 45q-150 170 -240 425.5t-90 516.5z" />
<glyph unicode=")" horiz-adv-x="681" d="M51 -324q0 27 19 58q215 342 215 850t-215 850q-19 31 -19 57q0 32 26.5 56t61.5 24q50 0 90 -45q150 -170 240 -425.5t90 -516.5t-90 -516.5t-240 -425.5q-39 -45 -90 -45q-36 0 -62 23t-26 56z" />
<glyph unicode="*" horiz-adv-x="860" d="M102 1010q0 65 68 84l139 39l-139 38q-68 20 -68 84q0 43 30.5 79t68.5 36q32 0 63 -27l105 -102l-33 131q-6 27 -6 47q0 34 27.5 55t72.5 21q46 0 73 -21t27 -59q0 -19 -6 -43l-32 -131l104 100q33 29 63 29q37 0 68 -34t31 -76q0 -65 -68 -84l-139 -39l139 -39 q68 -20 68 -84q0 -43 -30.5 -79t-68.5 -36q-32 0 -63 27l-104 102l32 -131q6 -27 6 -47q0 -34 -27.5 -55t-72.5 -21q-46 0 -73 21t-27 59q0 19 6 43l33 131l-105 -100q-33 -29 -63 -29q-37 0 -68 34.5t-31 76.5z" />
<glyph unicode="+" d="M92 584q0 44 26.5 71t69.5 27h248v238q0 118 107 118q106 0 106 -118v-238h246q44 0 70 -27t26 -71q0 -45 -26 -72t-70 -27h-246v-237q0 -119 -106 -119q-107 0 -107 119v237h-248q-43 0 -69.5 27.5t-26.5 71.5z" />
<glyph unicode="," horiz-adv-x="614" d="M80 -289q0 22 16.5 47.5t39 50.5t50 74t43.5 109q-45 21 -73.5 62t-28.5 102q0 77 51.5 129.5t130.5 52.5q82 0 130 -56t48 -155q0 -133 -80 -264.5t-167 -188.5q-47 -29 -97 -26q-27 2 -45 18t-18 45z" />
<glyph unicode="-" horiz-adv-x="925" d="M117 530q0 121 114 121h486q92 0 92 -88q0 -121 -115 -121h-485q-92 0 -92 88z" />
<glyph unicode="." horiz-adv-x="614" d="M127 156q0 78 52 130t130 52t128 -50t50 -128t-52 -130.5t-130 -52.5t-128 50.5t-50 128.5z" />
<glyph unicode="/" horiz-adv-x="892" d="M-2 -233q0 28 10 59l578 1589q34 90 112 90q52 0 86.5 -30t34.5 -76q0 -29 -10 -60l-578 -1589q-34 -90 -112 -90q-52 0 -86.5 30.5t-34.5 76.5z" />
<glyph unicode="0" horiz-adv-x="1290" d="M92 530q0 121 42.5 226.5t116 180t177.5 117t223 42.5q260 0 403.5 -144.5t143.5 -408.5q0 -121 -42.5 -226.5t-116 -180t-177.5 -117t-223 -42.5q-260 0 -403.5 144.5t-143.5 408.5zM377 541q0 -174 78 -270.5t194 -96.5q118 0 191 91t73 267q0 174 -78 270.5t-194 96.5 q-118 0 -191 -91t-73 -267z" />
<glyph unicode="1" horiz-adv-x="825" d="M37 899q0 36 26 62q37 37 168 81.5t213 44.5q131 0 131 -131v-751l127 -33q50 -13 68 -33t18 -53q0 -38 -27 -62t-73 -24h-524q-46 0 -73.5 24t-27.5 62q0 65 82 84l152 35v637l-125 -17q-32 -4 -51 -4q-39 0 -61.5 21t-22.5 57z" />
<glyph unicode="2" horiz-adv-x="997" d="M55 141q0 43 18.5 74.5t65.5 71.5l168 145q140 122 188 186t48 138q0 62 -42.5 98.5t-123.5 36.5q-59 0 -129 -19.5t-88 -19.5q-35 0 -57.5 22.5t-22.5 59.5q0 35 26 61q41 41 136.5 71t212.5 30q190 0 286.5 -80t96.5 -219q0 -65 -21 -121t-72 -117t-114.5 -118.5 t-171.5 -143.5l-103 -82h349l28 80q28 82 92 82q34 0 55.5 -20.5t22.5 -61.5q2 -55 2 -135v-17q0 -82 -28 -110q-33 -33 -95 -33h-571q-74 0 -115 38t-41 103z" />
<glyph unicode="3" horiz-adv-x="983" d="M47 -133q0 50 30 81.5t75 31.5q25 0 51 -19t47 -41.5t62.5 -41.5t95.5 -19q93 0 149.5 59.5t56.5 159.5q0 111 -83.5 176t-256.5 65q-46 0 -75 32.5t-29 84.5q0 47 31 66q26 16 98 16q128 0 196 58.5t68 156.5q0 73 -50.5 116.5t-137.5 43.5q-59 0 -129 -22.5t-88 -22.5 q-35 0 -57.5 22.5t-22.5 57.5t26 61q46 46 139 76.5t210 30.5q192 0 291.5 -83t99.5 -220q0 -105 -60 -195.5t-157 -126.5v-2q126 -29 200 -116t74 -224q0 -198 -142 -327.5t-380 -129.5q-162 0 -247 57.5t-85 137.5z" />
<glyph unicode="4" horiz-adv-x="1122" d="M39 219q0 63 47 133l391 592q52 78 102.5 108.5t135.5 30.5q172 0 172 -139v-661h112q91 0 91 -90q0 -60 -33 -93.5t-90 -33.5h-80v-175l88 -26q44 -13 61 -31.5t17 -52.5q0 -38 -27.5 -62t-73.5 -24h-426q-46 0 -73 24t-27 62q0 33 18 50.5t62 29.5l106 30v175h-403 q-170 0 -170 153zM270 283h342v522z" />
<glyph unicode="5" horiz-adv-x="985" d="M63 -133q0 52 29.5 82.5t75.5 30.5q24 0 50 -19t48 -41.5t65 -41.5t97 -19q100 0 158.5 60t58.5 167q0 119 -101 188.5t-323 69.5q-52 0 -75 24t-21 70l22 512q6 123 123 123h508q42 0 66 -24.5t24 -69.5q0 -67 -31 -104t-85 -37h-394l-10 -258q277 -7 428.5 -127.5 t151.5 -319.5q0 -198 -145 -329.5t-386 -131.5q-152 0 -243 56.5t-91 138.5z" />
<glyph unicode="6" horiz-adv-x="1163" d="M104 573q0 201 50.5 359.5t141.5 260.5t215 155t273 53q195 0 195 -107q0 -40 -24 -64t-66 -24q-14 0 -44 3t-52 3q-165 0 -265 -104.5t-129 -314.5q4 3 11 8.5t33 19.5t54.5 24.5t75 19.5t95.5 9q185 0 294 -111t109 -302q0 -213 -136 -348.5t-355 -135.5 q-226 0 -351 148t-125 448zM389 610q0 -230 58.5 -336t156.5 -106q80 0 129 64t49 190q0 122 -57.5 187t-153.5 65q-50 0 -95.5 -16t-65.5 -32z" />
<glyph unicode="7" horiz-adv-x="980" d="M49 899v16q0 56 6.5 82.5t22.5 42.5q33 33 94 33h635q160 0 160 -129q0 -56 -54 -149q-49 -87 -64 -114t-55.5 -101.5t-53.5 -103.5t-43 -94t-40.5 -100.5t-28.5 -95t-24.5 -106t-12 -105t-5.5 -118.5q0 -85 -41.5 -133t-116.5 -48q-67 0 -108 42.5t-41 111.5 q0 98 30 211t92.5 245.5t134 259t177.5 298.5h-463l-35 -117q-25 -82 -84 -82q-34 0 -56.5 20.5t-23.5 61.5q-2 66 -2 172z" />
<glyph unicode="8" horiz-adv-x="1132" d="M86 313q0 201 268 361q-117 62 -172 144t-55 196q0 75 33.5 144.5t93 123.5t150.5 86.5t198 32.5q190 0 292.5 -87.5t102.5 -221.5q0 -119 -54.5 -204.5t-158.5 -152.5q135 -71 199 -151.5t64 -198.5q0 -81 -35 -154t-99 -130t-164.5 -90.5t-222.5 -33.5 q-207 0 -323.5 96.5t-116.5 239.5zM354 360q0 -86 58.5 -140t154.5 -54q99 0 153 47t54 131q0 69 -60 126.5t-188 119.5q-84 -58 -128 -112.5t-44 -117.5zM399 1059q0 -74 53.5 -129t157.5 -107q61 48 90 98t29 121q0 78 -44 124t-124 46q-76 0 -119 -41t-43 -112z" />
<glyph unicode="9" horiz-adv-x="1163" d="M92 612q0 213 136.5 348.5t355.5 135.5q227 0 351 -147.5t124 -448.5q0 -202 -51 -360t-144 -260t-221 -155t-285 -53q-194 0 -194 107q0 40 24 64t66 24q15 0 46 -3t50 -3q356 0 414 420q-4 -3 -11 -8.5t-32.5 -20t-54 -25t-75 -19.5t-95.5 -9q-185 0 -294.5 111 t-109.5 302zM381 651q0 -122 57.5 -187t153.5 -65q50 0 95.5 16t66.5 32l20 16q0 230 -58.5 336t-156.5 106q-80 0 -129 -64t-49 -190z" />
<glyph unicode=":" horiz-adv-x="614" d="M127 156q0 78 52 130t130 52t128 -50t50 -128t-52 -130.5t-130 -52.5t-128 50.5t-50 128.5zM127 770q0 78 52 130t130 52t128 -50t50 -128t-52 -130t-130 -52t-128 50t-50 128z" />
<glyph unicode=";" horiz-adv-x="614" d="M80 -289q0 22 16.5 47.5t39 50.5t50 74t43.5 109q-45 21 -73.5 62t-28.5 102q0 77 51.5 129.5t130.5 52.5q82 0 130 -56t48 -155q0 -133 -80 -264.5t-167 -188.5q-47 -29 -97 -26q-27 2 -45 18t-18 45zM127 770q0 78 52 130t130 52t128 -50t50 -128t-52 -130t-130 -52 t-128 50t-50 128z" />
<glyph unicode="&#x3c;" d="M158 584q0 65 65 108l494 324q37 22 65 22q42 0 72.5 -30t30.5 -72q0 -53 -51 -88l-390 -256l396 -262q49 -31 49 -84q0 -42 -33.5 -76.5t-79.5 -34.5q-28 0 -63 21l-490 319q-65 46 -65 109z" />
<glyph unicode="=" d="M113 383q0 45 26.5 71.5t69.5 26.5h665q44 0 70.5 -26.5t26.5 -71.5q0 -44 -26.5 -71t-70.5 -27h-665q-43 0 -69.5 27t-26.5 71zM113 782q0 45 26.5 72t69.5 27h665q44 0 70.5 -26.5t26.5 -72.5q0 -44 -26.5 -70t-70.5 -26h-665q-43 0 -69.5 26t-26.5 70z" />
<glyph unicode="&#x3e;" d="M197 924q0 42 33 76t79 34q31 0 64 -20l489 -320q66 -46 66 -108q0 -65 -66 -109l-493 -323q-39 -23 -66 -23q-42 0 -72 30t-30 72q0 54 51 89l389 256l-395 262q-49 31 -49 84z" />
<glyph unicode="?" horiz-adv-x="808" d="M43 1341q0 35 29 64q37 37 115.5 63.5t181.5 26.5q195 0 296 -85.5t101 -231.5q0 -80 -30 -146.5t-73 -111t-85.5 -84.5t-72.5 -86t-30 -97q0 -41 8.5 -82t8.5 -57q0 -38 -35.5 -62t-104.5 -24q-71 0 -112 49t-41 139q0 68 28.5 128t69.5 103.5t82 85t69.5 91t28.5 102.5 q0 75 -47.5 119.5t-132.5 44.5q-48 0 -98.5 -15t-75.5 -15q-36 0 -58 23t-22 58zM193 150q0 75 50.5 125.5t125.5 50.5t123.5 -48.5t48.5 -123.5t-50.5 -126t-125.5 -51t-123.5 49t-48.5 124z" />
<glyph unicode="@" horiz-adv-x="2123" d="M119 467q0 219 79.5 409t221 326.5t347 214.5t447.5 78q386 0 588.5 -181.5t202.5 -500.5q0 -162 -42.5 -294.5t-115 -218t-167 -131.5t-199.5 -46q-93 0 -154.5 34.5t-83.5 94.5l-4 2q-4 -5 -11 -14t-31.5 -31.5t-53 -40t-75.5 -31.5t-97 -14q-150 0 -240 94.5 t-90 263.5q0 253 150 407t391 154q163 0 254 -57q35 -23 49.5 -49t11.5 -68l-37 -430q-7 -79 12.5 -110t65.5 -31q33 0 63.5 14.5t59.5 48.5t50.5 84.5t34.5 128.5t13 175q0 265 -151 408.5t-439 143.5q-169 0 -315.5 -59.5t-250.5 -164t-163 -253t-59 -321.5 q0 -324 153.5 -483.5t466.5 -159.5q108 0 194.5 18.5t138.5 36.5t75 18q30 0 48 -19.5t18 -49.5q0 -37 -29 -66q-45 -45 -179.5 -85t-303.5 -40q-413 0 -628.5 206t-215.5 589zM911 514q0 -97 40 -146t106 -49q44 0 81 18.5t52 36.5l16 19l37 449q-34 22 -108 22 q-95 0 -159.5 -88.5t-64.5 -261.5z" />
<glyph unicode="A" horiz-adv-x="1484" d="M16 86q0 33 16.5 52t59.5 38l58 25l370 1020q35 95 84.5 131.5t138.5 36.5t139 -36.5t85 -131.5l368 -1020l58 -25q43 -19 59 -38t16 -52q0 -38 -27 -62t-73 -24h-373q-46 0 -73 24t-27 62q0 32 17.5 50t62.5 36l61 25l-59 176h-516l-62 -176l62 -25q45 -18 62.5 -36 t17.5 -50q0 -38 -27.5 -62t-73.5 -24h-323q-46 0 -73.5 24t-27.5 62zM520 553h398l-127 362q-17 50 -34.5 107t-26.5 89l-9 32h-4q-33 -113 -72 -228z" />
<glyph unicode="B" horiz-adv-x="1296" d="M45 86q0 34 17 52.5t61 31.5l96 31v977l-90 28q-46 15 -65 38t-19 61q0 32 23.5 52.5t64.5 20.5h524q259 0 382.5 -91.5t123.5 -248.5q0 -104 -60.5 -180.5t-174.5 -114.5v-4q135 -22 210.5 -101.5t75.5 -197.5q0 -199 -152.5 -319.5t-453.5 -120.5h-463q-46 0 -73 24 t-27 62zM502 188h137q140 0 208 57.5t68 160.5q0 102 -66 155t-212 53h-135v-426zM502 791h123q119 0 180 53.5t61 148.5q0 98 -57 147.5t-182 49.5h-125v-399z" />
<glyph unicode="C" horiz-adv-x="1218" d="M82 645q0 166 54 306.5t149 238t227.5 152.5t286.5 55q219 0 291 -72q21 -21 27.5 -52.5t6.5 -109.5v-28q0 -95 -2 -146q-3 -82 -84 -82q-70 0 -94 80l-57 180q-39 21 -121 21q-171 0 -277 -130t-106 -376q0 -231 112.5 -358t297.5 -127q67 0 122 11t90 22.5t52 11.5 q71 0 71 -80q0 -42 -30 -72q-41 -41 -142 -75.5t-241 -34.5q-290 0 -461.5 177.5t-171.5 487.5z" />
<glyph unicode="D" horiz-adv-x="1458" d="M45 86q0 34 17 52.5t61 31.5l96 31v977l-90 28q-47 15 -65.5 37.5t-18.5 61.5q0 32 23.5 52.5t64.5 20.5h518q364 0 544.5 -166.5t180.5 -484.5q0 -337 -207 -532t-583 -195h-441q-46 0 -73 24t-27 62zM506 203h112q221 0 339 124.5t118 366.5q0 482 -457 482h-112v-973z " />
<glyph unicode="E" horiz-adv-x="1196" d="M45 86q0 34 17 52.5t61 31.5l96 31v977l-90 28q-46 15 -65 38t-19 61q0 32 23.5 52.5t64.5 20.5h825q69 0 101 -32q17 -17 22.5 -41t5.5 -84v-25q0 -64 -2 -111q-3 -81 -84 -81q-70 0 -96 79l-33 101h-366v-400h272l21 54q15 39 35 55t53 16q78 0 78 -90v-252 q0 -90 -78 -90q-32 0 -52.5 17.5t-35.5 56.5l-21 51h-272v-407h393l35 110q23 80 96 80q81 0 84 -82q2 -45 2 -110v-35q0 -59 -6 -83t-23 -42q-33 -33 -100 -33h-842q-46 0 -73 24t-27 62z" />
<glyph unicode="F" horiz-adv-x="1105" d="M45 86q0 34 17 52.5t61 31.5l96 31v977l-90 28q-46 15 -65 38t-19 61q0 32 23.5 52.5t64.5 20.5h813q69 0 101 -32q17 -17 22.5 -41t5.5 -84v-29q0 -70 -2 -111q-3 -82 -84 -82q-70 0 -96 80l-35 103h-352v-410h252l20 57q13 38 34 54t54 16q78 0 78 -90v-258 q0 -90 -78 -90q-33 0 -53 17t-35 57l-20 53h-252v-385l112 -33q44 -12 62 -31t18 -53q0 -38 -27 -62t-73 -24h-453q-46 0 -73 24t-27 62z" />
<glyph unicode="G" horiz-adv-x="1390" d="M82 659q0 219 93.5 386t270.5 259.5t414 92.5q258 0 336 -78q22 -22 28.5 -53.5t6.5 -110.5v-29q0 -90 -2 -139q-3 -82 -82 -82q-70 0 -96 80l-58 176q-49 29 -182 29q-199 0 -313.5 -127.5t-114.5 -370.5q0 -247 123.5 -380.5t339.5 -133.5q39 0 70.5 3t43.5 6l11 3v322 l-154 41q-45 12 -65.5 34t-20.5 60q0 32 23.5 53t64.5 21h340q51 0 74.5 -23.5t23.5 -74.5v-392q0 -59 -16 -93.5t-53 -61.5q-136 -99 -424 -99q-316 0 -499 182.5t-183 499.5z" />
<glyph unicode="H" horiz-adv-x="1564" d="M45 86q0 34 17 52.5t61 31.5l96 31v977l-90 28q-46 15 -65 38t-19 61q0 32 23.5 52.5t64.5 20.5h447q41 0 64.5 -20.5t23.5 -52.5q0 -40 -19 -64.5t-67 -38.5l-78 -24v-377h557v377l-78 24q-48 14 -67 38.5t-19 64.5q0 32 23.5 52.5t64.5 20.5h449q40 0 63 -19.5 t23 -51.5q0 -40 -19 -64t-65 -37l-90 -28v-977l96 -31q45 -13 61.5 -31.5t16.5 -52.5q0 -38 -26.5 -62t-72.5 -24h-424q-46 0 -73 24t-27 62q0 34 17 52.5t61 33.5l86 29v403h-557v-403l86 -29q44 -15 61 -33.5t17 -52.5q0 -38 -27.5 -62t-73.5 -24h-422q-46 0 -73 24 t-27 62z" />
<glyph unicode="I" horiz-adv-x="724" d="M45 86q0 34 17 52.5t61 31.5l96 31v977l-90 28q-46 15 -65 38t-19 61q0 32 23.5 52.5t64.5 20.5h459q41 0 64.5 -20.5t23.5 -52.5q0 -38 -19 -61t-65 -38l-90 -28v-977l96 -31q44 -13 61 -31.5t17 -52.5q0 -38 -27 -62t-73 -24h-435q-46 0 -73 24t-27 62z" />
<glyph unicode="J" horiz-adv-x="667" d="M-39 -285q0 30 15 50.5t49 39.5q80 44 124 117t44 197v1059l-82 26q-45 15 -64.5 38.5t-19.5 62.5q0 32 23.5 52.5t64.5 20.5h442q41 0 63.5 -20.5t22.5 -52.5q0 -39 -18.5 -62.5t-63.5 -38.5l-82 -26v-992q0 -126 -23.5 -219.5t-52.5 -140t-73 -90.5q-55 -55 -123.5 -82 t-130.5 -27q-57 0 -86 24t-29 64z" />
<glyph unicode="K" horiz-adv-x="1425" d="M45 86q0 34 17 52.5t61 31.5l96 31v977l-90 28q-46 15 -65 38t-19 61q0 32 23.5 52.5t64.5 20.5h410q42 0 65 -21t23 -54q0 -36 -21 -60.5t-69 -48.5l-35 -16v-467l446 475l-41 16q-75 28 -75 101q0 33 23 54t65 21h399q41 0 64.5 -20.5t23.5 -52.5q0 -38 -21 -62.5 t-75 -44.5l-62 -22l-442 -451l158 -188q146 -174 224.5 -248t168.5 -119q53 -26 53 -72q0 -47 -49.5 -78.5t-132.5 -31.5q-105 0 -195 56.5t-192 184.5l-340 430v-458l43 -19q47 -20 64.5 -41t17.5 -55q0 -38 -27.5 -62t-73.5 -24h-385q-46 0 -73 24t-27 62z" />
<glyph unicode="L" horiz-adv-x="1093" d="M45 86q0 34 17 52.5t61 31.5l96 31v977l-90 28q-46 15 -65 38t-19 61q0 32 23.5 52.5t64.5 20.5h477q41 0 64.5 -20.5t23.5 -52.5q0 -38 -20.5 -62t-65.5 -37l-106 -30v-973h317l54 166q26 80 92 80q79 0 82 -82q2 -94 2 -174v-35q0 -59 -5.5 -83t-23.5 -42 q-33 -33 -100 -33h-779q-46 0 -73 24t-27 62z" />
<glyph unicode="M" horiz-adv-x="1959" d="M23 86q0 33 16 52t59 38l58 25l110 979l-73 24q-45 15 -64.5 39.5t-19.5 63.5q0 32 23 51.5t63 19.5h366q51 0 79 -20t42 -64l240 -807q16 -52 29 -107t19 -84l5 -28h4q18 104 53 221l240 805q13 44 42.5 64t80.5 20h370q40 0 63 -19.5t23 -51.5q0 -39 -18.5 -62.5 t-65.5 -40.5l-73 -24l110 -979l58 -25q43 -19 59 -38t16 -52q0 -38 -27 -62t-73 -24h-362q-46 0 -73.5 24t-27.5 62q0 31 17 49t65 41l53 25l-57 622l-20 287h-5l-284 -952q-29 -96 -70.5 -132t-120.5 -36q-77 0 -118 36t-70 132l-285 954h-4q-8 -156 -20 -289l-58 -622 l54 -25q47 -22 64 -40.5t17 -49.5q0 -38 -27 -62t-73 -24h-309q-46 0 -73 24t-27 62z" />
<glyph unicode="N" horiz-adv-x="1593" d="M45 86q0 34 17 52.5t61 31.5l96 31v977l-90 28q-46 15 -65 38t-19 61q0 32 23.5 52.5t64.5 20.5h293q56 0 94 -21.5t74 -76.5l440 -682q32 -49 68 -112.5t56 -102.5l20 -39l4 2q-15 144 -15 279l-4 553l-92 28q-45 13 -65.5 37t-20.5 62q0 32 23.5 52.5t64.5 20.5h410 q41 0 63.5 -20.5t22.5 -52.5q0 -39 -18.5 -62.5t-63.5 -38.5l-82 -26v-1022q0 -81 -45 -123.5t-135 -42.5q-127 0 -195 106l-440 682q-32 50 -68 113.5t-56 102.5l-20 38l-4 -2q15 -141 15 -278l4 -551l98 -31q45 -14 62.5 -32t17.5 -52q0 -38 -27 -62t-73 -24h-394 q-46 0 -73 24t-27 62z" />
<glyph unicode="O" horiz-adv-x="1509" d="M82 659q0 223 89 392t247.5 259.5t363.5 90.5q297 0 471 -181.5t174 -502.5q0 -167 -51.5 -305.5t-143.5 -234t-222 -148t-283 -52.5q-297 0 -471 181t-174 501zM383 692q0 -246 106.5 -378t270.5 -132q162 0 264 128.5t102 373.5q0 247 -106 379.5t-270 132.5 q-162 0 -264.5 -129t-102.5 -375z" />
<glyph unicode="P" horiz-adv-x="1204" d="M45 86q0 34 17 52.5t61 31.5l96 31v977l-90 28q-46 15 -65 38t-19 61q0 32 23.5 52.5t64.5 20.5h522q253 0 376.5 -105.5t123.5 -299.5q0 -211 -146 -341t-407 -130h-96v-299l112 -33q44 -12 62 -31t18 -53q0 -38 -27 -62t-73 -24h-453q-48 0 -74 24t-26 62zM506 686h117 q109 0 172 67t63 187t-60.5 182t-176.5 62h-115v-498z" />
<glyph unicode="Q" horiz-adv-x="1509" d="M82 659q0 223 89 392t247.5 259.5t363.5 90.5q297 0 471 -181.5t174 -502.5q0 -282 -139.5 -471.5t-367.5 -243.5q159 -221 536 -250q72 -6 72 -69q0 -50 -66.5 -88.5t-208.5 -38.5q-94 0 -178 23t-160 71.5t-135.5 132.5t-93.5 197q-279 12 -441.5 190.5t-162.5 488.5z M383 692q0 -247 106.5 -379.5t270.5 -132.5q162 0 264 129t102 375q0 247 -106 379.5t-270 132.5q-162 0 -264.5 -129t-102.5 -375z" />
<glyph unicode="R" horiz-adv-x="1370" d="M70 86q0 34 16.5 52.5t60.5 31.5l97 31v977l-90 28q-46 15 -65 38t-19 61q0 32 23.5 52.5t64.5 20.5h544q515 0 515 -377q0 -128 -78 -231.5t-185 -142.5l78 -148q122 -232 275 -309q53 -27 53 -72t-43 -77.5t-131 -32.5q-126 0 -217.5 77t-173.5 259l-109 243h-160v-366 l56 -25q44 -19 62 -39t18 -51q0 -38 -27.5 -62t-73.5 -24h-391q-46 0 -73 24t-27 62zM526 748h144q125 0 187.5 56.5t62.5 162.5q0 217 -250 217h-144v-436z" />
<glyph unicode="S" horiz-adv-x="1140" d="M111 1001q0 86 33 157.5t98 125.5t169.5 84.5t239.5 30.5q236 0 310 -74q21 -21 27.5 -50.5t6.5 -100.5v-25q0 -78 -2 -117q-6 -82 -82 -82q-68 0 -94 80l-49 144q-51 28 -174 28q-98 0 -148.5 -40.5t-50.5 -106.5q0 -46 22 -82t59.5 -61t86 -46t102 -41.5t107.5 -44 t102.5 -56.5t86 -75t59.5 -105t22 -141q0 -188 -142 -305.5t-404 -117.5q-130 0 -218 20.5t-122 54.5q-21 21 -28 51.5t-7 100.5v31q0 79 2 118q6 82 82 82q68 0 94 -80l51 -149q64 -33 197 -33q98 0 154.5 49t56.5 125q0 48 -22 86t-59.5 63.5t-86 47t-102.5 41.5 t-107.5 43t-102 55t-86 73t-59.5 103t-22 139z" />
<glyph unicode="T" horiz-adv-x="1224" d="M31 1186v35q0 60 5.5 84t22.5 41q32 32 101 32h905q68 0 100 -32q17 -18 23 -42t6 -83v-35q0 -84 -2 -162q-3 -82 -82 -82q-69 0 -92 80l-49 158h-213v-979l106 -31q44 -12 62 -31t18 -53q0 -38 -27 -62t-73 -24h-459q-46 0 -73 24t-27 62q0 34 17.5 53t61.5 31l107 31 v979h-213l-49 -158q-23 -80 -92 -80q-79 0 -82 82q-2 78 -2 162z" />
<glyph unicode="U" horiz-adv-x="1449" d="M10 1305q0 32 23.5 52.5t64.5 20.5h432q41 0 64.5 -20.5t23.5 -52.5q0 -39 -19 -62.5t-64 -38.5l-82 -26v-621q0 -189 78.5 -283t218.5 -94q284 0 284 344v654l-82 26q-45 15 -64.5 38.5t-19.5 62.5q0 32 23.5 52.5t64.5 20.5h396q41 0 64.5 -20.5t23.5 -52.5 q0 -71 -82 -101l-74 -26v-623q0 -291 -141 -434.5t-424 -143.5q-282 0 -417.5 134t-135.5 411v656l-74 26q-82 30 -82 101z" />
<glyph unicode="V" horiz-adv-x="1452" d="M16 1305q0 32 23.5 52.5t64.5 20.5h402q41 0 64.5 -20.5t23.5 -52.5q0 -39 -19.5 -62.5t-68.5 -42.5l-55 -20l235 -713q16 -49 31.5 -101.5t22.5 -79.5l8 -28h4q24 98 61 209l236 713l-56 20q-49 19 -68.5 42.5t-19.5 62.5q0 32 23.5 52.5t64.5 20.5h355q41 0 64.5 -20.5 t23.5 -52.5q0 -38 -19 -62.5t-65 -44.5l-49 -20l-359 -1020q-33 -95 -81.5 -131.5t-137.5 -36.5q-88 0 -136 36.5t-81 131.5l-358 1020l-50 20q-46 20 -65 44.5t-19 62.5z" />
<glyph unicode="W" horiz-adv-x="2119" d="M16 1305q0 32 23.5 52.5t64.5 20.5h394q41 0 64.5 -20.5t23.5 -52.5q0 -38 -20 -61t-68 -44l-49 -20l161 -684l54 -256h4q20 139 47 254l170 727q21 93 67 130.5t133 37.5q86 0 134 -37.5t69 -130.5l168 -725q12 -52 24 -116t18 -102l7 -38h4q29 137 56 256l159 684 l-49 20q-48 21 -68 44t-20 61q0 32 23.5 52.5t64.5 20.5h340q41 0 64.5 -20.5t23.5 -52.5q0 -38 -19 -62.5t-65 -44.5l-49 -20l-262 -1022q-25 -92 -77 -129t-142 -37q-87 0 -140 38.5t-75 133.5l-162 702q-10 44 -22 107t-18 104l-7 41h-4q-24 -150 -47 -252l-164 -704 q-21 -92 -75 -131t-142 -39q-91 0 -143.5 38t-77.5 132l-262 1018l-50 20q-46 20 -65 44.5t-19 62.5z" />
<glyph unicode="X" horiz-adv-x="1384" d="M16 86q0 33 16 51.5t62 38.5l56 25l372 499l-352 478l-49 22q-47 22 -65.5 45.5t-18.5 61.5q0 32 23 51.5t65 19.5h422q40 0 63 -19.5t23 -49.5q0 -34 -21 -57.5t-71 -51.5l-27 -14l227 -320l211 320l-26 14q-50 28 -71 51.5t-21 57.5q0 30 23 49.5t63 19.5h340 q42 0 65 -19.5t23 -51.5q0 -38 -19 -61.5t-65 -45.5l-50 -22l-352 -473l373 -504l55 -25q46 -20 62 -38.5t16 -51.5q0 -38 -27 -62t-73 -24h-398q-46 0 -72 23.5t-26 60.5q0 31 18 48.5t60 39.5l41 21l-248 346l-231 -346l41 -21q42 -22 59.5 -39.5t17.5 -48.5 q0 -37 -26 -60.5t-72 -23.5h-315q-46 0 -73.5 24t-27.5 62z" />
<glyph unicode="Y" horiz-adv-x="1351" d="M12 1305q0 32 23.5 52.5t64.5 20.5h428q41 0 64.5 -20.5t23.5 -52.5q0 -39 -20 -63t-70 -44l-45 -18l236 -408h4l225 408l-43 18q-48 20 -68 44.5t-20 62.5q0 32 23.5 52.5t64.5 20.5h348q41 0 64.5 -20.5t23.5 -52.5q0 -38 -20 -63t-64 -44l-49 -20l-387 -637v-340 l103 -31q44 -14 61.5 -32t17.5 -52q0 -38 -27 -62t-73 -24h-450q-46 0 -73.5 24t-27.5 62q0 34 17.5 52t62.5 32l102 31v340l-387 637l-49 20q-46 20 -65 44.5t-19 62.5z" />
<glyph unicode="Z" horiz-adv-x="1132" d="M82 150q0 63 53 143l582 891h-400l-49 -152q-14 -42 -34.5 -61t-55.5 -19q-79 0 -82 82q-2 72 -2 158v25q0 62 5.5 86.5t23.5 42.5q32 32 100 32h641q85 0 127.5 -38.5t42.5 -110.5q0 -64 -53 -144l-582 -890h418l53 163q26 80 93 80q78 0 81 -82q3 -108 3 -161v-31 q0 -62 -6 -88t-23 -43q-33 -33 -100 -33h-666q-85 0 -127.5 39t-42.5 111z" />
<glyph unicode="[" horiz-adv-x="659" d="M154 -252v1671q0 103 102 103h246q41 0 64.5 -21t23.5 -53q0 -37 -19.5 -59t-66.5 -35l-103 -29v-1485l109 -28q44 -12 62 -30t18 -50q0 -38 -27.5 -62t-73.5 -24h-233q-102 0 -102 102z" />
<glyph unicode="\" horiz-adv-x="872" d="M63 1399q0 44 34.5 75t86.5 31q79 0 113 -92l577 -1587q11 -34 11 -62q0 -44 -34.5 -75t-86.5 -31q-79 0 -113 92l-577 1587q-11 34 -11 62z" />
<glyph unicode="]" horiz-adv-x="659" d="M70 -281q0 37 19.5 59.5t66.5 35.5l102 28v1485l-108 29q-44 12 -62 30t-18 50q0 38 27 62t73 24h233q103 0 103 -103v-1671q0 -102 -103 -102h-245q-41 0 -64.5 20.5t-23.5 52.5z" />
<glyph unicode="^" d="M109 795q0 28 16 55l289 465q28 45 57.5 64.5t71.5 19.5q43 0 72.5 -19t58.5 -65l287 -463q16 -27 16 -51q1 -43 -33 -73t-80 -30q-58 0 -90 52l-237 376l-238 -378q-33 -50 -84 -50q-44 0 -75 27t-31 70z" />
<glyph unicode="_" d="M0 -428q0 56 29.5 86.5t85.5 30.5h878q92 0 92 -84q0 -56 -29 -86.5t-85 -30.5h-879q-92 0 -92 84z" />
<glyph unicode="`" horiz-adv-x="1024" d="M305 1411q0 50 46 93.5t98 43.5q42 0 73 -45l176 -237q23 -30 23 -54q0 -35 -25.5 -59.5t-58.5 -24.5q-26 0 -57 25l-234 186q-41 33 -41 72z" />
<glyph unicode="a" horiz-adv-x="1148" d="M86 279q0 130 116 208t345 78q38 0 75.5 -2.5t55.5 -4.5l18 -3v66q0 122 -42.5 169.5t-149.5 47.5q-69 0 -127.5 -11t-96.5 -22.5t-55 -11.5q-35 0 -57.5 22.5t-22.5 58.5q0 33 27 60q41 41 151 73.5t248 32.5q216 0 310 -84t94 -268q0 -36 -1 -144q-1 -54 -1 -100t1 -84 q2 -77 7 -161l78 -13q40 -6 57 -25t17 -55q0 -33 -18.5 -53.5t-57.5 -34.5q-94 -32 -199 -32q-71 0 -104 33t-33 100v10l-4 2q-3 -6 -9.5 -16.5t-31.5 -36.5t-56 -45.5t-85.5 -36t-116.5 -16.5q-147 0 -239.5 86t-92.5 213zM375 303q0 -51 39 -85t102 -34q51 0 95.5 18.5 t63.5 37.5l19 18v139q-45 13 -125 13q-194 0 -194 -107z" />
<glyph unicode="b" horiz-adv-x="1196" d="M-12 1370q0 37 17 56.5t58 31.5q101 29 201 29q91 0 125.5 -34.5t34.5 -125.5v-256q0 -79 -14 -172l4 -2q3 6 10 15.5t32.5 34t57 43.5t86.5 34.5t117 15.5q186 0 291.5 -123.5t105.5 -365.5q0 -272 -151 -423t-426 -151q-204 0 -308 58q-45 24 -64.5 53.5t-19.5 79.5 v1100l-82 18q-41 9 -58 28.5t-17 55.5zM424 213q6 -4 18 -10.5t52 -17.5t84 -11q249 0 249 344q0 160 -57.5 236.5t-153.5 76.5q-35 0 -67.5 -10t-54 -24t-38.5 -28t-24 -24l-8 -10v-522z" />
<glyph unicode="c" horiz-adv-x="974" d="M82 469q0 258 153.5 415.5t399.5 157.5q162 0 223 -61q18 -18 24.5 -44.5t6.5 -94.5v-19q0 -55 -2 -114q-1 -41 -23 -61.5t-57 -20.5q-63 0 -90 82l-41 129q-23 10 -66 10q-109 0 -176 -86.5t-67 -257.5q0 -161 72 -242.5t202 -81.5q55 0 112.5 15.5t69.5 15.5 q33 0 51.5 -19.5t18.5 -54.5q0 -38 -31 -69q-38 -38 -115 -64.5t-182 -26.5q-225 0 -354 131t-129 361z" />
<glyph unicode="d" horiz-adv-x="1228" d="M82 469q0 272 151 422.5t426 150.5q29 0 57.5 -3t41.5 -6l14 -3l4 4q-4 58 -4 105v129l-94 20q-41 9 -58.5 28t-17.5 54q0 36 17 56t59 32q103 29 213 29q91 0 125.5 -34.5t34.5 -125.5v-1126l84 -15q41 -7 57 -25.5t16 -54.5q0 -62 -75 -88q-94 -32 -195 -32 q-71 0 -104 33t-33 100v26l-4 2q-3 -7 -9.5 -18t-32.5 -40t-58.5 -51t-91 -40t-126.5 -18q-186 0 -291.5 123.5t-105.5 365.5zM369 502q0 -160 57.5 -237t153.5 -77q35 0 67.5 10t54.5 24.5t38.5 28.5t23.5 24l8 10v522q-6 4 -18 10.5t-52 17.5t-84 11q-249 0 -249 -344z " />
<glyph unicode="e" horiz-adv-x="1089" d="M82 483q0 258 142 408.5t372 150.5q193 0 300.5 -110t107.5 -311q0 -77 -37 -116.5t-105 -39.5h-502q14 -139 92.5 -212t215.5 -73q72 0 140 18.5t83 18.5q33 0 51.5 -19.5t18.5 -54.5q0 -38 -31 -69q-39 -39 -127.5 -68t-212.5 -29q-243 0 -375.5 132t-132.5 374z M365 623h366q-3 116 -48 171.5t-122 55.5q-79 0 -130.5 -60t-65.5 -167z" />
<glyph unicode="f" horiz-adv-x="751" d="M41 911q0 50 30 79.5t85 29.5h55v47q0 205 113.5 316.5t324.5 111.5q127 0 168 -41q17 -17 24 -41.5t7 -85.5v-16q0 -43 -2 -88q-1 -37 -22 -56.5t-56 -19.5t-55.5 19t-34.5 61l-25 73q-14 7 -43 7q-61 0 -91 -37.5t-30 -122.5v-127h146q92 0 92 -82q0 -52 -29.5 -80.5 t-85.5 -28.5h-123v-632l99 -27q44 -12 61 -31t17 -53q0 -38 -27.5 -62t-73.5 -24h-420q-46 0 -73 24t-27 62q0 34 17 52.5t61 31.5l88 27v632h-78q-92 0 -92 82z" />
<glyph unicode="g" horiz-adv-x="1089" d="M49 -197q0 78 46.5 141t119.5 103q-74 53 -74 146q0 56 31.5 106t83.5 84q-63 37 -102 106t-39 162q0 173 123.5 281t339.5 108q46 0 85.5 -5t55.5 -10l16 -5q64 101 115 151t108 50q46 0 78.5 -30t32.5 -71q0 -37 -24.5 -62.5t-76 -58.5t-81.5 -61q94 -83 94 -231 q0 -173 -123.5 -281.5t-339.5 -108.5q-27 0 -58 2.5t-48 5.5l-17 3q-20 -25 -20 -64t38 -59.5t140 -20.5h102q404 0 404 -284q0 -74 -37 -143.5t-105.5 -125.5t-176.5 -89.5t-238 -33.5q-229 0 -341 81.5t-112 213.5zM317 -141q0 -158 232 -158q108 0 169.5 48.5t61.5 115.5 q0 60 -40.5 89.5t-137.5 29.5h-84q-44 0 -82 3t-54 6l-17 3q-5 -7 -13 -19t-21.5 -47.5t-13.5 -70.5zM393 682q0 -77 44.5 -123.5t113.5 -46.5q67 0 109 44.5t42 119.5q0 77 -44 123.5t-113 46.5q-67 0 -109.5 -44.5t-42.5 -119.5z" />
<glyph unicode="h" horiz-adv-x="1296" d="M23 1370q0 37 17 56.5t58 31.5q102 29 201 29q91 0 125.5 -34.5t34.5 -125.5v-256q0 -73 -15 -172l5 -2q3 6 10 15.5t32.5 34t57 43.5t86.5 34.5t117 15.5q178 0 274 -100.5t96 -292.5v-450l78 -25q42 -13 59 -32.5t17 -53.5q0 -38 -27 -62t-73 -24h-381q-46 0 -73.5 24 t-27.5 62q0 34 17 53.5t59 32.5l74 25v385q0 133 -48 191t-145 58q-35 0 -67.5 -10t-54 -24t-38.5 -28t-25 -24l-7 -10v-538l73 -25q42 -13 59 -32.5t17 -53.5q0 -38 -27 -62t-73 -24h-381q-46 0 -73 24t-27 62q0 34 15.5 53t53.5 31l84 27v1071l-82 18q-41 9 -58 28.5 t-17 55.5z" />
<glyph unicode="i" horiz-adv-x="669" d="M41 918q0 36 17 56t59 32q100 28 213 28q91 0 125 -34.5t34 -125.5v-677l84 -25q38 -10 54 -28.5t16 -49.5q0 -42 -27.5 -68t-74.5 -26h-396q-46 0 -73 24t-27 62q0 34 17 52.5t61 31.5l88 27v618l-94 21q-41 9 -58.5 28t-17.5 54zM174 1296q0 74 49 123t123 49t121 -47 t47 -121t-49 -123t-123 -49t-121 47t-47 121z" />
<glyph unicode="j" horiz-adv-x="604" d="M-29 -395q0 30 13.5 47.5t48.5 38.5q46 27 75 59t50.5 98.5t21.5 161.5v805l-82 19q-41 9 -58 28.5t-17 55.5q0 37 17 56.5t58 31.5q98 28 201 28q91 0 125.5 -34.5t34.5 -125.5v-796q0 -303 -137 -443q-54 -54 -121 -83t-129 -29q-50 0 -75.5 23t-25.5 59zM147 1296 q0 72 49 121t121 49t119 -47t47 -119t-49 -121t-121 -49t-119 47t-47 119z" />
<glyph unicode="k" horiz-adv-x="1212" d="M23 1370q0 37 17 56.5t58 31.5q102 29 201 29q91 0 125.5 -34.5t34.5 -125.5v-758l282 265l-36 20q-58 34 -58 92q0 33 23 53.5t63 20.5h354q42 0 65.5 -20.5t23.5 -53.5q0 -36 -20.5 -59.5t-68.5 -44.5l-53 -23l-284 -248l112 -145q141 -182 287 -262q47 -25 47 -68 q0 -45 -45 -76.5t-125 -31.5q-101 0 -182.5 51t-163.5 168l-221 315v-325l35 -17q45 -21 59 -40t14 -54q0 -37 -28.5 -61.5t-75.5 -24.5h-336q-46 0 -73 24t-27 62q0 34 15.5 53t53.5 31l84 27v1071l-82 18q-41 9 -58 28.5t-17 55.5z" />
<glyph unicode="l" horiz-adv-x="638" d="M23 1370q0 37 17 56.5t58 31.5q102 29 201 29q91 0 125.5 -34.5t34.5 -125.5v-1130l78 -25q42 -13 58.5 -32.5t16.5 -53.5q0 -38 -27 -62t-73 -24h-385q-46 0 -73 24t-27 62q0 34 15.5 53t53.5 31l84 27v1071l-82 18q-41 9 -58 28.5t-17 55.5z" />
<glyph unicode="m" horiz-adv-x="1966" d="M41 918q0 36 17 56t59 32q100 28 205 28q76 0 107.5 -30.5t31.5 -102.5v-27l4 -2l5 10t15 23.5t27 33t41.5 35t56.5 33.5t73.5 23.5t92.5 9.5q229 0 320 -174q3 7 10.5 19t35 42t61.5 52.5t94.5 41.5t129.5 19q174 0 269.5 -101t95.5 -292v-450l78 -25q42 -13 59 -32.5 t17 -53.5q0 -38 -27.5 -62t-73.5 -24h-375q-46 0 -73 24t-27 62q0 34 16.5 52.5t59.5 33.5l67 25v385q0 132 -46.5 190.5t-139.5 58.5q-34 0 -66.5 -10.5t-54 -25.5t-38 -30t-24.5 -25l-7 -11q4 -31 4 -82v-450l67 -25q43 -15 59.5 -33.5t16.5 -52.5q0 -38 -27 -62t-73 -24 h-365q-46 0 -73 24t-27 62q0 34 16.5 52.5t59.5 33.5l67 25v385q0 132 -46.5 190.5t-139.5 58.5q-53 0 -99.5 -24t-66.5 -48l-21 -24v-538l68 -25q43 -15 59.5 -33.5t16.5 -52.5q0 -38 -27.5 -62t-73.5 -24h-387q-46 0 -73 24t-27 62q0 34 17 52.5t61 31.5l88 27v618l-94 21 q-41 9 -58.5 28t-17.5 54z" />
<glyph unicode="n" horiz-adv-x="1327" d="M41 918q0 36 17 56t59 32q100 28 205 28q76 0 107.5 -30.5t31.5 -102.5v-27l4 -2q3 7 9.5 18t32 40t58 51.5t91 40.5t126.5 18q178 0 274.5 -100.5t96.5 -292.5v-450l78 -25q42 -13 59 -32.5t17 -53.5q0 -38 -27.5 -62t-73.5 -24h-381q-46 0 -73 24t-27 62q0 34 17 53.5 t59 32.5l73 25v385q0 133 -47.5 191t-144.5 58q-35 0 -68 -10t-54.5 -24t-38 -28t-24.5 -24l-8 -10v-538l74 -25q42 -13 59 -32.5t17 -53.5q0 -38 -27 -62t-73 -24h-394q-46 0 -73 24t-27 62q0 34 17 52.5t61 31.5l88 27v618l-94 21q-41 9 -58.5 28t-17.5 54z" />
<glyph unicode="o" horiz-adv-x="1208" d="M82 481q0 253 152 407t399 154q231 0 362 -133t131 -370q0 -255 -149 -408.5t-402 -153.5q-231 0 -362 133.5t-131 370.5zM369 514q0 -166 67.5 -253t171.5 -87t168 83t64 249q0 165 -68 252.5t-172 87.5t-167.5 -83t-63.5 -249z" />
<glyph unicode="p" horiz-adv-x="1228" d="M20 918q0 36 17 56t59 32q98 28 197 28q73 0 104 -30.5t31 -102.5v-27l4 -2l5 10t15.5 23.5t28 33t42 35t57.5 33.5t75.5 23.5t94.5 9.5q186 0 291.5 -123.5t105.5 -365.5q0 -272 -151.5 -423t-426.5 -151q-29 0 -57 3.5t-42 6.5l-13 3l-4 -4q4 -58 4 -105v-153l88 -27 q44 -13 61 -31.5t17 -52.5q0 -38 -27.5 -62t-73.5 -24h-397q-46 0 -73 24t-27 62q0 34 15.5 53t53.5 31l84 27v1087l-82 19q-41 9 -58.5 28.5t-17.5 55.5zM457 213q6 -4 17.5 -10.5t51.5 -17.5t84 -11q250 0 250 344q0 160 -57.5 236.5t-153.5 76.5q-35 0 -67.5 -10t-54 -24 t-38.5 -28t-25 -24l-7 -10v-522z" />
<glyph unicode="q" horiz-adv-x="1196" d="M82 469q0 272 151 422.5t426 150.5q206 0 308 -57q45 -24 64.5 -53.5t19.5 -79.5v-1124l77 -25q42 -13 59 -32.5t17 -53.5q0 -38 -27 -62t-73 -24h-397q-46 0 -73.5 24t-27.5 62q0 34 17 52.5t61 31.5l88 27v221q0 79 14 172l-4 2q-3 -6 -10 -15.5t-32.5 -34t-57 -43.5 t-86.5 -34.5t-117 -15.5q-186 0 -291.5 123.5t-105.5 365.5zM369 502q0 -160 57.5 -237t153.5 -77q35 0 67.5 10t54.5 24.5t38.5 28.5t23.5 24l8 10v522q-6 4 -18 10.5t-52 17.5t-84 11q-249 0 -249 -344z" />
<glyph unicode="r" horiz-adv-x="872" d="M41 918q0 36 17 56t59 32q100 28 205 28q76 0 107.5 -30.5t31.5 -102.5v-57l4 -2q42 96 114 150.5t160 54.5q54 0 82.5 -29t28.5 -82q0 -84 -32 -132t-73 -48q-19 0 -46.5 12t-49.5 12q-95 0 -160 -82v-501l99 -27q44 -12 61 -31t17 -53q0 -38 -27.5 -62t-73.5 -24h-420 q-46 0 -73 24t-27 62q0 34 17 52.5t61 31.5l88 27v618l-94 21q-41 9 -58.5 28t-17.5 54z" />
<glyph unicode="s" horiz-adv-x="985" d="M102 731q0 137 113.5 224t333.5 87q112 0 178.5 -18t91.5 -43q17 -17 24 -40t7 -67v-10q0 -55 -2 -86q-6 -76 -82 -76q-34 0 -54 18t-34 58l-21 60q-59 22 -141 22q-80 0 -111.5 -23.5t-31.5 -66.5q0 -33 29 -58t75.5 -43t102.5 -36t112 -44t102.5 -60t75.5 -91.5 t29 -132.5q0 -142 -120.5 -235t-348.5 -93q-117 0 -189.5 20.5t-97.5 45.5q-17 17 -23.5 40t-6.5 67v14q0 55 2 86q6 76 82 76q34 0 54 -18t34 -58l22 -64q60 -26 158 -26q164 0 164 106q0 32 -22.5 56.5t-59.5 40.5t-84.5 34t-97 34t-97 42.5t-84.5 58.5t-59.5 83.5 t-22.5 115.5z" />
<glyph unicode="t" horiz-adv-x="751" d="M10 911q0 50 30 79.5t85 29.5h55l37 145q17 68 49 98.5t90 30.5q46 0 71.5 -24t25.5 -68v-182h176q92 0 92 -82q0 -52 -29.5 -80.5t-85.5 -28.5h-153v-464q0 -94 27 -135.5t83 -41.5q28 0 61.5 6.5t45.5 6.5q28 0 44.5 -18t16.5 -50q0 -43 -35 -78q-25 -25 -84 -46 t-149 -21q-151 0 -220 81.5t-69 235.5v524h-70q-94 0 -94 82z" />
<glyph unicode="u" horiz-adv-x="1292" d="M16 918q0 36 17 56t59 32q98 28 201 28q91 0 125.5 -34.5t34.5 -125.5v-446q0 -129 45.5 -184.5t140.5 -55.5q36 0 69 10t55 24.5t38.5 28.5t24.5 24l8 10v530l-95 21q-41 9 -58 28t-17 54q0 37 17 56.5t58 31.5q100 28 213 28q91 0 125.5 -34.5t34.5 -125.5v-673l84 -15 q41 -7 57.5 -25.5t16.5 -54.5q0 -33 -18.5 -53.5t-57.5 -34.5q-94 -32 -195 -32q-71 0 -104 33t-33 100v26l-4 2q-3 -7 -9.5 -18t-32.5 -40t-58.5 -51t-91 -40t-127.5 -18q-176 0 -270.5 97t-94.5 285v453l-82 19q-41 9 -58.5 28.5t-17.5 55.5z" />
<glyph unicode="v" horiz-adv-x="1222" d="M16 946q0 33 23 53.5t65 20.5h353q42 0 65 -20.5t23 -53.5q0 -35 -18.5 -57t-67.5 -45l-35 -17l149 -395l64 -190h4q25 90 64 194l147 391l-35 17q-49 23 -67.5 45t-18.5 57q0 33 23 53.5t65 20.5h299q42 0 65 -20.5t23 -53.5q0 -74 -84 -108l-35 -15l-272 -665 q-40 -98 -82 -133t-123 -35t-122.5 35t-81.5 133l-271 665l-35 15q-84 34 -84 108z" />
<glyph unicode="w" horiz-adv-x="1779" d="M16 946q0 33 23 53.5t65 20.5h351q42 0 65 -20.5t23 -53.5q0 -35 -18.5 -57t-67.5 -45l-35 -17l110 -385q14 -45 26.5 -96t17.5 -80l6 -28h4q14 104 37 204l96 414q23 96 69 135t132 39q85 0 130 -37.5t66 -132.5l98 -418q11 -48 20.5 -99t13.5 -78l3 -27h4q19 98 50 204 l110 385l-35 17q-49 23 -67.5 45t-18.5 57q0 33 23 53.5t65 20.5h293q42 0 65 -20.5t23 -53.5q0 -74 -84 -108l-34 -15l-218 -665q-32 -96 -75.5 -132t-126.5 -36q-84 0 -128 36.5t-67 131.5l-104 442q-11 44 -20 93t-12 75l-3 27h-4q-10 -95 -35 -199l-104 -438 q-22 -93 -67 -130.5t-122 -37.5q-89 0 -133 35.5t-76 132.5l-215 665l-35 15q-84 34 -84 108z" />
<glyph unicode="x" horiz-adv-x="1202" d="M18 86q0 33 16 52.5t54 37.5l45 21l289 315l-277 309l-36 17q-42 20 -60 45.5t-18 62.5q0 33 23 53.5t65 20.5h364q42 0 65 -20.5t23 -53.5q0 -28 -12 -48.5t-37 -43.5l-20 -18l157 -183l138 183l-21 18q-25 23 -37 43.5t-12 48.5q0 33 23 53.5t65 20.5h268 q42 0 65 -20.5t23 -53.5q0 -38 -17.5 -63t-59.5 -45l-37 -17l-279 -299l291 -325l45 -21q39 -18 54.5 -37.5t15.5 -52.5q0 -38 -27.5 -62t-73.5 -24h-354q-46 0 -73 24t-27 62q0 26 13.5 43.5t49.5 42.5l19 12l-170 197l-148 -197l19 -12q36 -25 49.5 -42.5t13.5 -43.5 q0 -38 -27 -62t-73 -24h-256q-46 0 -73.5 24t-27.5 62z" />
<glyph unicode="y" horiz-adv-x="1222" d="M16 946q0 33 23 53.5t65 20.5h353q42 0 65 -20.5t23 -53.5q0 -35 -18.5 -57t-67.5 -45l-35 -17l149 -395l64 -190h4q25 90 64 194l147 391l-35 17q-49 23 -67.5 45t-18.5 57q0 33 23 53.5t65 20.5h299q42 0 65 -20.5t23 -53.5q0 -74 -84 -108l-35 -15l-282 -692 q-61 -149 -125 -260t-121.5 -177t-120 -106.5t-116 -54.5t-113.5 -14q-89 0 -137.5 37.5t-48.5 105.5q0 57 29 92t71 35q28 0 72 -11t88 -11q72 0 121 42.5t90 133.5l-359 880l-35 15q-84 34 -84 108z" />
<glyph unicode="z" horiz-adv-x="1009" d="M92 139q0 36 14 66.5t54 81.5l438 549h-293l-33 -101q-26 -82 -90 -82q-34 0 -55.5 20.5t-22.5 61.5q-2 51 -2 125v17q0 81 29 110q33 33 94 33h523q77 0 118 -37.5t41 -101.5q0 -37 -13.5 -67t-53.5 -81l-439 -549h308l39 115q15 43 36 62.5t54 19.5t54.5 -20.5 t22.5 -61.5q3 -99 3 -139v-17q0 -81 -29 -110q-33 -33 -94 -33h-543q-77 0 -118.5 37.5t-41.5 101.5z" />
<glyph unicode="{" horiz-adv-x="776" d="M51 590q0 33 17.5 59.5t48.5 36.5q44 15 69.5 38.5t41.5 80.5t16 153v154q0 214 87 316t247 102h6q135 0 135 -90q0 -84 -96 -84h-13q-58 0 -80 -36.5t-22 -145.5v-154q0 -131 -21.5 -219t-56 -132t-88.5 -73v-4q82 -43 124 -132t42 -259v-197q0 -112 26.5 -152t86.5 -40 h12q86 0 86 -76q0 -44 -38.5 -71t-111.5 -27h-6q-156 0 -237.5 96t-81.5 311v217q0 111 -30.5 160.5t-96.5 71.5q-66 21 -66 96z" />
<glyph unicode="|" horiz-adv-x="663" d="M211 -371v1745q0 58 31.5 89.5t89.5 31.5t89.5 -31.5t31.5 -89.5v-1745q0 -59 -31.5 -90t-89.5 -31t-89.5 31t-31.5 90z" />
<glyph unicode="}" horiz-adv-x="772" d="M57 -272q0 84 97 84h12q58 0 80 36.5t22 145.5v166q0 181 42 272.5t124 134.5v4q-82 43 -124 135t-42 273v184q0 112 -26 152.5t-86 40.5h-13q-86 0 -86 76q0 44 38.5 71t111.5 27h6q153 0 234 -96.5t81 -311.5v-202q0 -113 30.5 -162.5t96.5 -71.5q66 -21 66 -96 q0 -33 -17.5 -59.5t-48.5 -36.5q-67 -22 -97 -78t-30 -195v-166q0 -214 -86 -315.5t-243 -101.5h-6q-136 0 -136 90z" />
<glyph unicode="~" d="M90 518q0 20 10 43q39 84 114 135.5t167 51.5q53 0 104 -20.5t84 -44.5t73.5 -44.5t74.5 -20.5q68 0 127 91q18 30 57 30t66.5 -25t27.5 -63q0 -20 -10 -43q-39 -84 -113.5 -135t-166.5 -51q-53 0 -104 20t-84 44.5t-73.5 44.5t-74.5 20q-69 0 -127 -90q-19 -31 -58 -31 t-66.5 25t-27.5 63z" />
<glyph unicode="&#xa1;" horiz-adv-x="643" d="M147 920q0 75 51 125.5t126 50.5t123.5 -48.5t48.5 -123.5t-51 -125.5t-126 -50.5t-123.5 48.5t-48.5 123.5zM170 -299q0 24 6 129l37 723q3 92 109 92q105 0 108 -92l37 -723q6 -105 6 -129q0 -48 -35.5 -79.5t-115.5 -31.5t-116 31.5t-36 79.5z" />
<glyph unicode="&#xa2;" horiz-adv-x="1013" d="M74 594q0 183 114 322t301 182v207q0 96 91 96q90 0 90 -96v-191q168 -6 223 -61q18 -18 24.5 -42.5t6.5 -84.5v-19q0 -63 -2 -116q-1 -41 -23 -61.5t-57 -20.5q-66 0 -90 82l-37 120q-27 13 -86 13q-129 0 -204 -77t-75 -222q0 -137 82.5 -219t220.5 -82q72 0 134 16 t71 16q33 0 51.5 -19.5t18.5 -55.5q0 -37 -31 -68q-67 -67 -229 -86v-193q0 -96 -90 -96q-91 0 -91 96v195q-198 23 -305.5 146.5t-107.5 318.5z" />
<glyph unicode="&#xa3;" horiz-adv-x="1056" d="M72 668q0 47 30 76.5t84 29.5h37q-43 127 -43 219q0 80 34 152t94.5 127t151.5 87t199 32q131 0 206 -50.5t75 -119.5q0 -54 -38 -90.5t-89 -36.5q-21 0 -39 11.5t-32.5 28t-31 33t-43 28t-59.5 11.5q-72 0 -115.5 -42.5t-43.5 -116.5q0 -50 11.5 -99.5t29 -99.5 t22.5 -74h223q88 0 88 -76q0 -48 -29.5 -77t-84.5 -29h-185q-13 -109 -61.5 -197.5t-134.5 -183.5l2 -2h463l41 137q24 82 86 82q34 0 56 -20.5t23 -61.5q2 -100 2 -186v-17q0 -82 -28 -110q-33 -33 -94 -33h-621q-172 0 -172 139q0 33 15 62.5t55 85.5q38 54 57.5 87.5 t37 93.5t13.5 124h-104q-88 0 -88 76z" />
<glyph unicode="&#xa4;" horiz-adv-x="1124" d="M92 283q0 37 35 69l102 92q-77 90 -77 240q0 155 88 262l-113 103q-33 30 -33 67q0 42 40.5 83.5t86.5 41.5q50 0 78 -47l84 -137q86 39 201 39q93 0 170 -29l80 129q28 47 77 47q47 0 84 -35.5t37 -79.5q0 -37 -35 -69l-102 -92q78 -91 78 -240q0 -155 -88 -262 l112 -103q33 -30 33 -67q0 -42 -40.5 -83.5t-86.5 -41.5q-50 0 -78 47l-84 137q-86 -39 -200 -39q-93 0 -170 29l-80 -129q-28 -47 -78 -47q-47 0 -84 35.5t-37 79.5zM379 707q0 -111 52.5 -174.5t133.5 -63.5t130.5 61t49.5 175q0 111 -52.5 174t-133.5 63t-130.5 -61 t-49.5 -174z" />
<glyph unicode="&#xa5;" horiz-adv-x="1306" d="M23 1305q0 32 23.5 52.5t64.5 20.5h391q41 0 64.5 -20t23.5 -51q0 -33 -18.5 -55.5t-59.5 -43.5l-45 -22l223 -398h4l213 398l-45 22q-41 21 -59.5 43.5t-18.5 55.5q0 31 23.5 51t64.5 20h324q41 0 64.5 -20.5t23.5 -52.5q0 -74 -80 -107l-49 -20l-299 -496h170 q84 0 84 -70q0 -39 -28 -62.5t-83 -23.5h-208v-96h235q84 0 84 -70q0 -39 -28 -62.5t-83 -23.5h-208v-81l102 -31q44 -14 62 -32t18 -50q0 -34 -27.5 -57t-73.5 -23h-434q-46 0 -73 23t-27 57q0 32 18 50t62 32l102 31v81h-235q-84 0 -84 70q0 39 27.5 62.5t82.5 23.5h209 v96h-235q-84 0 -84 70q0 39 27.5 62.5t82.5 23.5h144l-303 496l-50 20q-79 33 -79 107z" />
<glyph unicode="&#xa6;" horiz-adv-x="663" d="M211 262q0 58 31.5 89.5t89.5 31.5t89.5 -31.5t31.5 -89.5v-633q0 -59 -31.5 -90t-89.5 -31t-89.5 31t-31.5 90v633zM211 754v620q0 58 31.5 89.5t89.5 31.5t89.5 -31.5t31.5 -89.5v-620q0 -58 -31.5 -89.5t-89.5 -31.5t-89.5 31.5t-31.5 89.5z" />
<glyph unicode="&#xa7;" horiz-adv-x="1130" d="M113 541q0 199 198 305q-90 93 -90 209q0 145 116 245.5t302 100.5q132 0 207.5 -50t75.5 -118q0 -54 -38.5 -92.5t-92.5 -38.5q-24 0 -47.5 18.5t-41 40t-50.5 40t-72 18.5q-50 0 -77.5 -27.5t-27.5 -77.5q0 -44 30 -82.5t78 -69t105.5 -61t115.5 -66.5t106 -76.5 t78 -99t30 -127.5q0 -102 -52.5 -179.5t-148.5 -125.5q92 -92 92 -209q0 -145 -115.5 -245.5t-301.5 -100.5q-132 0 -207.5 50t-75.5 118q0 54 38.5 92.5t92.5 38.5q20 0 38 -12t34 -29t34.5 -34t45.5 -29t59 -12q49 0 76.5 27.5t27.5 76.5q0 44 -30 82.5t-77.5 69 t-105.5 61t-116 66.5t-105.5 76.5t-77.5 99t-30 127.5zM373 606q0 -38 19 -71t56.5 -62t73 -50.5t88.5 -51t84 -49.5q64 54 64 145q0 37 -19 70t-56.5 62.5t-72.5 51t-89.5 52t-84.5 49.5q-63 -54 -63 -146z" />
<glyph unicode="&#xa8;" horiz-adv-x="1024" d="M137 1296q0 68 47.5 115t114.5 47t112.5 -45t45.5 -113q0 -67 -47 -114t-115 -47t-113 45t-45 112zM567 1296q0 68 47.5 115t114.5 47t112.5 -45t45.5 -113q0 -67 -47 -114t-115 -47t-113 45t-45 112z" />
<glyph unicode="&#xa9;" horiz-adv-x="1640" d="M98 662q0 156 57 293t155.5 235t237.5 154.5t298 56.5q153 0 283 -51t220.5 -141t141.5 -217.5t51 -276.5q0 -207 -96.5 -376t-267.5 -265.5t-383 -96.5q-204 0 -363 87t-246.5 243t-87.5 355zM291 686q0 -249 146.5 -399t381.5 -150t383 152t148 401q0 250 -147 400.5 t-382 150.5t-382.5 -152.5t-147.5 -402.5zM465 676q0 180 115.5 294.5t296.5 114.5q129 0 178 -49q13 -13 17.5 -33t4.5 -69v-14q0 -43 -2 -78q-3 -62 -59 -62q-53 0 -70 62l-24 88q-21 10 -62 10q-83 0 -132.5 -60.5t-49.5 -179.5q0 -125 58.5 -189.5t164.5 -64.5 q43 0 80.5 10.5t46.5 10.5q53 0 53 -55q0 -32 -22 -54q-67 -67 -230 -67q-167 0 -265.5 102.5t-98.5 282.5z" />
<glyph unicode="&#xaa;" horiz-adv-x="892" d="M86 485q0 105 113 105h520q47 0 67.5 -18.5t20.5 -57.5q0 -104 -113 -104h-520q-47 0 -67.5 18t-20.5 57zM98 891q0 88 78.5 142t235.5 54q24 0 47.5 -1.5t34.5 -3.5l12 -1v35q0 66 -26 92.5t-91 26.5q-63 0 -123 -15.5t-69 -15.5q-26 0 -43 18t-17 46q0 24 23 47 q28 28 107.5 52t181.5 24q146 0 212 -57.5t66 -174.5q0 -25 -0.5 -72t-0.5 -76.5t1 -73t4 -83.5l41 -8q30 -6 41.5 -20.5t11.5 -43.5q0 -26 -12.5 -41t-40.5 -26q-64 -23 -145 -23q-51 0 -74 20.5t-23 63.5v6l-4 2q-2 -4 -6.5 -10.5t-21.5 -23t-38 -29t-57 -23t-77 -10.5 q-101 0 -164.5 58.5t-63.5 144.5zM326 911q0 -28 21.5 -47.5t55.5 -19.5q29 0 54.5 11t36.5 21l10 11v78q-25 6 -70 6q-108 0 -108 -60z" />
<glyph unicode="&#xab;" horiz-adv-x="1236" d="M82 510q0 47 43 90l315 330q37 37 80 37q44 0 76.5 -27.5t32.5 -67.5q0 -28 -25 -67l-207 -289l213 -297q23 -35 23 -65q0 -43 -36 -74t-81 -31t-80 35l-311 336q-43 49 -43 90zM612 510q0 45 45 90l291 307q37 37 84 37q42 0 70 -26t28 -66q0 -34 -24 -70l-191 -266 l197 -274q23 -33 23 -64q0 -43 -35 -73.5t-82 -30.5q-46 0 -78 35l-283 311q-45 45 -45 90z" />
<glyph unicode="&#xac;" d="M113 584q0 44 26.5 71t69.5 27h639q123 0 123 -125v-264q0 -58 -28 -88.5t-77 -30.5t-76.5 30t-27.5 89v192h-553q-43 0 -69.5 27.5t-26.5 71.5z" />
<glyph unicode="&#xad;" horiz-adv-x="925" d="M117 530q0 121 114 121h486q92 0 92 -88q0 -121 -115 -121h-485q-92 0 -92 88z" />
<glyph unicode="&#xae;" horiz-adv-x="974" d="M68 1075q0 181 120.5 300.5t309.5 119.5q179 0 294 -113t115 -284q0 -187 -117.5 -303.5t-312.5 -116.5q-179 0 -294 113t-115 284zM178 1087q0 -139 87 -227t224 -88q147 0 227.5 81.5t80.5 231.5q0 139 -87.5 227.5t-224.5 88.5t-222 -86.5t-85 -227.5zM293 913 q0 21 26 31l27 8v271l-24 8q-29 12 -29 35q0 11 8.5 18.5t22.5 7.5h182q84 0 125 -30t41 -82q0 -38 -21 -68t-57 -45l14 -33q28 -69 72 -92q18 -9 18 -24q0 -16 -16 -27.5t-45 -11.5q-41 0 -67.5 24t-49.5 84l-22 60h-47v-95l18 -8q25 -14 25 -33q0 -28 -35 -28h-131 q-35 0 -35 30zM451 1112h43q33 0 51 15t18 40q0 54 -67 54h-45v-109z" />
<glyph unicode="&#xaf;" horiz-adv-x="1024" d="M156 1284q0 52 29 82.5t85 30.5h506q92 0 92 -84q0 -52 -29 -82.5t-85 -30.5h-506q-92 0 -92 84z" />
<glyph unicode="&#xb0;" horiz-adv-x="839" d="M92 1190q0 129 93 217t239 88q147 0 235.5 -83t88.5 -214t-93 -218t-239 -87q-147 0 -235.5 83t-88.5 214zM276 1194q0 -67 40 -107t104 -40t103.5 40t39.5 107q0 66 -40 106.5t-103 40.5t-103.5 -40.5t-40.5 -106.5z" />
<glyph unicode="&#xb1;" d="M102 98q0 44 27 71.5t70 27.5h686q44 0 70 -27t26 -72q0 -44 -26 -71t-70 -27h-686q-43 0 -70 27t-27 71zM102 768q0 44 27 71t70 27h237v228q0 118 107 118q106 0 106 -118v-228h236q44 0 70 -27t26 -71t-26 -71t-70 -27h-236v-228q0 -118 -106 -118q-107 0 -107 118 v228h-237q-43 0 -70 27t-27 71z" />
<glyph unicode="&#xb2;" horiz-adv-x="718" d="M66 752q0 58 53 106l94 88q83 79 103 107q30 42 30 86q0 69 -108 69q-36 0 -68 -6t-43 -6q-25 0 -41 19t-16 49q0 35 26 61t86 46t142 20q140 0 213 -58t73 -151q0 -44 -15.5 -83t-54 -82.5t-71.5 -73.5t-98 -85l-52 -43h183l14 35q20 53 68 53q58 0 61 -61q2 -29 2 -80 v-10q0 -77 -22 -99t-72 -22h-358q-59 0 -94 32.5t-35 88.5z" />
<glyph unicode="&#xb3;" horiz-adv-x="735" d="M70 762q0 39 21.5 61.5t58.5 22.5q18 0 39.5 -16.5t50.5 -33t65 -16.5q43 0 65.5 19t22.5 51q0 38 -38 58t-138 20q-38 0 -58 24.5t-20 65.5q0 34 17 51q16 16 73 16q80 0 111 17.5t31 50.5q0 55 -97 55q-37 0 -73 -8t-51 -8q-25 0 -41.5 19t-16.5 49q0 34 27 61t90 48.5 t151 21.5q131 0 200 -52.5t69 -132.5q0 -63 -32 -105t-83 -63v-4q61 -13 102 -59t41 -111q0 -102 -93 -174t-261 -72q-111 0 -172 40.5t-61 103.5z" />
<glyph unicode="&#xb4;" horiz-adv-x="1024" d="M305 1212q0 24 23 54l176 237q31 45 74 45q52 0 97.5 -43.5t45.5 -93.5q0 -39 -41 -72l-234 -186q-31 -25 -57 -25q-33 0 -58.5 24.5t-25.5 59.5z" />
<glyph unicode="&#xb6;" horiz-adv-x="1329" d="M119 918q0 225 125 342.5t374 117.5h551q41 0 61.5 -19.5t20.5 -49.5q0 -31 -18.5 -51t-63.5 -35l-82 -27v-1319l82 -27q46 -15 64 -32.5t18 -46.5q0 -34 -21.5 -55t-66.5 -21h-211q-40 0 -63 23t-23 63v1409h-129v-1409q0 -40 -23 -63t-63 -23h-231q-45 0 -66.5 21 t-21.5 55q0 29 18.5 46.5t65.5 30.5l100 29v606q-184 0 -290.5 114t-106.5 321z" />
<glyph unicode="&#xb7;" horiz-adv-x="610" d="M127 545q0 78 51 129t129 51t127 -49t49 -127t-51 -129t-129 -51t-127 49t-49 127z" />
<glyph unicode="&#xb8;" horiz-adv-x="1024" d="M250 -410q0 27 17.5 45.5t47.5 18.5q12 0 33 -1t35 -1q90 0 90 59q0 53 -82 53q-23 0 -33 14.5t-4 39.5l45 182h156l-18 -78q91 -6 148.5 -52.5t57.5 -131.5q0 -98 -93.5 -164t-256.5 -66q-143 0 -143 82z" />
<glyph unicode="&#xb9;" horiz-adv-x="614" d="M49 1229q0 28 25 53q35 35 127.5 69.5t152.5 34.5q101 0 101 -108v-479l63 -21q68 -22 68 -73q0 -33 -20.5 -53.5t-55.5 -20.5h-371q-35 0 -55.5 20.5t-20.5 53.5q0 51 66 71l78 23v375l-41 -7q-36 -4 -53 -4q-29 0 -46.5 18.5t-17.5 47.5z" />
<glyph unicode="&#xba;" horiz-adv-x="919" d="M94 485q0 105 113 105h530q47 0 67.5 -18.5t20.5 -57.5q0 -104 -112 -104h-531q-47 0 -67.5 18t-20.5 57zM98 1018q0 168 104.5 270.5t278.5 102.5q161 0 250.5 -88t89.5 -242q0 -169 -103 -271t-280 -102q-161 0 -250.5 88t-89.5 242zM326 1040q0 -96 39 -147t98 -51 t95 48t36 146t-38.5 149.5t-96.5 51.5q-60 0 -96.5 -49.5t-36.5 -147.5z" />
<glyph unicode="&#xbb;" horiz-adv-x="1236" d="M102 838q0 43 35 73.5t82 30.5q46 0 78 -35l283 -311q45 -45 45 -90t-45 -90l-291 -307q-37 -37 -84 -37q-42 0 -70.5 26.5t-28.5 65.5q0 31 25 69l191 267l-197 274q-23 33 -23 64zM604 862q0 43 36 74t81 31t80 -35l311 -336q43 -49 43 -90q0 -47 -43 -90l-315 -330 q-37 -37 -80 -37q-44 0 -76.5 27t-32.5 67q0 29 25 68l207 289l-213 297q-23 34 -23 65z" />
<glyph unicode="&#xbc;" horiz-adv-x="1708" d="M49 1229q0 28 25 53q35 35 127.5 69.5t152.5 34.5q101 0 101 -108v-479l63 -21q68 -22 68 -73q0 -33 -20.5 -53.5t-55.5 -20.5h-371q-35 0 -55.5 20.5t-20.5 53.5q0 51 66 71l78 23v375l-41 -7q-36 -4 -53 -4q-29 0 -46.5 18.5t-17.5 47.5zM377 57q0 29 24 72l719 1208 q37 64 90 64q34 0 59 -23.5t25 -56.5q0 -29 -24 -72l-719 -1208q-37 -64 -90 -64q-34 0 -59 23.5t-25 56.5zM938 326q0 57 43 110l168 213q51 64 98 87.5t127 23.5q82 0 116 -27.5t34 -85.5v-272h61q66 0 66 -76q0 -40 -24 -65t-66 -25h-37v-51l41 -17q53 -20 53 -69 q0 -34 -22 -53t-60 -19h-274q-38 0 -60 19t-22 53q0 44 55 65l53 21v51h-219q-62 0 -96.5 30.5t-34.5 86.5zM1130 375h158v200z" />
<glyph unicode="&#xbd;" horiz-adv-x="1701" d="M49 1229q0 28 25 53q35 35 127.5 69.5t152.5 34.5q101 0 101 -108v-479l63 -21q68 -22 68 -73q0 -33 -20.5 -53.5t-55.5 -20.5h-371q-35 0 -55.5 20.5t-20.5 53.5q0 51 66 71l78 23v375l-41 -7q-36 -4 -53 -4q-29 0 -46.5 18.5t-17.5 47.5zM377 57q0 29 24 72l719 1208 q37 64 90 64q34 0 59 -23.5t25 -56.5q0 -29 -24 -72l-719 -1208q-37 -64 -90 -64q-34 0 -59 23.5t-25 56.5zM1049 121q0 58 53 106l94 88q83 79 103 107q30 42 30 86q0 70 -108 70q-35 0 -67 -6.5t-44 -6.5q-25 0 -41 19t-16 49q0 35 26 61t86 46t142 20q140 0 213 -58 t73 -151q0 -44 -15.5 -83t-54 -82.5t-71.5 -73.5t-98 -85l-51 -43h182l14 35q20 53 68 53q58 0 61 -61q2 -29 2 -80v-10q0 -76 -22 -98q-23 -23 -72 -23h-358q-59 0 -94 32.5t-35 88.5z" />
<glyph unicode="&#xbe;" horiz-adv-x="1738" d="M70 762q0 39 21.5 61.5t58.5 22.5q18 0 39.5 -16.5t50.5 -33t65 -16.5q43 0 65.5 19t22.5 51q0 38 -38 58t-138 20q-38 0 -58 24.5t-20 65.5q0 34 17 51q16 16 73 16q80 0 111 17.5t31 50.5q0 55 -97 55q-37 0 -73 -8t-51 -8q-25 0 -41.5 19t-16.5 49q0 34 27 61t90 48.5 t151 21.5q131 0 200 -52.5t69 -132.5q0 -63 -32 -105t-83 -63v-4q61 -13 102 -59t41 -111q0 -102 -93 -174t-261 -72q-111 0 -172 40.5t-61 103.5zM408 57q0 29 24 72l719 1208q37 64 90 64q34 0 59 -23.5t25 -56.5q0 -27 -25 -72l-718 -1208q-37 -64 -90 -64 q-34 0 -59 23.5t-25 56.5zM969 326q0 57 43 110l168 213q51 64 98 87.5t127 23.5q82 0 115.5 -27.5t33.5 -85.5v-272h62q65 0 65 -76q0 -40 -24 -65t-66 -25h-37v-51l41 -17q54 -20 54 -69q0 -34 -22 -53t-60 -19h-275q-38 0 -60 19t-22 53q0 44 56 65l53 21v51h-219 q-62 0 -96.5 30.5t-34.5 86.5zM1161 375h158v200z" />
<glyph unicode="&#xbf;" horiz-adv-x="774" d="M43 -104q0 68 21.5 126.5t54 97t70 77t70 69t54 71t21.5 83.5q0 41 -8.5 82t-8.5 57q0 38 35.5 62t104.5 24q71 0 112 -49t41 -139q0 -68 -28.5 -128t-69.5 -103.5t-82 -85t-69.5 -91t-28.5 -102.5q0 -75 47.5 -119.5t132.5 -44.5q48 0 98.5 15.5t75.5 15.5 q36 0 58 -23.5t22 -58.5t-29 -64q-37 -37 -115.5 -63.5t-181.5 -26.5q-195 0 -296 86t-101 232zM268 920q0 75 50.5 125.5t125.5 50.5t123.5 -48.5t48.5 -123.5t-50.5 -125.5t-125.5 -50.5t-123.5 48.5t-48.5 123.5z" />
<glyph unicode="&#xc0;" horiz-adv-x="1484" d="M16 86q0 33 16.5 52t59.5 38l58 25l370 1020q35 95 84.5 131.5t138.5 36.5t139 -36.5t85 -131.5l368 -1020l58 -25q43 -19 59 -38t16 -52q0 -38 -27 -62t-73 -24h-373q-46 0 -73 24t-27 62q0 32 17.5 50t62.5 36l61 25l-59 176h-516l-62 -176l62 -25q45 -18 62.5 -36 t17.5 -50q0 -38 -27.5 -62t-73.5 -24h-323q-46 0 -73.5 24t-27.5 62zM436 1741q0 53 42.5 99t90.5 46q33 0 58 -22l245 -226q25 -25 25 -53q0 -36 -26 -62t-60 -26q-19 0 -39 10l-287 152q-49 25 -49 82zM520 553h398l-127 362q-17 50 -34.5 107t-26.5 89l-9 32h-4 q-33 -113 -72 -228z" />
<glyph unicode="&#xc1;" horiz-adv-x="1484" d="M16 86q0 33 16.5 52t59.5 38l58 25l370 1020q35 95 84.5 131.5t138.5 36.5t139 -36.5t85 -131.5l368 -1020l58 -25q43 -19 59 -38t16 -52q0 -38 -27 -62t-73 -24h-373q-46 0 -73 24t-27 62q0 32 17.5 50t62.5 36l61 25l-59 176h-516l-62 -176l62 -25q45 -18 62.5 -36 t17.5 -50q0 -38 -27.5 -62t-73.5 -24h-323q-46 0 -73.5 24t-27.5 62zM520 553h398l-127 362q-17 50 -34.5 107t-26.5 89l-9 32h-4q-33 -113 -72 -228zM580 1585q0 29 24 53l246 226q25 22 57 22q48 0 90.5 -46t42.5 -99q0 -57 -49 -82l-286 -152q-20 -10 -39 -10 q-34 0 -60 26t-26 62z" />
<glyph unicode="&#xc2;" horiz-adv-x="1484" d="M16 86q0 33 16.5 52t59.5 38l58 25l370 1020q35 95 84.5 131.5t138.5 36.5t139 -36.5t85 -131.5l368 -1020l58 -25q43 -19 59 -38t16 -52q0 -38 -27 -62t-73 -24h-373q-46 0 -73 24t-27 62q0 32 17.5 50t62.5 36l61 25l-59 176h-516l-62 -176l62 -25q45 -18 62.5 -36 t17.5 -50q0 -38 -27.5 -62t-73.5 -24h-323q-46 0 -73.5 24t-27.5 62zM424 1577q0 28 25 53l219 209q41 41 92 41t92 -41l209 -207q22 -22 22 -49q0 -33 -26.5 -59.5t-65.5 -26.5q-25 0 -47 14l-196 127l-197 -127q-22 -14 -45 -14q-34 0 -58 24t-24 56zM520 553h398 l-127 362q-17 50 -34.5 107t-26.5 89l-9 32h-4q-33 -113 -72 -228z" />
<glyph unicode="&#xc3;" horiz-adv-x="1484" d="M16 86q0 33 16.5 52t59.5 38l58 25l370 1020q35 95 84.5 131.5t138.5 36.5t139 -36.5t85 -131.5l368 -1020l58 -25q43 -19 59 -38t16 -52q0 -38 -27 -62t-73 -24h-373q-46 0 -73 24t-27 62q0 32 17.5 50t62.5 36l61 25l-59 176h-516l-62 -176l62 -25q45 -18 62.5 -36 t17.5 -50q0 -38 -27.5 -62t-73.5 -24h-323q-46 0 -73.5 24t-27.5 62zM383 1614q0 61 81.5 126.5t182.5 65.5q53 0 99 -20t83 -40t66 -20q30 0 52 11t32.5 24t26 24t34.5 11q33 0 57.5 -22t24.5 -58q0 -61 -81.5 -126.5t-182.5 -65.5q-53 0 -99 20t-83 40t-66 20 q-30 0 -52 -11t-32.5 -24t-26 -24t-34.5 -11q-33 0 -57.5 22t-24.5 58zM520 553h398l-127 362q-17 50 -34.5 107t-26.5 89l-9 32h-4q-33 -113 -72 -228z" />
<glyph unicode="&#xc4;" horiz-adv-x="1484" d="M16 86q0 33 16.5 52t59.5 38l58 25l370 1020q35 95 84.5 131.5t138.5 36.5t139 -36.5t85 -131.5l368 -1020l58 -25q43 -19 59 -38t16 -52q0 -38 -27 -62t-73 -24h-373q-46 0 -73 24t-27 62q0 32 17.5 50t62.5 36l61 25l-59 176h-516l-62 -176l62 -25q45 -18 62.5 -36 t17.5 -50q0 -38 -27.5 -62t-73.5 -24h-323q-46 0 -73.5 24t-27.5 62zM381 1651q0 71 46.5 117.5t117.5 46.5t115.5 -44.5t44.5 -115.5t-46.5 -117.5t-117.5 -46.5t-115.5 44.5t-44.5 115.5zM520 553h398l-127 362q-17 50 -34.5 107t-26.5 89l-9 32h-4q-33 -113 -72 -228z M823 1651q0 71 46.5 117.5t117.5 46.5t115.5 -44.5t44.5 -115.5t-46.5 -117.5t-117.5 -46.5t-115.5 44.5t-44.5 115.5z" />
<glyph unicode="&#xc5;" horiz-adv-x="1484" d="M16 86q0 33 16.5 52t59.5 38l58 25l370 1020q35 95 84.5 131.5t138.5 36.5t139 -36.5t85 -131.5l368 -1020l58 -25q43 -19 59 -38t16 -52q0 -38 -27 -62t-73 -24h-373q-46 0 -73 24t-27 62q0 32 17.5 50t62.5 36l61 25l-59 176h-516l-62 -176l62 -25q45 -18 62.5 -36 t17.5 -50q0 -38 -27.5 -62t-73.5 -24h-323q-46 0 -73.5 24t-27.5 62zM467 1722q0 110 82 180t209 70t204.5 -65.5t77.5 -175.5t-82 -180t-208 -70q-127 0 -205 65.5t-78 175.5zM520 553h398l-127 362q-17 50 -34.5 107t-26.5 89l-9 32h-4q-33 -113 -72 -228zM647 1726 q0 -47 30.5 -77.5t76.5 -30.5t76 30.5t30 77.5t-30 78t-76 31t-76.5 -31t-30.5 -78z" />
<glyph unicode="&#xc6;" horiz-adv-x="1957" d="M16 86q0 33 16 52t60 40l47 23l654 1067q39 64 77 87t99 23h751q69 0 101 -32q17 -17 22.5 -41t5.5 -84v-25q0 -64 -2 -111q-3 -81 -84 -81q-70 0 -96 79l-33 101h-366v-400h272l21 54q15 39 35 55t53 16q77 0 77 -90v-252q0 -90 -77 -90q-32 0 -52.5 17.5t-35.5 56.5 l-21 51h-272v-407h393l35 110q23 80 96 80q81 0 84 -82q2 -45 2 -110v-35q0 -59 -6 -83t-23 -42q-33 -33 -100 -33h-809q-46 0 -73 24t-27 62q0 62 82 92l59 23v172h-467l-102 -172l55 -25q47 -21 64.5 -39t17.5 -51q0 -38 -27 -62t-73 -24h-332q-46 0 -73.5 24t-27.5 62z M618 553h363v604h-4z" />
<glyph unicode="&#xc7;" horiz-adv-x="1218" d="M82 645q0 166 54 306.5t149 238t227.5 152.5t286.5 55q219 0 291 -72q21 -21 27.5 -52.5t6.5 -109.5v-28q0 -95 -2 -146q-3 -82 -84 -82q-70 0 -94 80l-57 180q-39 21 -121 21q-171 0 -277 -130t-106 -376q0 -231 112.5 -358t297.5 -127q67 0 122 11t90 22.5t52 11.5 q71 0 71 -80q0 -42 -30 -72q-41 -41 -142 -75.5t-241 -34.5h-6l-13 -58q91 -6 149 -52.5t58 -131.5q0 -98 -93.5 -164t-256.5 -66q-143 0 -143 82q0 27 17.5 45.5t47.5 18.5q12 0 33 -1t35 -1q90 0 90 59q0 53 -82 53q-23 0 -33 14.5t-4 39.5l45 178q-219 42 -348 212.5 t-129 436.5z" />
<glyph unicode="&#xc8;" horiz-adv-x="1196" d="M45 86q0 34 17 52.5t61 31.5l96 31v977l-90 28q-46 15 -65 38t-19 61q0 32 23.5 52.5t64.5 20.5h825q69 0 101 -32q17 -17 22.5 -41t5.5 -84v-25q0 -64 -2 -111q-3 -81 -84 -81q-70 0 -96 79l-33 101h-366v-400h272l21 54q15 39 35 55t53 16q78 0 78 -90v-252 q0 -90 -78 -90q-32 0 -52.5 17.5t-35.5 56.5l-21 51h-272v-407h393l35 110q23 80 96 80q81 0 84 -82q2 -45 2 -110v-35q0 -59 -6 -83t-23 -42q-33 -33 -100 -33h-842q-46 0 -73 24t-27 62zM276 1741q0 53 43 99t91 46q32 0 57 -22l246 -226q24 -24 24 -53q0 -36 -26 -62 t-60 -26q-19 0 -39 10l-286 152q-50 26 -50 82z" />
<glyph unicode="&#xc9;" horiz-adv-x="1196" d="M45 86q0 34 17 52.5t61 31.5l96 31v977l-90 28q-46 15 -65 38t-19 61q0 32 23.5 52.5t64.5 20.5h825q69 0 101 -32q17 -17 22.5 -41t5.5 -84v-25q0 -64 -2 -111q-3 -81 -84 -81q-70 0 -96 79l-33 101h-366v-400h272l21 54q15 39 35 55t53 16q78 0 78 -90v-252 q0 -90 -78 -90q-32 0 -52.5 17.5t-35.5 56.5l-21 51h-272v-407h393l35 110q23 80 96 80q81 0 84 -82q2 -45 2 -110v-35q0 -59 -6 -83t-23 -42q-33 -33 -100 -33h-842q-46 0 -73 24t-27 62zM485 1585q0 28 25 53l246 226q25 22 57 22q48 0 90.5 -46t42.5 -99q0 -57 -49 -82 l-287 -152q-20 -10 -39 -10q-34 0 -60 26t-26 62z" />
<glyph unicode="&#xca;" horiz-adv-x="1196" d="M45 86q0 34 17 52.5t61 31.5l96 31v977l-90 28q-46 15 -65 38t-19 61q0 32 23.5 52.5t64.5 20.5h825q69 0 101 -32q17 -17 22.5 -41t5.5 -84v-25q0 -64 -2 -111q-3 -81 -84 -81q-70 0 -96 79l-33 101h-366v-400h272l21 54q15 39 35 55t53 16q78 0 78 -90v-252 q0 -90 -78 -90q-32 0 -52.5 17.5t-35.5 56.5l-21 51h-272v-407h393l35 110q23 80 96 80q81 0 84 -82q2 -45 2 -110v-35q0 -59 -6 -83t-23 -42q-33 -33 -100 -33h-842q-46 0 -73 24t-27 62zM276 1577q0 28 25 53l219 209q41 41 92 41q52 0 93 -41l208 -207q23 -23 23 -49 q0 -33 -26.5 -59.5t-65.5 -26.5q-25 0 -47 14l-197 127l-197 -127q-22 -14 -45 -14q-34 0 -58 24t-24 56z" />
<glyph unicode="&#xcb;" horiz-adv-x="1196" d="M45 86q0 34 17 52.5t61 31.5l96 31v977l-90 28q-46 15 -65 38t-19 61q0 32 23.5 52.5t64.5 20.5h825q69 0 101 -32q17 -17 22.5 -41t5.5 -84v-25q0 -64 -2 -111q-3 -81 -84 -81q-70 0 -96 79l-33 101h-366v-400h272l21 54q15 39 35 55t53 16q78 0 78 -90v-252 q0 -90 -78 -90q-32 0 -52.5 17.5t-35.5 56.5l-21 51h-272v-407h393l35 110q23 80 96 80q81 0 84 -82q2 -45 2 -110v-35q0 -59 -6 -83t-23 -42q-33 -33 -100 -33h-842q-46 0 -73 24t-27 62zM215 1651q0 71 46.5 117.5t117.5 46.5t115.5 -44.5t44.5 -115.5t-46.5 -117.5 t-117.5 -46.5t-115.5 44.5t-44.5 115.5zM657 1651q0 71 46.5 117.5t117.5 46.5t115.5 -44.5t44.5 -115.5t-46.5 -117.5t-117.5 -46.5t-115.5 44.5t-44.5 115.5z" />
<glyph unicode="&#xcc;" horiz-adv-x="724" d="M45 86q0 34 17 52.5t61 31.5l96 31v977l-90 28q-46 15 -65 38t-19 61q0 32 23.5 52.5t64.5 20.5h459q41 0 64.5 -20.5t23.5 -52.5q0 -38 -19 -61t-65 -38l-90 -28v-977l96 -31q44 -13 61 -31.5t17 -52.5q0 -38 -27 -62t-73 -24h-435q-46 0 -73 24t-27 62zM76 1741 q0 53 42.5 99t90.5 46q32 0 57 -22l246 -226q25 -25 25 -53q0 -36 -26 -62t-60 -26q-19 0 -39 10l-287 152q-49 25 -49 82z" />
<glyph unicode="&#xcd;" horiz-adv-x="724" d="M45 86q0 34 17 52.5t61 31.5l96 31v977l-90 28q-46 15 -65 38t-19 61q0 32 23.5 52.5t64.5 20.5h459q41 0 64.5 -20.5t23.5 -52.5q0 -38 -19 -61t-65 -38l-90 -28v-977l96 -31q44 -13 61 -31.5t17 -52.5q0 -38 -27 -62t-73 -24h-435q-46 0 -73 24t-27 62zM193 1585 q0 29 24 53l246 226q25 22 57 22q48 0 90.5 -46t42.5 -99q0 -57 -49 -82l-287 -152q-20 -10 -38 -10q-34 0 -60 26t-26 62z" />
<glyph unicode="&#xce;" horiz-adv-x="724" d="M43 1577q0 28 25 53l219 209q41 41 92 41t92 -41l209 -207q22 -22 22 -49q0 -33 -26.5 -59.5t-65.5 -26.5q-25 0 -47 14l-196 127l-197 -127q-22 -14 -45 -14q-34 0 -58 24t-24 56zM45 86q0 34 17 52.5t61 31.5l96 31v977l-90 28q-46 15 -65 38t-19 61q0 32 23.5 52.5 t64.5 20.5h459q41 0 64.5 -20.5t23.5 -52.5q0 -38 -19 -61t-65 -38l-90 -28v-977l96 -31q44 -13 61 -31.5t17 -52.5q0 -38 -27 -62t-73 -24h-435q-46 0 -73 24t-27 62z" />
<glyph unicode="&#xcf;" horiz-adv-x="724" d="M-12 1651q0 71 47 117.5t117 46.5t114.5 -44.5t44.5 -115.5t-46.5 -117.5t-117.5 -46.5q-70 0 -114.5 44.5t-44.5 115.5zM45 86q0 34 17 52.5t61 31.5l96 31v977l-90 28q-46 15 -65 38t-19 61q0 32 23.5 52.5t64.5 20.5h459q41 0 64.5 -20.5t23.5 -52.5q0 -38 -19 -61 t-65 -38l-90 -28v-977l96 -31q44 -13 61 -31.5t17 -52.5q0 -38 -27 -62t-73 -24h-435q-46 0 -73 24t-27 62zM430 1651q0 71 47 117.5t117 46.5t115 -44.5t45 -115.5t-47 -117.5t-117 -46.5t-115 44.5t-45 115.5z" />
<glyph unicode="&#xd0;" horiz-adv-x="1515" d="M66 694q0 50 29.5 79.5t84.5 29.5h92v375l-90 28q-47 15 -65.5 37.5t-18.5 61.5q0 32 23.5 52.5t64.5 20.5h523q364 0 544.5 -166.5t180.5 -484.5q0 -337 -207 -532t-584 -195h-444q-46 0 -73.5 24t-27.5 62q0 34 17 52.5t61 31.5l96 31v411h-114q-92 0 -92 82zM559 201 h115q224 0 342.5 124t118.5 369q0 246 -115 365t-346 119h-115v-375h195q92 0 92 -82q0 -50 -30 -79.5t-85 -29.5h-172v-411z" />
<glyph unicode="&#xd1;" horiz-adv-x="1589" d="M43 86q0 34 17 52.5t61 31.5l96 31v977l-90 28q-46 15 -65 38t-19 61q0 32 23.5 52.5t64.5 20.5h293q56 0 94 -21.5t74 -76.5l440 -682q32 -49 68 -112.5t56 -102.5l20 -39l4 2q-15 144 -15 279l-4 553l-92 28q-45 13 -65.5 37t-20.5 62q0 32 23.5 52.5t64.5 20.5h410 q41 0 63.5 -20.5t22.5 -52.5q0 -39 -18.5 -62.5t-63.5 -38.5l-82 -26v-1022q0 -81 -45 -123.5t-135 -42.5q-127 0 -195 106l-440 682q-32 50 -68 113.5t-56 102.5l-20 38l-4 -2q15 -141 15 -278l4 -551l98 -31q45 -14 62.5 -32t17.5 -52q0 -38 -27 -62t-73 -24h-394 q-46 0 -73 24t-27 62zM414 1614q0 61 81.5 126.5t182.5 65.5q53 0 99 -20t83 -40t66 -20q30 0 52 11t32.5 24t26 24t34.5 11q33 0 57.5 -22t24.5 -58q0 -61 -81.5 -126.5t-182.5 -65.5q-53 0 -99 20t-83 40t-66 20q-30 0 -52 -11t-32.5 -24t-26 -24t-34.5 -11 q-33 0 -57.5 22t-24.5 58z" />
<glyph unicode="&#xd2;" horiz-adv-x="1509" d="M82 659q0 223 89 392t247.5 259.5t363.5 90.5q297 0 471 -181.5t174 -502.5q0 -167 -51.5 -305.5t-143.5 -234t-222 -148t-283 -52.5q-297 0 -471 181t-174 501zM383 692q0 -246 106.5 -378t270.5 -132q162 0 264 128.5t102 373.5q0 247 -106 379.5t-270 132.5 q-162 0 -264.5 -129t-102.5 -375zM442 1741q0 53 42.5 99t90.5 46q33 0 58 -22l246 -226q24 -24 24 -53q0 -36 -26 -62t-60 -26q-19 0 -39 10l-286 152q-50 26 -50 82z" />
<glyph unicode="&#xd3;" horiz-adv-x="1509" d="M82 659q0 223 89 392t247.5 259.5t363.5 90.5q297 0 471 -181.5t174 -502.5q0 -167 -51.5 -305.5t-143.5 -234t-222 -148t-283 -52.5q-297 0 -471 181t-174 501zM383 692q0 -246 106.5 -378t270.5 -132q162 0 264 128.5t102 373.5q0 247 -106 379.5t-270 132.5 q-162 0 -264.5 -129t-102.5 -375zM627 1585q0 29 24 53l246 226q25 22 57 22q48 0 90.5 -46t42.5 -99q0 -57 -49 -82l-286 -152q-20 -10 -39 -10q-34 0 -60 26t-26 62z" />
<glyph unicode="&#xd4;" horiz-adv-x="1509" d="M82 659q0 223 89 392t247.5 259.5t363.5 90.5q297 0 471 -181.5t174 -502.5q0 -167 -51.5 -305.5t-143.5 -234t-222 -148t-283 -52.5q-297 0 -471 181t-174 501zM383 692q0 -246 106.5 -378t270.5 -132q162 0 264 128.5t102 373.5q0 247 -106 379.5t-270 132.5 q-162 0 -264.5 -129t-102.5 -375zM428 1577q0 28 25 53l219 209q41 41 92 41t92 -41l209 -207q22 -22 22 -49q0 -33 -26.5 -59.5t-65.5 -26.5q-25 0 -47 14l-196 127l-197 -127q-22 -14 -45 -14q-34 0 -58 24t-24 56z" />
<glyph unicode="&#xd5;" horiz-adv-x="1509" d="M82 659q0 223 89 392t247.5 259.5t363.5 90.5q297 0 471 -181.5t174 -502.5q0 -167 -51.5 -305.5t-143.5 -234t-222 -148t-283 -52.5q-297 0 -471 181t-174 501zM383 692q0 -246 106.5 -378t270.5 -132q162 0 264 128.5t102 373.5q0 247 -106 379.5t-270 132.5 q-162 0 -264.5 -129t-102.5 -375zM385 1614q0 61 81.5 126.5t182.5 65.5q53 0 99 -20t83 -40t66 -20q30 0 52 11t32.5 24t26 24t34.5 11q33 0 57.5 -22t24.5 -58q0 -61 -81.5 -126.5t-182.5 -65.5q-53 0 -99 20t-83 40t-66 20q-30 0 -52 -11t-32.5 -24t-26 -24t-34.5 -11 q-33 0 -57.5 22t-24.5 58z" />
<glyph unicode="&#xd6;" horiz-adv-x="1509" d="M82 659q0 223 89 392t247.5 259.5t363.5 90.5q297 0 471 -181.5t174 -502.5q0 -167 -51.5 -305.5t-143.5 -234t-222 -148t-283 -52.5q-297 0 -471 181t-174 501zM379 1651q0 71 46.5 117.5t117.5 46.5q70 0 114.5 -44.5t44.5 -115.5t-46.5 -117.5t-116.5 -46.5 q-71 0 -115.5 44.5t-44.5 115.5zM383 692q0 -246 106.5 -378t270.5 -132q162 0 264 128.5t102 373.5q0 247 -106 379.5t-270 132.5q-162 0 -264.5 -129t-102.5 -375zM821 1651q0 71 46.5 117.5t117.5 46.5t115.5 -44.5t44.5 -115.5t-46.5 -117.5t-117.5 -46.5t-115.5 44.5 t-44.5 115.5z" />
<glyph unicode="&#xd7;" d="M127 274q0 46 41 84l233 222l-233 227q-39 39 -39 82q0 40 29 69t69 29q42 0 82 -37l238 -231l239 227q38 35 78 35q37 0 65.5 -26t28.5 -62q0 -47 -40 -84l-234 -221l234 -228q38 -38 38 -81q0 -40 -29 -69.5t-69 -29.5q-42 0 -82 37l-237 229l-240 -225 q-38 -35 -78 -35q-37 0 -65.5 26t-28.5 62z" />
<glyph unicode="&#xd8;" horiz-adv-x="1538" d="M82 659q0 166 52.5 305t146.5 235t226.5 149t289.5 53q122 0 231 -33l86 156q38 65 94 65q41 0 73 -28t32 -68q0 -31 -21 -72l-80 -145q244 -184 244 -559q0 -220 -90.5 -388.5t-253 -260t-371.5 -91.5q-122 0 -231 33l-86 -155q-37 -64 -94 -64q-44 0 -74.5 26.5 t-30.5 69.5q0 29 21 70l80 143q-114 87 -179 227t-65 332zM373 692q0 -212 86 -356l463 835q-71 31 -158 31q-175 0 -283 -131t-108 -379zM616 207q64 -31 158 -31q175 0 283 131t108 377q0 214 -86 358z" />
<glyph unicode="&#xd9;" horiz-adv-x="1449" d="M10 1305q0 32 23.5 52.5t64.5 20.5h432q41 0 64.5 -20.5t23.5 -52.5q0 -39 -19 -62.5t-64 -38.5l-82 -26v-621q0 -189 78.5 -283t218.5 -94q284 0 284 344v654l-82 26q-45 15 -64.5 38.5t-19.5 62.5q0 32 23.5 52.5t64.5 20.5h396q41 0 64.5 -20.5t23.5 -52.5 q0 -71 -82 -101l-74 -26v-623q0 -291 -141 -434.5t-424 -143.5q-282 0 -417.5 134t-135.5 411v656l-74 26q-82 30 -82 101zM397 1741q0 53 42.5 99t90.5 46q33 0 58 -22l246 -226q24 -24 24 -53q0 -36 -26 -62t-60 -26q-19 0 -39 10l-287 152q-49 25 -49 82z" />
<glyph unicode="&#xda;" horiz-adv-x="1449" d="M10 1305q0 32 23.5 52.5t64.5 20.5h432q41 0 64.5 -20.5t23.5 -52.5q0 -39 -19 -62.5t-64 -38.5l-82 -26v-621q0 -189 78.5 -283t218.5 -94q284 0 284 344v654l-82 26q-45 15 -64.5 38.5t-19.5 62.5q0 32 23.5 52.5t64.5 20.5h396q41 0 64.5 -20.5t23.5 -52.5 q0 -71 -82 -101l-74 -26v-623q0 -291 -141 -434.5t-424 -143.5q-282 0 -417.5 134t-135.5 411v656l-74 26q-82 30 -82 101zM672 1585q0 29 24 53l246 226q25 22 57 22q48 0 91 -46t43 -99q0 -56 -50 -82l-286 -152q-20 -10 -39 -10q-34 0 -60 26t-26 62z" />
<glyph unicode="&#xdb;" horiz-adv-x="1449" d="M10 1305q0 32 23.5 52.5t64.5 20.5h432q41 0 64.5 -20.5t23.5 -52.5q0 -39 -19 -62.5t-64 -38.5l-82 -26v-621q0 -189 78.5 -283t218.5 -94q284 0 284 344v654l-82 26q-45 15 -64.5 38.5t-19.5 62.5q0 32 23.5 52.5t64.5 20.5h396q41 0 64.5 -20.5t23.5 -52.5 q0 -71 -82 -101l-74 -26v-623q0 -291 -141 -434.5t-424 -143.5q-282 0 -417.5 134t-135.5 411v656l-74 26q-82 30 -82 101zM424 1577q0 28 25 53l219 209q41 41 92 41t92 -41l209 -207q22 -22 22 -49q0 -33 -26.5 -59.5t-65.5 -26.5q-25 0 -47 14l-196 127l-197 -127 q-22 -14 -45 -14q-34 0 -58 24t-24 56z" />
<glyph unicode="&#xdc;" horiz-adv-x="1449" d="M10 1305q0 32 23.5 52.5t64.5 20.5h432q41 0 64.5 -20.5t23.5 -52.5q0 -39 -19 -62.5t-64 -38.5l-82 -26v-621q0 -189 78.5 -283t218.5 -94q284 0 284 344v654l-82 26q-45 15 -64.5 38.5t-19.5 62.5q0 32 23.5 52.5t64.5 20.5h396q41 0 64.5 -20.5t23.5 -52.5 q0 -71 -82 -101l-74 -26v-623q0 -291 -141 -434.5t-424 -143.5q-282 0 -417.5 134t-135.5 411v656l-74 26q-82 30 -82 101zM360 1651q0 71 47 117.5t117 46.5t115 -44.5t45 -115.5t-47 -117.5t-117 -46.5t-115 44.5t-45 115.5zM803 1651q0 71 46.5 117.5t117.5 46.5 q70 0 114.5 -44.5t44.5 -115.5t-46.5 -117.5t-116.5 -46.5q-71 0 -115.5 44.5t-44.5 115.5z" />
<glyph unicode="&#xdd;" horiz-adv-x="1351" d="M12 1305q0 32 23.5 52.5t64.5 20.5h428q41 0 64.5 -20.5t23.5 -52.5q0 -39 -20 -63t-70 -44l-45 -18l236 -408h4l225 408l-43 18q-48 20 -68 44.5t-20 62.5q0 32 23.5 52.5t64.5 20.5h348q41 0 64.5 -20.5t23.5 -52.5q0 -38 -20 -63t-64 -44l-49 -20l-387 -637v-340 l103 -31q44 -14 61.5 -32t17.5 -52q0 -38 -27 -62t-73 -24h-450q-46 0 -73.5 24t-27.5 62q0 34 17.5 52t62.5 32l102 31v340l-387 637l-49 20q-46 20 -65 44.5t-19 62.5zM604 1585q0 28 25 53l245 226q25 22 58 22q48 0 90.5 -46t42.5 -99q0 -57 -49 -82l-287 -152 q-20 -10 -39 -10q-34 0 -60 26t-26 62z" />
<glyph unicode="&#xde;" horiz-adv-x="1202" d="M45 86q0 34 17 52.5t61 31.5l96 31v977l-90 28q-46 15 -65 38t-19 61q0 32 23.5 52.5t64.5 20.5h459q41 0 64.5 -20.5t23.5 -52.5q0 -37 -19.5 -59.5t-64.5 -37.5l-90 -28v-60h147q246 0 368 -102t122 -283q0 -197 -144.5 -322.5t-398.5 -125.5h-94v-88l96 -31 q44 -13 61 -31.5t17 -50.5q0 -38 -27 -62t-73 -24h-435q-46 0 -73 24t-27 62zM506 471h115q103 0 164 62t61 169q0 108 -58 166t-167 58h-115v-455z" />
<glyph unicode="&#xdf;" horiz-adv-x="1359" d="M41 918q0 36 17 56t59 32l94 20v27q0 202 138.5 322t398.5 120q183 0 286 -82t103 -199q0 -63 -22 -118t-53.5 -93t-62.5 -71.5t-53 -68.5t-22 -68q0 -37 29.5 -67.5t73 -51.5t95 -51.5t95 -64.5t73 -93.5t29.5 -136.5q0 -153 -108.5 -249.5t-295.5 -96.5q-159 0 -198 39 q-17 17 -25 40t-8 72v15q0 55 2 86q3 37 23.5 56t52.5 19q33 0 52.5 -18.5t35.5 -59.5l20 -55q27 -12 72 -12q119 0 119 102q0 33 -22.5 60t-58.5 48t-79.5 42t-87 48.5t-79.5 61.5t-58.5 87t-22.5 118q0 62 20 114t48.5 87.5t57.5 67.5t49 70t20 79q0 65 -44.5 106 t-119.5 41q-88 0 -141.5 -53t-53.5 -141v-907l29 -13q49 -21 64.5 -41.5t15.5 -56.5q0 -37 -28.5 -61.5t-75.5 -24.5h-349q-46 0 -73 24t-27 62q0 34 17 52.5t61 31.5l88 27v618l-94 21q-41 9 -58.5 28t-17.5 54z" />
<glyph unicode="&#xe0;" horiz-adv-x="1148" d="M86 279q0 130 116 208t345 78q38 0 75.5 -2.5t55.5 -4.5l18 -3v66q0 122 -42.5 169.5t-149.5 47.5q-69 0 -127.5 -11t-96.5 -22.5t-55 -11.5q-35 0 -57.5 22.5t-22.5 58.5q0 33 27 60q41 41 151 73.5t248 32.5q216 0 310 -84t94 -268q0 -36 -1.5 -143.5t0 -184.5 t7.5 -161l78 -13q40 -6 57 -25t17 -55q0 -33 -18.5 -53.5t-57.5 -34.5q-94 -32 -199 -32q-71 0 -104 33t-33 100v10l-4 2q-3 -6 -9.5 -16.5t-31.5 -36.5t-56 -45.5t-85.5 -36t-116.5 -16.5q-147 0 -239.5 86t-92.5 213zM297 1411q0 50 45.5 93.5t97.5 43.5q43 0 74 -45 l176 -237q23 -30 23 -54q0 -35 -25.5 -59.5t-58.5 -24.5q-27 0 -58 25l-233 186q-41 33 -41 72zM375 303q0 -51 39 -85t102 -34q51 0 95.5 18.5t63.5 37.5l19 18v139q-45 13 -125 13q-194 0 -194 -107z" />
<glyph unicode="&#xe1;" horiz-adv-x="1148" d="M86 279q0 130 116 208t345 78q38 0 75.5 -2.5t55.5 -4.5l18 -3v66q0 122 -42.5 169.5t-149.5 47.5q-69 0 -127.5 -11t-96.5 -22.5t-55 -11.5q-35 0 -57.5 22.5t-22.5 58.5q0 33 27 60q41 41 151 73.5t248 32.5q216 0 310 -84t94 -268q0 -36 -1.5 -143.5t0 -184.5 t7.5 -161l78 -13q40 -6 57 -25t17 -55q0 -33 -18.5 -53.5t-57.5 -34.5q-94 -32 -199 -32q-71 0 -104 33t-33 100v10l-4 2q-3 -6 -9.5 -16.5t-31.5 -36.5t-56 -45.5t-85.5 -36t-116.5 -16.5q-147 0 -239.5 86t-92.5 213zM375 303q0 -51 39 -85t102 -34q51 0 95.5 18.5 t63.5 37.5l19 18v139q-45 13 -125 13q-194 0 -194 -107zM461 1212q0 26 22 54l176 237q31 45 74 45q52 0 98 -43.5t46 -93.5q0 -39 -41 -72l-234 -186q-31 -25 -57 -25q-33 0 -58.5 24.5t-25.5 59.5z" />
<glyph unicode="&#xe2;" horiz-adv-x="1148" d="M86 279q0 130 116 208t345 78q38 0 75.5 -2.5t55.5 -4.5l18 -3v66q0 122 -42.5 169.5t-149.5 47.5q-69 0 -127.5 -11t-96.5 -22.5t-55 -11.5q-35 0 -57.5 22.5t-22.5 58.5q0 33 27 60q41 41 151 73.5t248 32.5q216 0 310 -84t94 -268q0 -36 -1.5 -143.5t0 -184.5 t7.5 -161l78 -13q40 -6 57 -25t17 -55q0 -33 -18.5 -53.5t-57.5 -34.5q-94 -32 -199 -32q-71 0 -104 33t-33 100v10l-4 2q-3 -6 -9.5 -16.5t-31.5 -36.5t-56 -45.5t-85.5 -36t-116.5 -16.5q-147 0 -239.5 86t-92.5 213zM262 1214q0 31 23 54l217 217q39 39 84 39 q48 0 84 -39l204 -213q21 -24 21 -49q0 -32 -26 -58t-60 -26q-23 0 -49 16l-187 129l-186 -129q-26 -16 -47 -16q-32 0 -55 22.5t-23 52.5zM375 303q0 -51 39 -85t102 -34q51 0 95.5 18.5t63.5 37.5l19 18v139q-45 13 -125 13q-194 0 -194 -107z" />
<glyph unicode="&#xe3;" horiz-adv-x="1148" d="M86 279q0 130 116 208t345 78q38 0 75.5 -2.5t55.5 -4.5l18 -3v66q0 122 -42.5 169.5t-149.5 47.5q-69 0 -127.5 -11t-96.5 -22.5t-55 -11.5q-35 0 -57.5 22.5t-22.5 58.5q0 33 27 60q41 41 151 73.5t248 32.5q216 0 310 -84t94 -268q0 -36 -1.5 -143.5t0 -184.5 t7.5 -161l78 -13q40 -6 57 -25t17 -55q0 -33 -18.5 -53.5t-57.5 -34.5q-94 -32 -199 -32q-71 0 -104 33t-33 100v10l-4 2q-3 -6 -9.5 -16.5t-31.5 -36.5t-56 -45.5t-85.5 -36t-116.5 -16.5q-147 0 -239.5 86t-92.5 213zM197 1247q0 63 79.5 132t182.5 69q42 0 79.5 -14 t60.5 -30t51 -30t52 -14q32 0 74 39t72 39q32 0 56 -22.5t24 -53.5q0 -63 -79.5 -132t-182.5 -69q-42 0 -79.5 13.5t-61 30.5t-51.5 30.5t-52 13.5q-32 0 -74 -39t-72 -39q-32 0 -55.5 22.5t-23.5 53.5zM375 303q0 -51 39 -85t102 -34q51 0 95.5 18.5t63.5 37.5l19 18v139 q-45 13 -125 13q-194 0 -194 -107z" />
<glyph unicode="&#xe4;" horiz-adv-x="1148" d="M86 279q0 130 116 208t345 78q38 0 75.5 -2.5t55.5 -4.5l18 -3v66q0 122 -42.5 169.5t-149.5 47.5q-69 0 -127.5 -11t-96.5 -22.5t-55 -11.5q-35 0 -57.5 22.5t-22.5 58.5q0 33 27 60q41 41 151 73.5t248 32.5q216 0 310 -84t94 -268q0 -36 -1.5 -143.5t0 -184.5 t7.5 -161l78 -13q40 -6 57 -25t17 -55q0 -33 -18.5 -53.5t-57.5 -34.5q-94 -32 -199 -32q-71 0 -104 33t-33 100v10l-4 2q-3 -6 -9.5 -16.5t-31.5 -36.5t-56 -45.5t-85.5 -36t-116.5 -16.5q-147 0 -239.5 86t-92.5 213zM197 1296q0 68 47 115t114 47q68 0 113 -45t45 -113 q0 -67 -47 -114t-115 -47t-112.5 44.5t-44.5 112.5zM375 303q0 -51 39 -85t102 -34q51 0 95.5 18.5t63.5 37.5l19 18v139q-45 13 -125 13q-194 0 -194 -107zM627 1296q0 68 47 115t114 47q68 0 113 -45t45 -113q0 -67 -47 -114t-115 -47t-112.5 44.5t-44.5 112.5z" />
<glyph unicode="&#xe5;" horiz-adv-x="1148" d="M86 279q0 130 116 208t345 78q38 0 75.5 -2.5t55.5 -4.5l18 -3v66q0 122 -42.5 169.5t-149.5 47.5q-69 0 -127.5 -11t-96.5 -22.5t-55 -11.5q-35 0 -57.5 22.5t-22.5 58.5q0 33 27 60q41 41 151 73.5t248 32.5q216 0 310 -84t94 -268q0 -36 -1.5 -143.5t0 -184.5 t7.5 -161l78 -13q40 -6 57 -25t17 -55q0 -33 -18.5 -53.5t-57.5 -34.5q-94 -32 -199 -32q-71 0 -104 33t-33 100v10l-4 2q-3 -6 -9.5 -16.5t-31.5 -36.5t-56 -45.5t-85.5 -36t-116.5 -16.5q-147 0 -239.5 86t-92.5 213zM299 1352q0 108 79.5 176.5t203.5 68.5t199 -64.5 t75 -172.5t-80 -177t-203 -69q-124 0 -199 65t-75 173zM375 303q0 -51 39 -85t102 -34q51 0 95.5 18.5t63.5 37.5l19 18v139q-45 13 -125 13q-194 0 -194 -107zM479 1356q0 -46 28 -75.5t71 -29.5t70.5 29.5t27.5 75.5t-27.5 75t-70.5 29t-71 -29t-28 -75z" />
<glyph unicode="&#xe6;" horiz-adv-x="1701" d="M88 279q0 130 116 208t345 78q38 0 75.5 -2.5t55.5 -4.5l18 -3v66q0 122 -42.5 169.5t-149.5 47.5q-69 0 -127.5 -11t-96.5 -22.5t-55 -11.5q-35 0 -57.5 22.5t-22.5 58.5q0 33 27 60q41 41 151 73.5t248 32.5q140 0 209.5 -33t98.5 -94q116 129 327 129 q193 0 300.5 -110t107.5 -311q0 -77 -36.5 -116.5t-104.5 -39.5h-502q14 -139 92 -212t215 -73q72 0 140 18.5t83 18.5q33 0 51.5 -19.5t18.5 -54.5q0 -38 -31 -69q-39 -39 -127.5 -68t-212.5 -29q-272 0 -405 166q-5 -7 -14.5 -18t-43 -39t-71.5 -49.5t-100.5 -39 t-129.5 -17.5q-159 0 -254.5 85.5t-95.5 213.5zM377 303q0 -52 42.5 -85.5t117.5 -33.5q58 0 106 20t67 40l19 20q-21 61 -27 131q-43 15 -131 15q-194 0 -194 -107zM977 623h366q-3 116 -47.5 171.5t-121.5 55.5q-80 0 -132 -60t-65 -167z" />
<glyph unicode="&#xe7;" horiz-adv-x="974" d="M82 469q0 258 153.5 415.5t399.5 157.5q162 0 223 -61q18 -18 24.5 -44.5t6.5 -94.5v-19q0 -55 -2 -114q-1 -41 -23 -61.5t-57 -20.5q-63 0 -90 82l-41 129q-23 10 -66 10q-109 0 -176 -86.5t-67 -257.5q0 -161 71.5 -242.5t202.5 -81.5q55 0 112.5 15.5t69.5 15.5 q33 0 51.5 -19.5t18.5 -54.5q0 -38 -31 -69q-35 -35 -103.5 -60t-148.5 -28l-14 -58q91 -6 149 -52.5t58 -131.5q0 -98 -93.5 -164t-256.5 -66q-144 0 -144 82q0 27 18 45.5t48 18.5q12 0 32.5 -1t34.5 -1q90 0 90 59q0 53 -81 53q-24 0 -34 15t-3 39l43 170 q-165 25 -270 147.5t-105 333.5z" />
<glyph unicode="&#xe8;" horiz-adv-x="1089" d="M82 483q0 258 142 408.5t372 150.5q193 0 300.5 -110t107.5 -311q0 -77 -37 -116.5t-105 -39.5h-502q14 -139 92.5 -212t215.5 -73q72 0 140 18.5t83 18.5q33 0 51.5 -19.5t18.5 -54.5q0 -38 -31 -69q-39 -39 -127.5 -68t-212.5 -29q-243 0 -375.5 132t-132.5 374z M276 1411q0 50 46 93.5t98 43.5q43 0 74 -45l176 -237q22 -28 22 -54q0 -35 -25.5 -59.5t-58.5 -24.5q-26 0 -57 25l-234 186q-41 33 -41 72zM365 623h366q-3 116 -48 171.5t-122 55.5q-79 0 -130.5 -60t-65.5 -167z" />
<glyph unicode="&#xe9;" horiz-adv-x="1089" d="M82 483q0 258 142 408.5t372 150.5q193 0 300.5 -110t107.5 -311q0 -77 -37 -116.5t-105 -39.5h-502q14 -139 92.5 -212t215.5 -73q72 0 140 18.5t83 18.5q33 0 51.5 -19.5t18.5 -54.5q0 -38 -31 -69q-39 -39 -127.5 -68t-212.5 -29q-243 0 -375.5 132t-132.5 374z M365 623h366q-3 116 -48 171.5t-122 55.5q-79 0 -130.5 -60t-65.5 -167zM424 1212q0 26 22 54l177 237q31 45 73 45q52 0 98 -43.5t46 -93.5q0 -39 -41 -72l-234 -186q-31 -25 -57 -25q-33 0 -58.5 24.5t-25.5 59.5z" />
<glyph unicode="&#xea;" horiz-adv-x="1089" d="M82 483q0 258 142 408.5t372 150.5q193 0 300.5 -110t107.5 -311q0 -77 -37 -116.5t-105 -39.5h-502q14 -139 92.5 -212t215.5 -73q72 0 140 18.5t83 18.5q33 0 51.5 -19.5t18.5 -54.5q0 -38 -31 -69q-39 -39 -127.5 -68t-212.5 -29q-243 0 -375.5 132t-132.5 374z M246 1214q0 32 22 54l217 217q39 39 84 39q48 0 84 -39l205 -213q21 -24 21 -49q0 -32 -26 -58t-60 -26q-24 0 -50 16l-186 129l-186 -129q-26 -16 -47 -16q-32 0 -55 22.5t-23 52.5zM365 623h366q-3 116 -48 171.5t-122 55.5q-79 0 -130.5 -60t-65.5 -167z" />
<glyph unicode="&#xeb;" horiz-adv-x="1089" d="M82 483q0 258 142 408.5t372 150.5q193 0 300.5 -110t107.5 -311q0 -77 -37 -116.5t-105 -39.5h-502q14 -139 92.5 -212t215.5 -73q72 0 140 18.5t83 18.5q33 0 51.5 -19.5t18.5 -54.5q0 -38 -31 -69q-39 -39 -127.5 -68t-212.5 -29q-243 0 -375.5 132t-132.5 374z M193 1296q0 68 47 115t114 47q68 0 113 -45t45 -113q0 -67 -47 -114t-115 -47t-112.5 44.5t-44.5 112.5zM365 623h366q-3 116 -48 171.5t-122 55.5q-79 0 -130.5 -60t-65.5 -167zM623 1296q0 68 47 115t114 47q68 0 113 -45t45 -113q0 -67 -47 -114t-115 -47t-112.5 44.5 t-44.5 112.5z" />
<glyph unicode="&#xec;" horiz-adv-x="669" d="M41 918q0 36 17 56t59 32q100 28 213 28q91 0 125 -34.5t34 -125.5v-677l84 -25q38 -10 54 -28.5t16 -49.5q0 -42 -27.5 -68t-74.5 -26h-396q-46 0 -73 24t-27 62q0 34 17 52.5t61 31.5l88 27v618l-94 21q-41 9 -58.5 28t-17.5 54zM68 1411q0 50 45.5 93.5t97.5 43.5 q43 0 74 -45l176 -237q22 -28 22 -54q0 -35 -25.5 -59.5t-58.5 -24.5q-26 0 -57 25l-233 186q-41 33 -41 72z" />
<glyph unicode="&#xed;" horiz-adv-x="669" d="M41 918q0 36 17 56t59 32q100 28 213 28q91 0 125 -34.5t34 -125.5v-677l84 -25q38 -10 54 -28.5t16 -49.5q0 -42 -27.5 -68t-74.5 -26h-396q-46 0 -73 24t-27 62q0 34 17 52.5t61 31.5l88 27v618l-94 21q-41 9 -58.5 28t-17.5 54zM195 1212q0 26 22 54l176 237 q31 45 74 45q52 0 97.5 -43.5t45.5 -93.5q0 -39 -41 -72l-233 -186q-31 -25 -57 -25q-33 0 -58.5 24.5t-25.5 59.5z" />
<glyph unicode="&#xee;" horiz-adv-x="669" d="M25 1214q0 32 22 54l207 217q36 39 86 39q53 0 86 -39l195 -213q20 -23 20 -51q0 -34 -25.5 -58t-60.5 -24q-28 0 -49 16l-178 133l-178 -133q-24 -16 -50 -16q-30 0 -52.5 22.5t-22.5 52.5zM41 918q0 36 17 56t59 32q100 28 213 28q91 0 125 -34.5t34 -125.5v-677 l84 -25q38 -10 54 -28.5t16 -49.5q0 -42 -27.5 -68t-74.5 -26h-396q-46 0 -73 24t-27 62q0 34 17 52.5t61 31.5l88 27v618l-94 21q-41 9 -58.5 28t-17.5 54z" />
<glyph unicode="&#xef;" horiz-adv-x="669" d="M-10 1296q0 69 43.5 114.5t109.5 45.5t108 -43.5t42 -112.5t-44 -114t-110 -45t-107.5 43t-41.5 112zM41 918q0 36 17 56t59 32q100 28 213 28q91 0 125 -34.5t34 -125.5v-677l84 -25q38 -10 54 -28.5t16 -49.5q0 -42 -27.5 -68t-74.5 -26h-396q-46 0 -73 24t-27 62 q0 34 17 52.5t61 31.5l88 27v618l-94 21q-41 9 -58.5 28t-17.5 54zM387 1296q0 69 44 114.5t110 45.5t107.5 -43.5t41.5 -112.5t-43.5 -114t-109.5 -45t-108 43t-42 112z" />
<glyph unicode="&#xf0;" horiz-adv-x="1181" d="M82 469q0 249 150.5 399t400.5 150q24 0 46.5 -2t32.5 -4l11 -2l4 4q-41 102 -111 176l-151 -111q-27 -18 -53 -18q-36 0 -63 25.5t-27 60.5q0 39 36 65l107 76q-52 22 -137 31q-72 6 -72 74q0 46 43 74t117 28q133 0 250 -63l139 100q26 18 55 18q37 0 62.5 -25.5 t25.5 -60.5q0 -36 -35 -61l-104 -76q53 -49 100.5 -115t90.5 -156t68.5 -209t25.5 -251q0 -299 -144 -459t-387 -160q-156 0 -266.5 67t-162.5 176.5t-52 248.5zM369 504q0 -151 66.5 -240.5t166.5 -89.5q219 0 219 369q0 62 -7.5 125.5t-15.5 95.5l-7 33q-64 30 -168 30 q-115 0 -184.5 -83t-69.5 -240z" />
<glyph unicode="&#xf1;" horiz-adv-x="1327" d="M41 918q0 -35 17.5 -54t58.5 -28l94 -21v-618l-88 -27q-44 -13 -61 -31.5t-17 -52.5q0 -38 27 -62t73 -24h394q46 0 73 24t27 62q0 34 -17 53.5t-59 32.5l-74 25v538q3 4 8 10.5t23.5 23t39.5 29t54 23t68 10.5q97 0 144.5 -58t47.5 -191v-385l-73 -25q-42 -13 -59 -32.5 t-17 -53.5q0 -38 27 -62t73 -24h381q46 0 73.5 24t27.5 62q0 34 -17 53.5t-59 32.5l-78 25v450q0 192 -96.5 292.5t-274.5 100.5q-68 0 -126 -17.5t-91.5 -42t-57.5 -49t-33 -41.5l-9 -18l-4 2v27q0 72 -31.5 102.5t-107.5 30.5q-105 0 -205 -28q-42 -12 -59 -32t-17 -56z M276 1247q0 63 80 132t183 69q42 0 79.5 -14t60.5 -30t51 -30t52 -14q32 0 74 39t72 39q32 0 56 -22.5t24 -53.5q0 -63 -80 -132t-183 -69q-42 0 -79.5 13.5t-60.5 30.5t-51 30.5t-52 13.5q-32 0 -74 -39t-72 -39q-32 0 -56 22.5t-24 53.5z" />
<glyph unicode="&#xf2;" horiz-adv-x="1208" d="M82 481q0 253 152 407t399 154q231 0 362 -133t131 -370q0 -255 -149 -408.5t-402 -153.5q-231 0 -362 133.5t-131 370.5zM305 1411q0 50 46 93.5t98 43.5q42 0 73 -45l176 -237q23 -30 23 -54q0 -35 -25.5 -59.5t-58.5 -24.5q-26 0 -57 25l-234 186q-41 33 -41 72z M369 514q0 -166 67.5 -253t171.5 -87t168 83t64 249q0 165 -68 252.5t-172 87.5t-167.5 -83t-63.5 -249z" />
<glyph unicode="&#xf3;" horiz-adv-x="1208" d="M82 481q0 253 152 407t399 154q231 0 362 -133t131 -370q0 -255 -149 -408.5t-402 -153.5q-231 0 -362 133.5t-131 370.5zM369 514q0 -166 67.5 -253t171.5 -87t168 83t64 249q0 165 -68 252.5t-172 87.5t-167.5 -83t-63.5 -249zM459 1212q0 26 22 54l176 237 q31 45 74 45q52 0 97.5 -43.5t45.5 -93.5q0 -40 -40 -72l-234 -186q-31 -25 -57 -25q-33 0 -58.5 24.5t-25.5 59.5z" />
<glyph unicode="&#xf4;" horiz-adv-x="1208" d="M82 481q0 253 152 407t399 154q231 0 362 -133t131 -370q0 -255 -149 -408.5t-402 -153.5q-231 0 -362 133.5t-131 370.5zM287 1214q0 32 22 54l217 217q39 39 84 39q48 0 84 -39l205 -213q21 -24 21 -49q0 -32 -26 -58t-60 -26q-24 0 -50 16l-186 129l-186 -129 q-26 -16 -47 -16q-32 0 -55 22.5t-23 52.5zM369 514q0 -166 67.5 -253t171.5 -87t168 83t64 249q0 165 -68 252.5t-172 87.5t-167.5 -83t-63.5 -249z" />
<glyph unicode="&#xf5;" horiz-adv-x="1208" d="M82 481q0 253 152 407t399 154q231 0 362 -133t131 -370q0 -255 -149 -408.5t-402 -153.5q-231 0 -362 133.5t-131 370.5zM233 1247q0 63 80 132t183 69q42 0 79.5 -14t60.5 -30t51 -30t52 -14q32 0 74 39t72 39q32 0 56 -22.5t24 -53.5q0 -63 -80 -132t-183 -69 q-42 0 -79.5 13.5t-60.5 30.5t-51 30.5t-52 13.5q-32 0 -74 -39t-72 -39q-32 0 -56 22.5t-24 53.5zM369 514q0 -166 67.5 -253t171.5 -87t168 83t64 249q0 165 -68 252.5t-172 87.5t-167.5 -83t-63.5 -249z" />
<glyph unicode="&#xf6;" horiz-adv-x="1208" d="M82 481q0 253 152 407t399 154q231 0 362 -133t131 -370q0 -255 -149 -408.5t-402 -153.5q-231 0 -362 133.5t-131 370.5zM227 1296q0 68 47.5 115t114.5 47t112.5 -45t45.5 -113q0 -67 -47 -114t-115 -47t-113 45t-45 112zM369 514q0 -166 67.5 -253t171.5 -87t168 83 t64 249q0 165 -68 252.5t-172 87.5t-167.5 -83t-63.5 -249zM657 1296q0 68 47.5 115t114.5 47t112.5 -45t45.5 -113q0 -67 -47 -114t-115 -47t-113 45t-45 112z" />
<glyph unicode="&#xf7;" d="M92 584q0 44 26.5 71t69.5 27h707q44 0 70 -27t26 -71q0 -45 -26 -72t-70 -27h-707q-43 0 -69.5 27.5t-26.5 71.5zM403 238q0 58 40.5 98.5t99.5 40.5t99 -40.5t40 -98.5q0 -59 -40.5 -99.5t-98.5 -40.5q-59 0 -99.5 41t-40.5 99zM403 930q0 58 40.5 98.5t99.5 40.5 t99 -40.5t40 -98.5t-40 -98.5t-99 -40.5t-99.5 40.5t-40.5 98.5z" />
<glyph unicode="&#xf8;" horiz-adv-x="1216" d="M82 481q0 253 153 407t402 154q96 0 168 -20l72 121q37 63 94 63q35 0 64.5 -25.5t29.5 -62.5q0 -30 -27 -76l-63 -106q160 -142 160 -397q0 -253 -153 -407.5t-402 -154.5q-93 0 -168 21l-72 -121q-38 -63 -90 -63q-39 0 -68.5 25t-29.5 61q0 32 26 77l64 107 q-160 142 -160 397zM360 514q0 -120 29 -192l307 512q-40 16 -92 16q-109 0 -176.5 -84.5t-67.5 -251.5zM520 186q40 -16 92 -16q109 0 176.5 84.5t67.5 251.5q0 119 -29 192z" />
<glyph unicode="&#xf9;" horiz-adv-x="1292" d="M16 918q0 -36 17.5 -55.5t58.5 -28.5l82 -19v-453q0 -188 94.5 -285t270.5 -97q69 0 127 17t92 41.5t58 49.5t33 42l9 17l4 -2v-26q0 -67 33 -100t104 -33q101 0 195 32q39 14 57.5 34.5t18.5 53.5q0 36 -16.5 54.5t-57.5 25.5l-84 15v673q0 91 -34.5 125.5t-125.5 34.5 q-113 0 -213 -28q-41 -12 -58 -31.5t-17 -56.5q0 -35 17 -54t58 -28l95 -21v-530q-3 -4 -8 -10.5t-24 -23t-39.5 -29.5t-54 -23.5t-69.5 -10.5q-95 0 -140.5 55.5t-45.5 184.5v446q0 91 -34.5 125.5t-125.5 34.5q-103 0 -201 -28q-42 -12 -59 -32t-17 -56zM297 1411 q0 50 45.5 93.5t97.5 43.5q43 0 74 -45l176 -237q23 -30 23 -54q0 -35 -25.5 -59.5t-58.5 -24.5q-27 0 -58 25l-233 186q-41 33 -41 72z" />
<glyph unicode="&#xfa;" horiz-adv-x="1292" d="M16 918q0 -36 17.5 -55.5t58.5 -28.5l82 -19v-453q0 -188 94.5 -285t270.5 -97q69 0 127 17t92 41.5t58 49.5t33 42l9 17l4 -2v-26q0 -67 33 -100t104 -33q101 0 195 32q39 14 57.5 34.5t18.5 53.5q0 36 -16.5 54.5t-57.5 25.5l-84 15v673q0 91 -34.5 125.5t-125.5 34.5 q-113 0 -213 -28q-41 -12 -58 -31.5t-17 -56.5q0 -35 17 -54t58 -28l95 -21v-530q-3 -4 -8 -10.5t-24 -23t-39.5 -29.5t-54 -23.5t-69.5 -10.5q-95 0 -140.5 55.5t-45.5 184.5v446q0 91 -34.5 125.5t-125.5 34.5q-103 0 -201 -28q-42 -12 -59 -32t-17 -56zM502 1212 q0 26 22 54l176 237q31 45 74 45q52 0 98 -43.5t46 -93.5q0 -39 -41 -72l-234 -186q-31 -25 -57 -25q-33 0 -58.5 24.5t-25.5 59.5z" />
<glyph unicode="&#xfb;" horiz-adv-x="1292" d="M16 918q0 -36 17.5 -55.5t58.5 -28.5l82 -19v-453q0 -188 94.5 -285t270.5 -97q69 0 127 17t92 41.5t58 49.5t33 42l9 17l4 -2v-26q0 -67 33 -100t104 -33q101 0 195 32q39 14 57.5 34.5t18.5 53.5q0 36 -16.5 54.5t-57.5 25.5l-84 15v673q0 91 -34.5 125.5t-125.5 34.5 q-113 0 -213 -28q-41 -12 -58 -31.5t-17 -56.5q0 -35 17 -54t58 -28l95 -21v-530q-3 -4 -8 -10.5t-24 -23t-39.5 -29.5t-54 -23.5t-69.5 -10.5q-95 0 -140.5 55.5t-45.5 184.5v446q0 91 -34.5 125.5t-125.5 34.5q-103 0 -201 -28q-42 -12 -59 -32t-17 -56zM305 1214 q0 31 23 54l217 217q39 39 84 39q48 0 84 -39l205 -213q20 -23 20 -49q0 -32 -26 -58t-60 -26q-23 0 -49 16l-187 129l-186 -129q-26 -16 -47 -16q-32 0 -55 22.5t-23 52.5z" />
<glyph unicode="&#xfc;" horiz-adv-x="1292" d="M16 918q0 -36 17.5 -55.5t58.5 -28.5l82 -19v-453q0 -188 94.5 -285t270.5 -97q69 0 127 17t92 41.5t58 49.5t33 42l9 17l4 -2v-26q0 -67 33 -100t104 -33q101 0 195 32q39 14 57.5 34.5t18.5 53.5q0 36 -16.5 54.5t-57.5 25.5l-84 15v673q0 91 -34.5 125.5t-125.5 34.5 q-113 0 -213 -28q-41 -12 -58 -31.5t-17 -56.5q0 -35 17 -54t58 -28l95 -21v-530q-3 -4 -8 -10.5t-24 -23t-39.5 -29.5t-54 -23.5t-69.5 -10.5q-95 0 -140.5 55.5t-45.5 184.5v446q0 91 -34.5 125.5t-125.5 34.5q-103 0 -201 -28q-42 -12 -59 -32t-17 -56zM236 1296 q0 68 47 115t114 47t112.5 -45t45.5 -113q0 -67 -47 -114t-115 -47q-67 0 -112 44.5t-45 112.5zM666 1296q0 68 47 115t114 47t112.5 -45t45.5 -113q0 -67 -47 -114t-115 -47q-67 0 -112 44.5t-45 112.5z" />
<glyph unicode="&#xfd;" horiz-adv-x="1222" d="M16 946q0 33 23 53.5t65 20.5h353q42 0 65 -20.5t23 -53.5q0 -35 -18.5 -57t-67.5 -45l-35 -17l149 -395l64 -190h4q25 90 64 194l147 391l-35 17q-49 23 -67.5 45t-18.5 57q0 33 23 53.5t65 20.5h299q42 0 65 -20.5t23 -53.5q0 -74 -84 -108l-35 -15l-282 -692 q-61 -149 -125 -260t-121.5 -177t-120 -106.5t-116 -54.5t-113.5 -14q-89 0 -137.5 37.5t-48.5 105.5q0 57 29 92t71 35q28 0 72 -11t88 -11q72 0 121 42.5t90 133.5l-359 880l-35 15q-84 34 -84 108zM545 1212q0 26 22 54l176 237q31 45 74 45q52 0 98 -43.5t46 -93.5 q0 -39 -41 -72l-234 -186q-31 -25 -57 -25q-33 0 -58.5 24.5t-25.5 59.5z" />
<glyph unicode="&#xfe;" horiz-adv-x="1134" d="M-74 1370q0 36 17 56t59 32q102 29 201 29q91 0 125 -34.5t34 -125.5v-256q0 -79 -14 -172l4 -2q3 6 10 15.5t32.5 34t57 43.5t86.5 34.5t117 15.5q186 0 292 -123.5t106 -365.5q0 -272 -151.5 -423t-426.5 -151q-29 0 -57.5 3.5t-41.5 6.5l-14 3l-4 -4q4 -58 4 -105 v-153l89 -27q44 -13 60.5 -31.5t16.5 -52.5q0 -38 -27 -62t-73 -24h-397q-46 0 -73.5 24t-27.5 62q0 34 16 53t54 31l84 27v1540l-82 18q-41 9 -58.5 28.5t-17.5 55.5zM362 213q6 -4 18 -10.5t52 -17.5t84 -11q250 0 250 344q0 160 -57.5 236.5t-153.5 76.5q-35 0 -68 -10 t-54.5 -24t-38 -28t-24.5 -24l-8 -10v-522z" />
<glyph unicode="&#xff;" horiz-adv-x="1222" d="M16 946q0 33 23 53.5t65 20.5h353q42 0 65 -20.5t23 -53.5q0 -35 -18.5 -57t-67.5 -45l-35 -17l149 -395l64 -190h4q25 90 64 194l147 391l-35 17q-49 23 -67.5 45t-18.5 57q0 33 23 53.5t65 20.5h299q42 0 65 -20.5t23 -53.5q0 -74 -84 -108l-35 -15l-282 -692 q-61 -149 -125 -260t-121.5 -177t-120 -106.5t-116 -54.5t-113.5 -14q-89 0 -137.5 37.5t-48.5 105.5q0 57 29 92t71 35q28 0 72 -11t88 -11q72 0 121 42.5t90 133.5l-359 880l-35 15q-84 34 -84 108zM270 1296q0 68 47 115t115 47t113 -45t45 -113q0 -67 -47 -114t-115 -47 t-113 45t-45 112zM700 1296q0 68 47 115t115 47t113 -45t45 -113q0 -67 -47 -114t-115 -47t-113 45t-45 112z" />
<glyph unicode="&#x152;" horiz-adv-x="1929" d="M82 659q0 223 89 392t247.5 259.5t363.5 90.5q64 0 122.5 -5.5t85.5 -11.5l26 -6h676q68 0 100 -32q18 -18 23.5 -42t5.5 -83v-25q0 -64 -2 -111q-3 -81 -84 -81q-71 0 -97 79l-32 101h-367v-400h272l21 54q15 39 35 55t53 16q78 0 78 -90v-252q0 -90 -78 -90 q-32 0 -52.5 17.5t-35.5 56.5l-21 51h-272v-407h393l35 110q23 80 96 80q81 0 84 -82q2 -45 2 -110v-35q0 -60 -5.5 -84t-22.5 -41q-33 -33 -101 -33h-759q-93 -23 -234 -23q-297 0 -471 181t-174 501zM383 692q0 -248 108.5 -380t282.5 -132q49 0 93.5 8t64.5 16l20 9v952 q-63 33 -186 33q-174 0 -278.5 -128.5t-104.5 -377.5z" />
<glyph unicode="&#x153;" horiz-adv-x="1847" d="M82 481q0 253 152 407t399 154q127 0 209 -39.5t145 -113.5q145 153 367 153q193 0 300 -109.5t107 -311.5q0 -77 -36.5 -116.5t-104.5 -39.5h-502q14 -139 92 -212t215 -73q72 0 140.5 18.5t83.5 18.5q32 0 50.5 -19.5t18.5 -54.5q0 -39 -30 -69q-39 -39 -127.5 -68 t-212.5 -29q-263 0 -379 158q-142 -158 -394 -158q-231 0 -362 133.5t-131 370.5zM369 514q0 -166 67.5 -253t171.5 -87t168 83t64 249q0 165 -68 252.5t-172 87.5t-167.5 -83t-63.5 -249zM1122 623h367q-3 116 -48 171.5t-122 55.5q-80 0 -132 -60t-65 -167z" />
<glyph unicode="&#x178;" horiz-adv-x="1351" d="M12 1305q0 32 23.5 52.5t64.5 20.5h428q41 0 64.5 -20.5t23.5 -52.5q0 -39 -20 -63t-70 -44l-45 -18l236 -408h4l225 408l-43 18q-48 20 -68 44.5t-20 62.5q0 32 23.5 52.5t64.5 20.5h348q41 0 64.5 -20.5t23.5 -52.5q0 -38 -20 -63t-64 -44l-49 -20l-387 -637v-340 l103 -31q44 -14 61.5 -32t17.5 -52q0 -38 -27 -62t-73 -24h-450q-46 0 -73.5 24t-27.5 62q0 34 17.5 52t62.5 32l102 31v340l-387 637l-49 20q-46 20 -65 44.5t-19 62.5zM332 1651q0 71 47 117.5t117 46.5t114.5 -44.5t44.5 -115.5t-46.5 -117.5t-116.5 -46.5t-115 44.5 t-45 115.5zM774 1651q0 71 47 117.5t117 46.5t115 -44.5t45 -115.5t-47 -117.5t-117 -46.5t-115 44.5t-45 115.5z" />
<glyph unicode="&#x2c6;" horiz-adv-x="1024" d="M195 1214q0 32 22 54l217 217q39 39 84 39q48 0 84 -39l205 -213q20 -23 20 -49q0 -32 -26 -58t-60 -26q-23 0 -49 16l-186 129l-187 -129q-26 -16 -47 -16q-32 0 -54.5 22.5t-22.5 52.5z" />
<glyph unicode="&#x2dc;" horiz-adv-x="1024" d="M145 1247q0 63 80 132t183 69q42 0 79.5 -14t60.5 -30t51 -30t52 -14q32 0 74 39t72 39q32 0 56 -22.5t24 -53.5q0 -63 -80 -132t-183 -69q-42 0 -79.5 13.5t-60.5 30.5t-51 30.5t-52 13.5q-32 0 -74 -39t-72 -39q-32 0 -56 22.5t-24 53.5z" />
<glyph unicode="&#x2000;" horiz-adv-x="986" />
<glyph unicode="&#x2001;" horiz-adv-x="1972" />
<glyph unicode="&#x2002;" horiz-adv-x="986" />
<glyph unicode="&#x2003;" horiz-adv-x="1972" />
<glyph unicode="&#x2004;" horiz-adv-x="657" />
<glyph unicode="&#x2005;" horiz-adv-x="493" />
<glyph unicode="&#x2006;" horiz-adv-x="328" />
<glyph unicode="&#x2007;" horiz-adv-x="328" />
<glyph unicode="&#x2008;" horiz-adv-x="246" />
<glyph unicode="&#x2009;" horiz-adv-x="394" />
<glyph unicode="&#x200a;" horiz-adv-x="109" />
<glyph unicode="&#x2010;" horiz-adv-x="925" d="M117 530q0 121 114 121h486q92 0 92 -88q0 -121 -115 -121h-485q-92 0 -92 88z" />
<glyph unicode="&#x2011;" horiz-adv-x="925" d="M117 530q0 121 114 121h486q92 0 92 -88q0 -121 -115 -121h-485q-92 0 -92 88z" />
<glyph unicode="&#x2012;" horiz-adv-x="925" d="M117 530q0 121 114 121h486q92 0 92 -88q0 -121 -115 -121h-485q-92 0 -92 88z" />
<glyph unicode="&#x2013;" d="M0 530q0 121 115 121h878q92 0 92 -88q0 -121 -114 -121h-879q-92 0 -92 88z" />
<glyph unicode="&#x2014;" horiz-adv-x="2048" d="M143 530q0 121 115 121h1554q93 0 93 -88q0 -121 -115 -121h-1554q-93 0 -93 88z" />
<glyph unicode="&#x2018;" horiz-adv-x="604" d="M127 1038q0 122 80 252.5t164 184.5q44 27 94 24q24 -2 41.5 -17.5t17.5 -41.5q0 -21 -16 -44.5t-37 -46.5t-47.5 -71t-42.5 -109q98 -58 98 -159q0 -74 -51 -126.5t-127 -52.5q-79 0 -126.5 55.5t-47.5 151.5z" />
<glyph unicode="&#x2019;" horiz-adv-x="604" d="M80 887q0 21 16 44.5t37 46t47.5 70.5t42.5 109q-98 58 -98 160q0 74 51 126t127 52q79 0 126.5 -55.5t47.5 -151.5q0 -122 -80 -252t-164 -184q-45 -28 -94 -25q-24 2 -41.5 18t-17.5 42z" />
<glyph unicode="&#x201a;" horiz-adv-x="604" d="M80 -274q0 21 16 44.5t37 46t47.5 70.5t42.5 109q-98 58 -98 160q0 74 51 126t127 52q79 0 126.5 -55.5t47.5 -151.5q0 -122 -80 -252t-164 -184q-45 -28 -94 -25q-24 2 -41.5 18t-17.5 42z" />
<glyph unicode="&#x201c;" horiz-adv-x="1089" d="M127 1040q0 122 80 252.5t164 184.5q44 27 94 24q24 -2 41.5 -17.5t17.5 -41.5q0 -21 -16 -44.5t-37 -46.5t-47.5 -71t-42.5 -109q98 -58 98 -159q0 -74 -51 -126t-127 -52q-79 0 -126.5 55t-47.5 151zM612 1040q0 122 80 252.5t164 184.5q44 27 94 24q24 -2 42 -17.5 t18 -41.5q0 -21 -16 -44.5t-37.5 -46.5t-48 -71t-42.5 -109q99 -59 99 -159q0 -74 -51.5 -126t-127.5 -52q-79 0 -126.5 55t-47.5 151z" />
<glyph unicode="&#x201d;" horiz-adv-x="1089" d="M80 887q0 21 16 44.5t37 46t47.5 70.5t42.5 109q-98 58 -98 160q0 74 51 126t127 52q79 0 126.5 -55.5t47.5 -151.5q0 -122 -80 -252t-164 -184q-45 -28 -94 -25q-24 2 -41.5 18t-17.5 42zM565 887q0 21 16 44.5t37.5 46t48 70.5t42.5 109q-99 59 -99 160q0 74 51 126 t127 52q79 0 127 -55.5t48 -151.5q0 -122 -80 -252t-164 -184q-45 -28 -94 -25q-24 2 -42 18t-18 42z" />
<glyph unicode="&#x201e;" horiz-adv-x="1089" d="M80 -274q0 21 16 44.5t37 46t47.5 70.5t42.5 109q-98 58 -98 160q0 74 51 126t127 52q79 0 126.5 -55.5t47.5 -151.5q0 -122 -80 -252t-164 -184q-45 -28 -94 -25q-24 2 -41.5 18t-17.5 42zM565 -274q0 21 16 44.5t37.5 46t48 70.5t42.5 109q-99 59 -99 160q0 74 51 126 t127 52q79 0 127 -55.5t48 -151.5q0 -122 -80 -252t-164 -184q-45 -28 -94 -25q-24 2 -42 18t-18 42z" />
<glyph unicode="&#x2022;" horiz-adv-x="974" d="M190 702q0 129 85 214t214 85t212 -82.5t83 -211.5t-85 -214t-214 -85t-212 82.5t-83 211.5z" />
<glyph unicode="&#x2026;" horiz-adv-x="1785" d="M127 156q0 78 52 130t130 52t128 -50t50 -128t-52 -130.5t-130 -52.5t-128 50.5t-50 128.5zM713 156q0 78 52 130t130 52t128 -50t50 -128t-52 -130.5t-130 -52.5t-128 50.5t-50 128.5zM1298 156q0 78 52.5 130t130.5 52t128 -50t50 -128t-52 -130.5t-130 -52.5 t-128.5 50.5t-50.5 128.5z" />
<glyph unicode="&#x202f;" horiz-adv-x="394" />
<glyph unicode="&#x2039;" horiz-adv-x="735" d="M82 510q0 47 43 90l315 330q37 37 80 37q44 0 76.5 -27.5t32.5 -67.5q0 -28 -25 -67l-207 -289l213 -297q23 -35 23 -65q0 -43 -36 -74t-81 -31t-80 35l-311 336q-43 49 -43 90z" />
<glyph unicode="&#x203a;" horiz-adv-x="735" d="M102 862q0 43 36 74t81 31t80 -35l311 -336q43 -49 43 -90q0 -47 -43 -90l-315 -330q-37 -37 -80 -37q-44 0 -76.5 27t-32.5 67q0 29 25 68l207 289l-213 297q-23 34 -23 65z" />
<glyph unicode="&#x205f;" horiz-adv-x="493" />
<glyph unicode="&#x20ac;" horiz-adv-x="1255" d="M27 518q0 94 110 94h45q-2 55 4 131h-75q-84 0 -84 76q0 94 110 94h80q66 228 236 356t409 128q90 0 156 -18t94 -46q19 -19 26 -45t7 -90v-18q0 -72 -2 -117q-1 -41 -23 -61.5t-57 -20.5q-66 0 -90 82l-39 129q-33 16 -107 16q-267 0 -340 -295h289q84 0 84 -75 q0 -45 -28 -70t-82 -25h-287q0 -107 2 -131h311q84 0 84 -75q0 -45 -28 -70t-82 -25h-254q45 -133 143 -196.5t229 -63.5q78 0 141 16.5t74 16.5q34 0 52 -20.5t18 -55.5q0 -36 -31 -67q-39 -39 -122 -65.5t-195 -26.5q-230 0 -389 116t-213 346h-92q-84 0 -84 76z" />
<glyph unicode="&#x2122;" horiz-adv-x="1890" d="M92 1266v16q0 57 19 76q20 20 63 20h479q44 0 64 -20q18 -18 18 -76v-16q0 -35 -2 -78q-3 -62 -53 -62q-46 0 -66 58l-18 53h-72v-399l21 -11q33 -17 45 -31t12 -36q0 -27 -19 -43.5t-53 -16.5h-233q-34 0 -53 16.5t-19 43.5q0 22 12 36t46 31l20 11v399h-72l-18 -53 q-20 -58 -66 -58q-50 0 -53 62q-2 43 -2 78zM760 760q0 20 10 33t39 32l16 11l64 405l-15 8q-32 19 -45.5 34t-13.5 40q0 24 17.5 39.5t48.5 15.5h198q73 0 88 -63l80 -328l27 -123h2l27 121l81 330q15 63 89 63h223q31 0 48 -15.5t17 -39.5q0 -25 -13.5 -40t-45.5 -34 l-14 -8l63 -405l16 -11q30 -19 40 -32t10 -33q0 -27 -19 -43.5t-53 -16.5h-215q-34 0 -53 16.5t-19 43.5q0 21 9.5 33t39.5 30l15 8l-23 216l-10 141h-2l-103 -383q-16 -60 -43 -85.5t-86 -25.5t-86 25.5t-43 85.5l-102 383h-2l-10 -141l-23 -216l15 -8q30 -18 39.5 -30 t9.5 -33q0 -27 -19 -43.5t-53 -16.5h-150q-34 0 -52.5 16.5t-18.5 43.5z" />
<glyph unicode="&#x25fc;" horiz-adv-x="1024" d="M0 0v1024h1024v-1024h-1024z" />
<glyph unicode="&#xfb01;" horiz-adv-x="1325" d="M41 911q0 50 30 79.5t85 29.5h55v33q0 202 137 322t393 120q187 0 279 -61.5t92 -151.5q0 -54 -35 -88.5t-92 -34.5q-24 0 -44.5 15.5t-40 37.5t-45 44t-70 37.5t-103.5 15.5q-92 0 -142.5 -50.5t-50.5 -144.5v-94h512q79 0 111.5 -33t32.5 -113v-677l84 -25 q38 -10 53.5 -28.5t15.5 -49.5q0 -42 -27.5 -68t-74.5 -26h-373q-46 0 -73 24t-27 62q0 34 17 54.5t59 33.5l67 23v637h-377v-637l68 -23q42 -13 59 -33.5t17 -54.5q0 -38 -27.5 -62t-73.5 -24h-387q-46 0 -73 24t-27 62q0 34 17 52.5t61 31.5l88 27v632h-78q-92 0 -92 82z " />
<glyph unicode="&#xfb02;" horiz-adv-x="1337" d="M41 911q0 50 30 79.5t85 29.5h55v33q0 203 140.5 322.5t410.5 119.5q213 0 321 -55q43 -22 58.5 -53.5t15.5 -96.5v-1093l78 -25q42 -13 59 -32.5t17 -53.5q0 -38 -27.5 -62t-73.5 -24h-381q-46 0 -73 24t-27 62q0 34 17 53.5t59 32.5l74 25v1077q-64 35 -183 35 q-102 0 -154.5 -50t-52.5 -143v-96h129q93 0 93 -82q0 -52 -29.5 -80.5t-85.5 -28.5h-107v-632l74 -25q42 -13 59 -32.5t17 -53.5q0 -38 -27 -62t-73 -24h-394q-46 0 -73 24t-27 62q0 34 17 52.5t61 31.5l88 27v632h-78q-92 0 -92 82z" />
<glyph unicode="&#xfb03;" horiz-adv-x="1980" d="M41 911q0 50 30 79.5t85 29.5h55v10q0 203 138.5 323t400.5 120q84 0 158.5 -16.5t106.5 -32.5l32 -17q134 88 350 88q187 0 278.5 -61.5t91.5 -151.5q0 -54 -35 -88.5t-92 -34.5q-24 0 -44.5 15.5t-40 37.5t-45 44t-70 37.5t-103.5 15.5q-92 0 -142 -50.5t-50 -144.5 v-94h512q79 0 111 -33t32 -113v-677l84 -25q38 -10 54 -28.5t16 -49.5q0 -42 -28 -68t-75 -26h-372q-46 0 -73.5 24t-27.5 62q0 34 17 54.5t59 33.5l68 23v637h-377v-637l67 -23q42 -13 59 -33.5t17 -54.5q0 -38 -27 -62t-73 -24h-365q-46 0 -73 24t-27 62q0 34 17 54.5 t59 33.5l67 23v637h-377v-637l68 -23q42 -13 59 -33.5t17 -54.5q0 -38 -27.5 -62t-73.5 -24h-387q-46 0 -73 24t-27 62q0 34 17 52.5t61 31.5l88 27v632h-78q-92 0 -92 82zM489 1020h377v33q0 101 35 184q-8 5 -24 13.5t-69.5 22t-111.5 13.5q-102 0 -154.5 -50t-52.5 -144 v-72z" />
<glyph unicode="&#xfb04;" horiz-adv-x="1992" d="M41 911q0 50 30 79.5t85 29.5h55v10q0 203 138.5 323t400.5 120q84 0 158.5 -16.5t106.5 -32.5l32 -17q136 88 370 88q214 0 322 -55q43 -22 58 -53t15 -97v-1093l78 -25q42 -13 59 -32.5t17 -53.5q0 -38 -27 -62t-73 -24h-381q-46 0 -73.5 24t-27.5 62q0 34 17 53.5 t59 32.5l74 25v1077q-63 35 -182 35q-102 0 -154.5 -50t-52.5 -143v-96h129q92 0 92 -82q0 -52 -29.5 -80.5t-85.5 -28.5h-106v-632l74 -25q42 -13 58.5 -32.5t16.5 -53.5q0 -38 -27 -62t-73 -24h-371q-46 0 -73 24t-27 62q0 34 17 54.5t59 33.5l67 23v637h-377v-637l68 -23 q42 -13 59 -33.5t17 -54.5q0 -38 -27.5 -62t-73.5 -24h-387q-46 0 -73 24t-27 62q0 34 17 52.5t61 31.5l88 27v632h-78q-92 0 -92 82zM489 1020h377v33q0 98 35 184q-8 5 -24 13.5t-69.5 22t-111.5 13.5q-102 0 -154.5 -50t-52.5 -144v-72z" />
</font>
</defs>
</svg>
